<svg xmlns="http://www.w3.org/2000/svg" viewBox="0 0 32 32"><defs><style>.cls-1{fill:#603f8b;}.cls-2{fill:#fd49a0;stroke:#fd49a0;stroke-miterlimit:10;stroke-width:0.25px;}</style></defs><g id="Capa_3" data-name="Capa 3"><path class="cls-1" d="M7,9.4c0-.94,1.23-1.7,2.73-1.7H16c5.75,0,9.73,1.66,9.86,5.33a4,4,0,0,1,0,.64v1.69a4.23,4.23,0,0,1,0,.65q-.29,5.34-9.7,5.34H7.74c-.47,0-.79-.19-.79-.49Zm10,7.4c0,.43,0,0-.05.37a.66.66,0,0,0,.35.69c1.1.57.78-2.69,1-3s.91-.49,1.11-.15c.42.72-.45,3.57-.45,3.57a4.53,4.53,0,0,0,1.34-.08c0-.18-.3-3.13-.27-3.39V13.69c0-.23,0-.45-.06-.62q-.11-2.45-4-2.45H11.1c.88,0,1.72.45,1.72,1v5.17c0,.17,0,1.41.21,1.53,0,0,1.29.17,1.08,0-.72-.43-1.15-2.48-.92-3.26.14-.48,1.32-.4,1.34-.09.2,3.2,1.49,3.89,1.38,1.29,0-.25.24-.33.49-.33h0C16.8,16.12,16.91,16.38,16.94,16.8Z"/><path class="cls-2" d="M5.56,18.51h0L.8,14.4l4.74-3.77s.08,0,.09.08a.2.2,0,0,1,0,.19L1.18,14.41l4.41,3.82a.2.2,0,0,1,0,.19C5.62,18.48,5.59,18.51,5.56,18.51Z"/><path class="cls-2" d="M5.64,18.57l-.07,0h0a.14.14,0,0,0,.09,0s0,0,0,0Z"/><polygon class="cls-2" points="5.39 18 5.41 18 5.33 17.95 5.39 18"/><path class="cls-2" d="M5,17.63a2.75,2.75,0,0,0,.23.2v0h0C5.16,17.79,5,17.69,5,17.63Z"/><path class="cls-2" d="M4.78,17.4s0,0,0,.05h0Z"/><path class="cls-2" d="M4.82,17.44s0,0,0,0Z"/><path class="cls-2" d="M4.61,17.26l.07,0s-.06-.06,0,0S4.59,17.23,4.61,17.26Z"/><path class="cls-2" d="M4.55,17.23l0,0S4.57,17.24,4.55,17.23Z"/><path class="cls-2" d="M4.65,17.3l-.07-.05s0,0,0,0S4.62,17.28,4.65,17.3Z"/><path class="cls-2" d="M4.68,17.34s.07.07,0,0C4.8,17.46,4.8,17.43,4.68,17.34Z"/><path class="cls-2" d="M4.94,17.63l0,0,0,0Z"/><path class="cls-2" d="M4.26,16.94s0,0,0,0l.05,0Z"/><path class="cls-2" d="M4.27,17l-.07,0C4.26,17,4.27,17,4.27,17Z"/><polygon class="cls-2" points="4.52 17.24 4.64 17.32 4.5 17.22 4.52 17.24"/><polygon class="cls-2" points="4.01 16.72 4.05 16.75 3.98 16.7 4.01 16.72"/><path class="cls-2" d="M3.84,16.58s0,0,0,0l-.13-.09A.6.6,0,0,1,3.84,16.58Z"/><path class="cls-2" d="M3.66,16.43l.06,0Z"/><path class="cls-2" d="M4.09,16.83l0-.06v0Z"/><path class="cls-2" d="M4.06,16.8h0l0,0Z"/><path class="cls-2" d="M4.1,16.83h0Z"/><path class="cls-2" d="M4.36,17.08s-.13-.09-.06,0S4.29,17,4.36,17.08Z"/><path class="cls-2" d="M4.12,16.87l.06.06h0Z"/><polygon class="cls-2" points="4.08 16.85 4.12 16.87 4.09 16.85 4.08 16.85"/><path class="cls-2" d="M3.77,16.54l-.11-.08.12.11S3.81,16.58,3.77,16.54Z"/><path class="cls-2" d="M3.91,16.67h0Z"/><polygon class="cls-2" points="3.3 16.15 3.31 16.15 3.31 16.15 3.3 16.15"/><path class="cls-2" d="M3.78,16.57l.07.06-.07-.06Z"/><path class="cls-2" d="M3.55,16.35s0,0,.05,0S3.56,16.35,3.55,16.35Z"/><path class="cls-2" d="M3.9,16.65h0S3.89,16.65,3.9,16.65Z"/><path class="cls-2" d="M3.9,16.65l0,0,0,0Z"/><path class="cls-2" d="M3.13,16.12s.1.05.16.12.06,0,0-.09,0,0-.09,0,.14.14.08.1a.53.53,0,0,1-.11-.11s-.13-.08-.13-.05l.09.06S3.11,16.1,3.13,16.12Z"/><path class="cls-2" d="M3.44,16.27l0,0a.44.44,0,0,1-.08-.1l-.07,0,.14.12Z"/><path class="cls-2" d="M3.59,16.4s-.1-.06-.07,0a.3.3,0,0,0,.12.08c-.14-.11,0,0-.05-.06l.07.06L3.6,16.4h0s0,0,0,0h0l-.14-.11Z"/><path class="cls-2" d="M4.21,17h0S4.19,17,4.21,17Z"/><path class="cls-2" d="M4.16,17l0,0s0,0,0,0,.07.05,0,0h0c0-.05-.1-.12-.09-.12A.2.2,0,0,0,4.16,17Z"/><path class="cls-2" d="M3.87,16.69l-.12-.09,0,0h0Z"/><polygon class="cls-2" points="3.29 16.13 3.32 16.13 3.24 16.09 3.29 16.13"/><polygon class="cls-2" points="3.15 16.01 3.16 16 3.12 15.98 3.15 16.01"/><path class="cls-2" d="M3.87,12.05l0,0Z"/><path class="cls-2" d="M4.12,11.85h0S4.11,11.86,4.12,11.85Z"/><path class="cls-2" d="M2.9,13.15c.05,0,.12-.06.1-.07H3Z"/><path class="cls-2" d="M5.34,11.09h0l0,0Z"/><path class="cls-2" d="M5.34,11l.07,0Z"/><path class="cls-2" d="M2.56,13.12l0,0C2.59,13.11,2.56,13.13,2.56,13.12Z"/><path class="cls-2" d="M1.68,14.74l-.1-.1S1.65,14.74,1.68,14.74Z"/><path class="cls-2" d="M3.88,11.85l0,0Z"/><path class="cls-2" d="M1.46,14.54l0,0,.1.08A.63.63,0,0,0,1.46,14.54Z"/><path class="cls-2" d="M3.86,17h0Z"/><path class="cls-2" d="M5.12,18.23l0-.05Z"/><path class="cls-2" d="M2.58,15.5s0,0,0,0Z"/><path class="cls-2" d="M2.69,15.67h0Z"/><path class="cls-2" d="M1.26,14.35Z"/><path class="cls-2" d="M2.62,15.55l0,0Z"/><path class="cls-2" d="M2.62,15.54l0,0Z"/><path class="cls-2" d="M2.53,15.47l.05,0h0Z"/><path class="cls-2" d="M1.34,14.82h0S1.37,14.83,1.34,14.82Z"/><polygon class="cls-2" points="3.62 12.38 3.62 12.38 3.63 12.38 3.62 12.38"/><path class="cls-2" d="M3.73,12.28l-.1.1h.06Z"/><path class="cls-2" d="M3.29,12.51l.09,0c-.08.09-.15.14-.07.1s.31-.25.29-.29l.06,0,0,0c.11-.07.05-.09.19-.19s.08-.05.05,0L4,12s0,0,0,0l.15-.13h0l.08-.09s0,0,0,0l.08-.08s0,.05-.08.09c.1,0,.06-.06.25-.18l-.08.07a2.38,2.38,0,0,0,.23-.14s-.21.11-.12,0l.11-.09s0,0,.11-.08v0c.07-.06,0-.07.09-.1s.1-.06.12-.06-.09,0,0-.07a3,3,0,0,0,.28-.24c.08,0,0,0,0,0l.05-.06s0,0,0,0,0,0,.07-.09,0,0,.11-.08l0,0h0v0h0l0,0s0,0,0,0a.24.24,0,0,1,0,.1s0,0,0,.06l0,.05-.1.06c.08,0,0,0-.07.12l.07,0-.12.11s0,0,0,0l0,0s0,0,0,0l.05,0s0-.07,0-.07l0,0s0,0,0,0,0,0,0,0h0l-.17.12a3.18,3.18,0,0,1-.37.38s0,0,0,0,.14-.13.24-.2,0,0,0,0l-.17.15-.09.05c.06,0-.12.12-.18.19s0,0,.09-.1c-.11.06-.1.13-.21.19l0,0s-.17.14-.15.11l0,0a3.16,3.16,0,0,0-.43.38s0,0,0,0l-.19.27s-.12,0,0-.12l-.14.12s.07,0,0,0l-.19.1s0,0,0,.08,0,0,0,0l-.12.14s0,0,0,0L3,12.89l.06,0c-.16.12-.12.16-.27.28,0,0,0-.07-.06,0a1.07,1.07,0,0,1-.23.31l0,0-.09.09a2.4,2.4,0,0,1,.27-.36c-.07,0,0,0-.11.07s0-.05.06-.07l-.2.16s-.14.13-.12.14l.2-.19s-.08.15-.23.26,0,0,0-.06l-.14.13,0-.06a1.42,1.42,0,0,1-.22.18s-.11.06-.11.07.13,0,.11.07L1.7,14c-.07,0,.05-.1,0-.08l0,.05s0,0-.07,0-.15.12,0,.05c-.07.06-.08,0-.17.12s0,.1-.11.16h0l-.09.06.14.13a.87.87,0,0,0,.14.12s.06.08,0,.06l.09.06c.06.08-.1-.08-.05,0l.18.12a.72.72,0,0,0-.2-.16s.14,0,.29.16,0,0,.06.06c.2.19.21.12.37.29s0,0,0,0L2,15.11l.07.07L2,15.08c.05.06.35.3.5.45l.07,0,0-.05s.11.07,0,0a1.81,1.81,0,0,1,.25.2v0s0-.07-.08-.09.13.15.19.17l-.06-.07a1.38,1.38,0,0,1,.25.19c0-.05,0,0-.06-.09s-.22-.19-.15-.09c0-.07-.1-.1-.17-.19s0,0,0,0h0l0,0-.2-.14s0,0,0,0l-.06,0s-.1-.11,0,0l-.09-.08a1.14,1.14,0,0,0-.17-.15s-.12-.08-.07-.06L1.92,15h0a4.94,4.94,0,0,1-.44-.39L1.4,14.5l0,0h0l0,0,0,0a3,3,0,0,0,.42-.31v0a2.05,2.05,0,0,0,.23-.2H2c.07-.07.21-.15.34-.26l-.06.06c.17-.1.3-.28.45-.37l.09-.07h0l.06,0,0,0,.1-.08H3s0,0,0,0A.1.1,0,0,0,3,13c.05,0,.1-.08.16-.1s.19-.16.2-.2h0l.13-.1h0l.08-.1c.06,0,.09,0,0,0l.22-.21h0A1.09,1.09,0,0,1,4,12.21c.11-.06.47-.37.73-.55-.07,0,.12-.08.11-.11s.06,0,0,0a2.11,2.11,0,0,0,.26-.22s0,0,0,0l.05,0s0,0,0,0,.12-.13.11-.16a.29.29,0,0,0,.14-.12s.07,0,0,0l.21-.17a.15.15,0,0,0,0-.07v0a.38.38,0,0,0,0-.1.64.64,0,0,0,0-.09.18.18,0,0,0,0-.07H5.55l0,0-.06.05,0,0c0,.05-.08.07-.16.14h0c-.19.13-.07.07-.26.2h0s-.17.11-.27.2l0,0c0,.06-.18.09-.24.13s0,0,0,0c-.16.1,0,0-.11.12s0,0-.07,0a2.56,2.56,0,0,1-.31.26s.06,0,0,0a1.58,1.58,0,0,0-.29.22h0c-.05.06-.19.17-.21.21s-.36.32-.39.28l-.18.15h0a.82.82,0,0,0-.19.18s0,0,0,0a1.93,1.93,0,0,0-.33.28h0s-.27.18-.43.33l0,0c-.18.17-.49.33-.52.43l-.12.12c.17-.13,0,0,.06,0s-.17.12-.1,0h0s-.21.16-.22.14L1,14.17l-.3.23.28.25.22.2v0l.1.09s0,0-.05,0a.33.33,0,0,0,.13.09c.14.13-.07,0,0,0l.06,0h0a.4.4,0,0,1,.15.11c.05.05,0,0,0,.05l0,0,.12.11,0-.06c.07.05.12.11.08,0,.06.1.47.42.51.48a1.6,1.6,0,0,1,.26.21s0-.05.06,0,.15.15.19.23c0-.07.24.2.17.1.07.06,0,0,0,.07s.36.32.57.5c0,0,0,0,0,0l.09.11c.05,0,.06,0,.12.09s0,0,0,0c.39.37.84.7,1.22,1.09,0-.06,0,0,0,0s0,0,0,0l.15.16s.19.16.22.16l-.06,0c.09,0-.06-.13,0-.15S5.17,18.08,5,18s0,0,0,0a.58.58,0,0,1-.15-.12h0c-.21-.18-.3-.26-.53-.48v0l-.08-.08c-.07,0,.14.12.07.1S4,17.13,4,17.06s0,0-.06,0l0,0h0a.17.17,0,0,1-.06-.08l0,0c-.06-.07-.19-.16-.21-.19l.07.07c-.22-.17-.47-.41-.69-.57v0c-.17-.13-.12-.12-.3-.27h0l-.14-.1c.05,0-.07-.09,0-.05a1.4,1.4,0,0,0-.23-.14v0a.37.37,0,0,1-.15-.1c.08.06,0-.06,0,0-.16-.18-.29-.21-.34-.31s.14.15.09.11-.09,0-.14-.09-.07-.12-.22-.24l0,0a2,2,0,0,1-.17-.15c-.05,0-.08-.08-.11-.07l.14.11a1.23,1.23,0,0,1-.29-.22l.08.06s-.07-.06-.1-.1.16.14.26.19-.17-.12-.11-.1-.14-.13-.26-.2h0l-.08-.06.06,0a1.27,1.27,0,0,1-.12-.1l0,0,0,0H1s0,0,0,0,0,0,0,0l-.05,0,0,0a0,0,0,0,1,0,0H1l.05,0-.07,0s0,0,0,0H1l.14-.09c.15-.12,0,0,0,0s.07-.06.13-.12h0c.18-.13,0-.06.19-.18L1.41,14l.08-.07v0a1,1,0,0,1,.2-.16s0,0,.07-.1,0,0,.09,0a.18.18,0,0,1-.09.08l0,0,.18-.14,0,0L2,13.52s0,0,0,0l.1-.09a.17.17,0,0,1-.06.09l.14-.14.07,0c.09-.06.19-.18.31-.26l0,0a2.33,2.33,0,0,0,.32-.25l.09,0c.09-.08-.11.06,0-.08s0,0,.1,0a.94.94,0,0,1,.25-.22Zm1.19-.95s-.06.07-.09.07A.23.23,0,0,1,4.48,11.56Zm.67-.35a.22.22,0,0,1,.07-.06Zm-2.92,4Zm.1.1h0l-.06-.05Zm-.73-.14,0,0S1.61,15.18,1.6,15.18Z"/><path class="cls-2" d="M5.34,11h0S5.36,11,5.34,11Z"/><polygon class="cls-2" points="2.56 13.11 2.56 13.11 2.56 13.12 2.56 13.11"/><path class="cls-2" d="M1.65,14l0,0Z"/><path class="cls-2" d="M2.9,15.77l-.07,0,0,0S2.87,15.75,2.9,15.77Z"/><path class="cls-2" d="M3.4,16.34l0,0h0S3.36,16.3,3.4,16.34Z"/><path class="cls-2" d="M2.92,15.86s0,.05.09.09H3S3,15.9,2.92,15.86Z"/><path class="cls-2" d="M3,16l0,0Z"/><path class="cls-2" d="M2.47,15.43s0,0,0,0S2.34,15.33,2.47,15.43Z"/><polygon class="cls-2" points="2.93 15.93 2.93 15.9 2.89 15.89 2.93 15.93"/><path class="cls-2" d="M2.57,15.6l.08.07h0Z"/><path class="cls-2" d="M2.67,15.68l.06.05Z"/><polygon class="cls-2" points="2.83 15.85 2.81 15.82 2.76 15.78 2.83 15.85"/><path class="cls-2" d="M1.78,14.91l-.08-.06,0,0S1.79,14.93,1.78,14.91Z"/><path class="cls-2" d="M2,15.16l0,0H2Z"/><path class="cls-2" d="M1.76,15s-.13-.09,0,0S1.83,15,1.76,15Z"/><polygon class="cls-2" points="1.81 13.9 1.79 13.92 1.81 13.94 1.81 13.9"/><path class="cls-2" d="M2.87,13c-.11.07,0,0-.11.09s.08-.05.06,0S2.91,13,2.87,13Z"/><path class="cls-2" d="M2.82,13l0,0Z"/><polygon class="cls-2" points="5.34 18.44 5.39 18.49 5.36 18.45 5.34 18.44"/><path class="cls-2" d="M5.47,18.52v0h.09s-.06,0-.07,0S5.47,18.53,5.47,18.52Z"/><path class="cls-2" d="M4.68,11.45h0l-.06,0Z"/><polygon class="cls-2" points="3.81 12.13 3.82 12.12 3.78 12.12 3.81 12.13"/><path class="cls-2" d="M3.1,12.72l.09-.07C3.13,12.7,3.08,12.71,3.1,12.72Z"/><path class="cls-2" d="M26.45,18.37s-.05,0-.07-.09a.25.25,0,0,1,0-.2l4.4-3.83-4.4-3.53a.27.27,0,0,1,0-.19c0-.08.06-.11.1-.08l4.72,3.79-4.72,4.11Z"/><path class="cls-2" d="M26.53,18.42a.11.11,0,0,1-.07,0s0,0,0,0a.09.09,0,0,0,.08,0h0Z"/><polygon class="cls-2" points="26.96 18 26.95 18.01 27.01 17.94 26.96 18"/><path class="cls-2" d="M27.38,17.63a2.91,2.91,0,0,0-.23.2h0l0,0Z"/><path class="cls-2" d="M27.64,17.48s0-.05-.06,0h0Z"/><path class="cls-2" d="M27.6,17.51Z"/><path class="cls-2" d="M27.8,17.33l-.06.06s.07-.05.06,0S27.84,17.31,27.8,17.33Z"/><path class="cls-2" d="M27.84,17.27l0,0S27.83,17.29,27.84,17.27Z"/><path class="cls-2" d="M27.75,17.36l.06-.06s0,0,0,0Z"/><path class="cls-2" d="M27.71,17.39s-.08.06,0,0C27.58,17.49,27.61,17.49,27.71,17.39Z"/><path class="cls-2" d="M27.39,17.6l-.05,0,0,0A.44.44,0,0,1,27.39,17.6Z"/><path class="cls-2" d="M28.17,17h0l0,0Z"/><path class="cls-2" d="M28.13,17l.06-.06C28.13,17,28.12,17,28.13,17Z"/><polygon class="cls-2" points="27.83 17.24 27.74 17.35 27.86 17.22 27.83 17.24"/><polygon class="cls-2" points="28.41 16.81 28.39 16.85 28.44 16.78 28.41 16.81"/><path class="cls-2" d="M28.58,16.66s.05,0,0,0l.11-.11Z"/><path class="cls-2" d="M28.76,16.5l-.05.06Z"/><path class="cls-2" d="M28.3,16.87s0,0,.06,0h0Z"/><path class="cls-2" d="M28.33,16.85h0l.05-.05Z"/><path class="cls-2" d="M28.3,16.88h0Z"/><path class="cls-2" d="M28,17.1s.11-.11,0-.05S28.06,17,28,17.1Z"/><path class="cls-2" d="M28.25,16.89l-.07.06s0,0,0,0Z"/><polygon class="cls-2" points="28.28 16.86 28.25 16.89 28.28 16.87 28.28 16.86"/><path class="cls-2" d="M28.63,16.59l.09-.09-.12.1S28.59,16.63,28.63,16.59Z"/><path class="cls-2" d="M28.48,16.72h0Z"/><polygon class="cls-2" points="29.08 16.19 29.08 16.19 29.08 16.19 29.08 16.19"/><path class="cls-2" d="M28.59,16.61l-.06.05.07-.06Z"/><path class="cls-2" d="M28.85,16.41l-.05,0S28.85,16.42,28.85,16.41Z"/><path class="cls-2" d="M28.5,16.71Z"/><path class="cls-2" d="M28.5,16.71l0-.05,0,.05Z"/><path class="cls-2" d="M29.13,16s-.06.1-.14.14,0,.06.09,0,0,0,.05-.07-.16.11-.11.06a.54.54,0,0,1,.13-.1s.1-.11.06-.12l-.07.08S29.16,16,29.13,16Z"/><path class="cls-2" d="M29,16.3l0,0a.52.52,0,0,1,.11-.07l0-.07-.14.12Z"/><path class="cls-2" d="M28.79,16.44s.08-.1,0-.07l-.1.1c.13-.11,0,0,.07,0l-.07.06.08-.05h0s0,0,0,0h0l.13-.12Z"/><path class="cls-2" d="M28.08,17h0S28.1,17,28.08,17Z"/><path class="cls-2" d="M28.14,16.92l0,0s0,0,0,0-.06.07,0,0h0l.13-.08Z"/><path class="cls-2" d="M28.47,16.67l.11-.1-.07,0h0C28.46,16.67,28.48,16.66,28.47,16.67Z"/><polygon class="cls-2" points="29.1 16.18 29.1 16.2 29.15 16.13 29.1 16.18"/><polygon class="cls-2" points="29.24 16.05 29.25 16.07 29.28 16.03 29.24 16.05"/><path class="cls-2" d="M27.74,11.68l0,0Z"/><path class="cls-2" d="M27.5,11.48h0Z"/><path class="cls-2" d="M29.7,12.93s-.08-.11-.09-.09v0Z"/><path class="cls-2" d="M27.16,11v0h0Z"/><path class="cls-2" d="M27.09,11,27,11A.17.17,0,0,0,27.09,11Z"/><path class="cls-2" d="M29.08,12.73l0,0C29.06,12.7,29.09,12.73,29.08,12.73Z"/><path class="cls-2" d="M30.71,14.77l.1-.08S30.71,14.75,30.71,14.77Z"/><path class="cls-2" d="M27.55,11.72l0,0Z"/><path class="cls-2" d="M30.93,14.59l0,0-.1.08A.58.58,0,0,0,30.93,14.59Z"/><path class="cls-2" d="M28,16.84h0Z"/><path class="cls-2" d="M26.53,17.91l.06-.05Z"/><path class="cls-2" d="M29.82,15.56Z"/><path class="cls-2" d="M29.64,15.64h0Z"/><path class="cls-2" d="M31.17,14.26h0Z"/><path class="cls-2" d="M29.77,15.59l0,0S29.8,15.58,29.77,15.59Z"/><path class="cls-2" d="M29.78,15.59l0,0Z"/><path class="cls-2" d="M29.86,15.52a.1.1,0,0,1-.05,0h0Z"/><path class="cls-2" d="M30.44,14.64h0S30.42,14.66,30.44,14.64Z"/><polygon class="cls-2" points="28.79 12.38 28.8 12.39 28.79 12.38 28.79 12.38"/><path class="cls-2" d="M28.67,12.3a.41.41,0,0,1,.12.08v-.06Z"/><path class="cls-2" d="M28.33,12.14l-.07-.07c.1.06.17.12.11,0s-.32-.25-.35-.22L28,11.85l0,0c-.09-.09-.09,0-.22-.14s-.07-.07,0-.05l-.11-.07s0,0,0,0l-.16-.13h0l-.11-.06s0,0,0,0l-.1-.06s.05,0,.11.06c-.05-.1-.08-.05-.23-.2l.08.06c0-.07-.1-.11-.18-.19s.15.17.05.11a.26.26,0,0,0-.11-.09s0,0-.1-.1h0a.41.41,0,0,0-.11-.06.2.2,0,0,1-.09-.11c-.12-.1.07.09-.08,0a1,1,0,0,0-.17-.14l0,0a.14.14,0,0,1,0-.06c0-.06,0,0,0,0a.13.13,0,0,1,0-.06h0v0h0l0,0,.06.06a.91.91,0,0,0,.16.13s0,0,0,0l.25.15L27,11c-.06-.07,0,0,.13,0l-.05-.06.13.09s0,0,0,0l0,0s0,0,0,0l0,0s-.08,0-.08,0l.05,0h0l0,0,0,0h0l.16.14a4.1,4.1,0,0,1,.45.28c-.06,0,0,0-.05,0a2.22,2.22,0,0,0-.24-.19c0,.05,0,0,0,0l.18.12s0,0,.07.08.14.09.22.14,0,0-.11-.07c.08.1.15.07.23.16l-.05,0c.06,0,.17.14.14.12h0a2.62,2.62,0,0,0,.46.33h0l.31.13s0,.11-.11,0a.67.67,0,0,0,.14.11s0-.07,0-.05l.14.16s0,0,.08,0,0,0,0,0l.16.08s0,0,0,0a1.46,1.46,0,0,1,.15.12l-.05-.06c.14.13.18.08.33.21,0,0-.08,0,0,.06a1.05,1.05,0,0,1,.35.15l0,0,.11.07a4.32,4.32,0,0,1-.41-.18.38.38,0,0,0,.09.08s-.05,0-.08,0l.19.16s.17.11.17.09l-.23-.16s.17,0,.3.17,0,0,0,0a.53.53,0,0,1,.15.11l-.06,0c.07.07.14.08.22.17s.08.1.09.09,0-.13.05-.12l.18.2c0,.06-.1,0-.07,0l.05,0s0,0,0,.06.15.12.05,0l.16.13s.09,0,.18.08h0l0,0-.35.3s-.09,0-.07,0l-.07.08c-.09.05.09-.08,0-.05a1.49,1.49,0,0,1-.15.17s.14-.12.19-.18-.06.13-.2.27-.05,0-.07,0c-.21.18-.15.19-.33.33s0,0-.05,0,.14-.11.2-.17l-.08.06.12-.11c-.07,0-.35.31-.52.43,0,0-.07.08,0,.07l.05-.05c.05,0-.08.1,0,.05a2.26,2.26,0,0,1-.22.22h0l.09-.07s-.17.1-.19.16l.07-.05a1.56,1.56,0,0,1-.22.23c.05,0,0,0,.1-.06s.21-.18.11-.13c.08,0,.11-.09.21-.14s0,0,0-.05h0l-.05,0,.18-.18s0,0,0,0l.05-.06s.13-.08,0,0l.09-.07.18-.15s.09-.1.06-.06l.14-.13h0a3.46,3.46,0,0,1,.45-.38,1.39,1.39,0,0,1,.17-.16h0l.1-.09.15-.13-.08-.06-.05-.05,0,0,0,0L31,14l-.23-.18h0l-.25-.18h0c-.09-.05-.2-.17-.33-.27,0,0,.05,0,.07.05-.13-.15-.34-.24-.46-.37L29.75,13h0l0,0s0,0,0,0l-.11-.08v0h0s0,0,0,0l-.06,0c0-.05-.11-.08-.13-.14s-.21-.15-.25-.14,0,0,0,0l-.13-.1v0l-.11-.06c-.05,0-.07-.08,0,0-.16-.1-.12-.09-.25-.16h0a.85.85,0,0,1-.14-.1c-.08-.1-.47-.38-.7-.59,0,.06-.1-.11-.13-.09s0,0,0,0a2.89,2.89,0,0,0-.28-.21s0,0,0,0,0,0-.06,0l.05,0c-.13-.1-.16-.09-.19-.07a.27.27,0,0,0-.14-.11s-.05-.06,0,0a1.56,1.56,0,0,0-.28-.22l-.07-.06-.21-.16,0,0s-.05,0-.08,0l0,0,0,0h-.06a.13.13,0,0,0-.06.07l0,0v.11s0,0,0,0a.12.12,0,0,0,0,.08h0v0s.14.15.26.22l0,0c.07,0,.13.17.19.21s0,0,0,0,0,0,.14.08,0,0,0,.07a2.54,2.54,0,0,1,.33.24s0-.05,0,0a2,2,0,0,0,.28.23v0a2.56,2.56,0,0,0,.25.16c0,.09.39.28.35.32l.19.14h0a.82.82,0,0,0,.22.15s0,0,0,0a1.54,1.54,0,0,0,.34.26v0a4.46,4.46,0,0,0,.41.34h0c.2.14.43.41.53.42l.14.09c-.16-.14,0,0,0-.07s.15.15.07.09h0c-.05,0,.2.17.18.18l.28.23.14.12.05,0,0,0,0,0-.08.06-.17.15h.05l-.11.09s0,0,0-.05-.11.12-.11.12,0-.07,0,0l-.06.05h0a.72.72,0,0,1-.13.14l-.06,0s0,0,0,0l-.13.11.06,0c-.05.05-.12.1,0,.07-.11.05-.49.4-.55.44a2.66,2.66,0,0,1-.24.23s.05,0,0,.06-.17.11-.26.15c.08,0-.23.21-.12.15-.07.06,0,0-.07,0s-.37.31-.57.49c0,0,0,0,0,0l-.13.07s0,.06-.1.11,0,0,0,0c-.42.33-.81.73-1.25,1,.06,0,0,0,0,0s0,0,0,0l-.18.13a0,0,0,0,1,0,0l0,0a.47.47,0,0,0-.05.1c0,.07,0,.14,0,.15a.31.31,0,0,1,0-.08c0,.05,0,0,.05,0a.11.11,0,0,1,0-.06h0s0,0,.06-.06a.35.35,0,0,1,.09-.07,1,1,0,0,0,.19-.17s0,0,0,0,.06-.07.14-.13h0c.21-.19.31-.26.55-.46h0l.1-.07c0-.07-.15.12-.11.06s.36-.31.43-.33,0,0,0-.06h0v0a.26.26,0,0,1,.09-.05l0,.05c.07-.05.18-.17.21-.19l-.08.06c.2-.19.47-.41.67-.6h0a3.79,3.79,0,0,1,.29-.26h0a.68.68,0,0,1,.12-.12s.09-.06,0,0a.8.8,0,0,0,.17-.21h0a.73.73,0,0,1,.11-.13c-.06.07.07,0,0,0,.2-.14.25-.25.36-.3s-.17.12-.13.08,0-.08.11-.13a1.48,1.48,0,0,0,.27-.18l0,0c.06,0,.1-.1.17-.15s.09-.07.08-.1l-.13.12a1.58,1.58,0,0,1,.26-.25l-.06.07a1.06,1.06,0,0,1,.11-.09s-.16.14-.23.23.14-.15.12-.09.15-.12.23-.23v0l.07-.08,0,.06,0,0,0,0,0,0,.15-.12a.39.39,0,0,0-.1-.08.49.49,0,0,1,.1.08c-.06.05-.07,0-.07,0s0,0-.05,0l.07-.06-.11-.09,0,0,0,0a1,1,0,0,0-.17-.15s.11.1.06.07l-.12-.12c-.15-.12,0,0-.05,0s-.08-.06-.15-.11h0c-.17-.14-.07,0-.22-.14l.08,0-.08-.06h0a.83.83,0,0,1-.21-.16s0,0-.11,0,0,0-.07-.08a.28.28,0,0,1,.11.07l0,0a1.09,1.09,0,0,0-.18-.15l0,0-.17-.11s0,0,0,0l-.11-.08s0,0,.1,0L29.44,13s-.07-.07-.05-.06-.21-.14-.32-.24l0,0a3,3,0,0,0-.32-.25l-.06-.08c-.09-.07.08.1-.08,0s0,0-.07-.09a.9.9,0,0,1-.27-.19Zm-1.19-.94a.24.24,0,0,1,.08.06S27.17,11.23,27.14,11.2Zm.17,0-.07-.06A.19.19,0,0,1,27.31,11.16Zm2.84,4.1Zm-.11.08s0,0,0,0l.05,0Zm0-.5h0C30,14.87,30,14.86,30,14.84Z"/><path class="cls-2" d="M27.09,11h0S27.08,11,27.09,11Z"/><polygon class="cls-2" points="29.07 12.73 29.07 12.73 29.08 12.73 29.07 12.73"/><path class="cls-2" d="M30.77,14l0,0Z"/><path class="cls-2" d="M29.51,15.84l.07-.06a.17.17,0,0,1-.07,0S29.53,15.82,29.51,15.84Z"/><path class="cls-2" d="M28.88,16.26l0,0h0S28.92,16.23,28.88,16.26Z"/><path class="cls-2" d="M29.42,15.85s-.05,0-.1.08h0S29.37,15.9,29.42,15.85Z"/><path class="cls-2" d="M29.31,15.94l0,0Z"/><path class="cls-2" d="M29.92,15.46s0,0,0,0S30,15.35,29.92,15.46Z"/><polygon class="cls-2" points="29.35 15.85 29.38 15.85 29.4 15.82 29.35 15.85"/><path class="cls-2" d="M29.72,15.54l-.07.06,0,0C29.68,15.59,29.73,15.54,29.72,15.54Z"/><path class="cls-2" d="M29.63,15.62a.17.17,0,0,1-.06.06Z"/><polygon class="cls-2" points="29.45 15.76 29.47 15.74 29.53 15.7 29.45 15.76"/><path class="cls-2" d="M30.52,14.85l.08-.07-.05,0S30.5,14.86,30.52,14.85Z"/><path class="cls-2" d="M30.25,15l0,0v0Z"/><path class="cls-2" d="M30.48,14.83s.1-.12,0,0S30.4,14.89,30.48,14.83Z"/><polygon class="cls-2" points="30.67 13.82 30.69 13.84 30.71 13.81 30.67 13.82"/><path class="cls-2" d="M29.52,13c.09.08,0,0,.12.08s-.07-.06,0-.05S29.51,13,29.52,13Z"/><path class="cls-2" d="M29.6,13l0,0Z"/><path class="cls-2" d="M26.3,18.16s0,.07,0,.11a.2.2,0,0,0,0-.07Z"/><path class="cls-2" d="M26.35,18.35v0a.11.11,0,0,0,.1,0s-.05,0-.07,0A.05.05,0,0,1,26.35,18.35Z"/><path class="cls-2" d="M27,11h0a.12.12,0,0,0,.05.05Z"/><polygon class="cls-2" points="27.84 11.73 27.82 11.71 27.84 11.75 27.84 11.73"/><path class="cls-2" d="M28.57,12.29l-.09-.08C28.54,12.26,28.57,12.31,28.57,12.29Z"/></g></svg>