<?xml version="1.0" encoding="UTF-8"?>
<svg xmlns="http://www.w3.org/2000/svg" xmlns:xlink="http://www.w3.org/1999/xlink" width="64px" height="64px" viewBox="0 0 64 64" version="1.1">
<g id="surface1">
<path style=" stroke:none;fill-rule:nonzero;fill:rgb(37.647059%,24.705882%,54.509804%);fill-opacity:1;" d="M 14 18.800781 C 14 16.921875 16.460938 15.398438 19.460938 15.398438 L 32 15.398438 C 43.5 15.398438 51.460938 18.71875 51.71875 26.058594 C 51.753906 26.484375 51.753906 26.914062 51.71875 27.339844 L 51.71875 30.71875 C 51.753906 31.152344 51.753906 31.585938 51.71875 32.019531 C 51.332031 39.140625 44.867188 42.699219 32.320312 42.699219 L 15.480469 42.699219 C 14.539062 42.699219 13.898438 42.320312 13.898438 41.71875 Z M 34 33.601562 C 34 34.460938 34 33.601562 33.898438 34.339844 C 33.8125 34.902344 34.09375 35.460938 34.601562 35.71875 C 36.800781 36.859375 36.160156 30.339844 36.601562 29.71875 C 37.039062 29.101562 38.421875 28.738281 38.820312 29.421875 C 39.660156 30.859375 37.921875 36.558594 37.921875 36.558594 C 38.816406 36.640625 39.71875 36.585938 40.601562 36.398438 C 40.601562 36.039062 40 30.140625 40.058594 29.621094 L 40.058594 27.378906 C 40.058594 26.921875 40.058594 26.480469 39.941406 26.140625 C 39.792969 22.875 37.125 21.238281 31.941406 21.238281 L 22.199219 21.238281 C 23.960938 21.238281 25.640625 22.140625 25.640625 23.238281 L 25.640625 33.578125 C 25.640625 33.921875 25.640625 36.398438 26.058594 36.640625 C 26.058594 36.640625 28.640625 36.980469 28.21875 36.640625 C 26.78125 35.78125 25.921875 31.679688 26.378906 30.121094 C 26.660156 29.160156 29.019531 29.320312 29.058594 29.941406 C 29.460938 36.339844 32.039062 37.71875 31.820312 32.519531 C 31.820312 32.019531 32.300781 31.859375 32.800781 31.859375 C 33.601562 32.238281 33.820312 32.761719 33.878906 33.601562 Z M 34 33.601562 "/>
<path style="fill-rule:nonzero;fill:rgb(99.215686%,28.627451%,62.745098%);fill-opacity:1;stroke-width:0.25;stroke-linecap:butt;stroke-linejoin:miter;stroke:rgb(99.215686%,28.627451%,62.745098%);stroke-opacity:1;stroke-miterlimit:10;" d="M 5.560547 18.509766 L 0.800781 14.400391 L 5.539062 10.630859 C 5.539062 10.630859 5.619141 10.630859 5.630859 10.710938 C 5.662109 10.769531 5.662109 10.839844 5.630859 10.900391 L 1.179688 14.410156 L 5.589844 18.230469 C 5.621094 18.289062 5.621094 18.361328 5.589844 18.419922 C 5.619141 18.480469 5.589844 18.509766 5.560547 18.509766 Z M 5.560547 18.509766 " transform="matrix(2,0,0,2,0,0)"/>
<path style="fill-rule:nonzero;fill:rgb(99.215686%,28.627451%,62.745098%);fill-opacity:1;stroke-width:0.25;stroke-linecap:butt;stroke-linejoin:miter;stroke:rgb(99.215686%,28.627451%,62.745098%);stroke-opacity:1;stroke-miterlimit:10;" d="M 5.640625 18.570312 L 5.570312 18.570312 C 5.599609 18.580078 5.630859 18.580078 5.660156 18.570312 Z M 5.640625 18.570312 " transform="matrix(2,0,0,2,0,0)"/>
<path style="fill-rule:nonzero;fill:rgb(99.215686%,28.627451%,62.745098%);fill-opacity:1;stroke-width:0.25;stroke-linecap:butt;stroke-linejoin:miter;stroke:rgb(99.215686%,28.627451%,62.745098%);stroke-opacity:1;stroke-miterlimit:10;" d="M 5.390625 18 L 5.410156 18 L 5.330078 17.949219 Z M 5.390625 18 " transform="matrix(2,0,0,2,0,0)"/>
<path style="fill-rule:nonzero;fill:rgb(99.215686%,28.627451%,62.745098%);fill-opacity:1;stroke-width:0.25;stroke-linecap:butt;stroke-linejoin:miter;stroke:rgb(99.215686%,28.627451%,62.745098%);stroke-opacity:1;stroke-miterlimit:10;" d="M 5 17.630859 C 5.072266 17.701172 5.150391 17.767578 5.230469 17.830078 C 5.160156 17.789062 5 17.689453 5 17.630859 Z M 5 17.630859 " transform="matrix(2,0,0,2,0,0)"/>
<path style="fill:none;stroke-width:0.25;stroke-linecap:butt;stroke-linejoin:miter;stroke:rgb(99.215686%,28.627451%,62.745098%);stroke-opacity:1;stroke-miterlimit:10;" d="M 4.779297 17.400391 C 4.779297 17.400391 4.779297 17.400391 4.779297 17.449219 Z M 4.779297 17.400391 " transform="matrix(2,0,0,2,0,0)"/>
<path style="fill:none;stroke-width:0.25;stroke-linecap:butt;stroke-linejoin:miter;stroke:rgb(99.215686%,28.627451%,62.745098%);stroke-opacity:1;stroke-miterlimit:10;" d="M 4.820312 17.439453 Z M 4.820312 17.439453 " transform="matrix(2,0,0,2,0,0)"/>
<path style="fill-rule:nonzero;fill:rgb(99.215686%,28.627451%,62.745098%);fill-opacity:1;stroke-width:0.25;stroke-linecap:butt;stroke-linejoin:miter;stroke:rgb(99.215686%,28.627451%,62.745098%);stroke-opacity:1;stroke-miterlimit:10;" d="M 4.609375 17.259766 L 4.679688 17.259766 C 4.679688 17.259766 4.619141 17.199219 4.679688 17.259766 C 4.740234 17.320312 4.589844 17.230469 4.609375 17.259766 Z M 4.609375 17.259766 " transform="matrix(2,0,0,2,0,0)"/>
<path style="fill-rule:nonzero;fill:rgb(99.215686%,28.627451%,62.745098%);fill-opacity:1;stroke-width:0.25;stroke-linecap:butt;stroke-linejoin:miter;stroke:rgb(99.215686%,28.627451%,62.745098%);stroke-opacity:1;stroke-miterlimit:10;" d="M 4.550781 17.230469 C 4.550781 17.230469 4.570312 17.240234 4.550781 17.230469 Z M 4.550781 17.230469 " transform="matrix(2,0,0,2,0,0)"/>
<path style="fill-rule:nonzero;fill:rgb(99.215686%,28.627451%,62.745098%);fill-opacity:1;stroke-width:0.25;stroke-linecap:butt;stroke-linejoin:miter;stroke:rgb(99.215686%,28.627451%,62.745098%);stroke-opacity:1;stroke-miterlimit:10;" d="M 4.650391 17.300781 L 4.580078 17.25 C 4.580078 17.25 4.619141 17.279297 4.650391 17.300781 Z M 4.650391 17.300781 " transform="matrix(2,0,0,2,0,0)"/>
<path style="fill-rule:nonzero;fill:rgb(99.215686%,28.627451%,62.745098%);fill-opacity:1;stroke-width:0.25;stroke-linecap:butt;stroke-linejoin:miter;stroke:rgb(99.215686%,28.627451%,62.745098%);stroke-opacity:1;stroke-miterlimit:10;" d="M 4.679688 17.339844 C 4.679688 17.339844 4.75 17.410156 4.679688 17.339844 C 4.800781 17.460938 4.800781 17.429688 4.679688 17.339844 Z M 4.679688 17.339844 " transform="matrix(2,0,0,2,0,0)"/>
<path style="fill:none;stroke-width:0.25;stroke-linecap:butt;stroke-linejoin:miter;stroke:rgb(99.215686%,28.627451%,62.745098%);stroke-opacity:1;stroke-miterlimit:10;" d="M 4.939453 17.630859 Z M 4.939453 17.630859 " transform="matrix(2,0,0,2,0,0)"/>
<path style="fill:none;stroke-width:0.25;stroke-linecap:butt;stroke-linejoin:miter;stroke:rgb(99.215686%,28.627451%,62.745098%);stroke-opacity:1;stroke-miterlimit:10;" d="M 4.259766 16.939453 L 4.310547 16.939453 Z M 4.259766 16.939453 " transform="matrix(2,0,0,2,0,0)"/>
<path style="fill:none;stroke-width:0.25;stroke-linecap:butt;stroke-linejoin:miter;stroke:rgb(99.215686%,28.627451%,62.745098%);stroke-opacity:1;stroke-miterlimit:10;" d="M 4.269531 17 L 4.199219 17 C 4.259766 17 4.269531 17 4.269531 17 Z M 4.269531 17 " transform="matrix(2,0,0,2,0,0)"/>
<path style="fill-rule:nonzero;fill:rgb(99.215686%,28.627451%,62.745098%);fill-opacity:1;stroke-width:0.25;stroke-linecap:butt;stroke-linejoin:miter;stroke:rgb(99.215686%,28.627451%,62.745098%);stroke-opacity:1;stroke-miterlimit:10;" d="M 4.519531 17.240234 L 4.640625 17.320312 L 4.5 17.220703 Z M 4.519531 17.240234 " transform="matrix(2,0,0,2,0,0)"/>
<path style="fill-rule:nonzero;fill:rgb(99.215686%,28.627451%,62.745098%);fill-opacity:1;stroke-width:0.25;stroke-linecap:butt;stroke-linejoin:miter;stroke:rgb(99.215686%,28.627451%,62.745098%);stroke-opacity:1;stroke-miterlimit:10;" d="M 4.009766 16.720703 L 4.050781 16.75 L 3.980469 16.699219 Z M 4.009766 16.720703 " transform="matrix(2,0,0,2,0,0)"/>
<path style="fill-rule:nonzero;fill:rgb(99.215686%,28.627451%,62.745098%);fill-opacity:1;stroke-width:0.25;stroke-linecap:butt;stroke-linejoin:miter;stroke:rgb(99.215686%,28.627451%,62.745098%);stroke-opacity:1;stroke-miterlimit:10;" d="M 3.839844 16.580078 L 3.710938 16.490234 C 3.757812 16.513672 3.800781 16.544922 3.839844 16.580078 Z M 3.839844 16.580078 " transform="matrix(2,0,0,2,0,0)"/>
<path style="fill:none;stroke-width:0.25;stroke-linecap:butt;stroke-linejoin:miter;stroke:rgb(99.215686%,28.627451%,62.745098%);stroke-opacity:1;stroke-miterlimit:10;" d="M 3.660156 16.429688 L 3.720703 16.429688 Z M 3.660156 16.429688 " transform="matrix(2,0,0,2,0,0)"/>
<path style="fill:none;stroke-width:0.25;stroke-linecap:butt;stroke-linejoin:miter;stroke:rgb(99.215686%,28.627451%,62.745098%);stroke-opacity:1;stroke-miterlimit:10;" d="M 4.089844 16.830078 L 4.089844 16.769531 Z M 4.089844 16.830078 " transform="matrix(2,0,0,2,0,0)"/>
<path style="fill:none;stroke-width:0.25;stroke-linecap:butt;stroke-linejoin:miter;stroke:rgb(99.215686%,28.627451%,62.745098%);stroke-opacity:1;stroke-miterlimit:10;" d="M 4.060547 16.800781 Z M 4.060547 16.800781 " transform="matrix(2,0,0,2,0,0)"/>
<path style="fill:none;stroke-width:0.25;stroke-linecap:butt;stroke-linejoin:miter;stroke:rgb(99.215686%,28.627451%,62.745098%);stroke-opacity:1;stroke-miterlimit:10;" d="M 4.099609 16.830078 Z M 4.099609 16.830078 " transform="matrix(2,0,0,2,0,0)"/>
<path style="fill-rule:nonzero;fill:rgb(99.215686%,28.627451%,62.745098%);fill-opacity:1;stroke-width:0.25;stroke-linecap:butt;stroke-linejoin:miter;stroke:rgb(99.215686%,28.627451%,62.745098%);stroke-opacity:1;stroke-miterlimit:10;" d="M 4.359375 17.080078 C 4.359375 17.080078 4.230469 16.990234 4.300781 17.080078 C 4.369141 17.169922 4.289062 17 4.359375 17.080078 Z M 4.359375 17.080078 " transform="matrix(2,0,0,2,0,0)"/>
<path style="fill-rule:nonzero;fill:rgb(99.215686%,28.627451%,62.745098%);fill-opacity:1;stroke-width:0.25;stroke-linecap:butt;stroke-linejoin:miter;stroke:rgb(99.215686%,28.627451%,62.745098%);stroke-opacity:1;stroke-miterlimit:10;" d="M 4.119141 16.869141 L 4.179688 16.929688 Z M 4.119141 16.869141 " transform="matrix(2,0,0,2,0,0)"/>
<path style="fill-rule:nonzero;fill:rgb(99.215686%,28.627451%,62.745098%);fill-opacity:1;stroke-width:0.25;stroke-linecap:butt;stroke-linejoin:miter;stroke:rgb(99.215686%,28.627451%,62.745098%);stroke-opacity:1;stroke-miterlimit:10;" d="M 4.080078 16.849609 L 4.119141 16.869141 L 4.089844 16.849609 Z M 4.080078 16.849609 " transform="matrix(2,0,0,2,0,0)"/>
<path style="fill-rule:nonzero;fill:rgb(99.215686%,28.627451%,62.745098%);fill-opacity:1;stroke-width:0.25;stroke-linecap:butt;stroke-linejoin:miter;stroke:rgb(99.215686%,28.627451%,62.745098%);stroke-opacity:1;stroke-miterlimit:10;" d="M 3.769531 16.539062 L 3.660156 16.460938 L 3.779297 16.570312 C 3.779297 16.570312 3.810547 16.580078 3.769531 16.539062 Z M 3.769531 16.539062 " transform="matrix(2,0,0,2,0,0)"/>
<path style="fill:none;stroke-width:0.25;stroke-linecap:butt;stroke-linejoin:miter;stroke:rgb(99.215686%,28.627451%,62.745098%);stroke-opacity:1;stroke-miterlimit:10;" d="M 3.910156 16.669922 Z M 3.910156 16.669922 " transform="matrix(2,0,0,2,0,0)"/>
<path style="fill:none;stroke-width:0.25;stroke-linecap:butt;stroke-linejoin:miter;stroke:rgb(99.215686%,28.627451%,62.745098%);stroke-opacity:1;stroke-miterlimit:10;" d="M 3.300781 16.150391 L 3.310547 16.150391 Z M 3.300781 16.150391 " transform="matrix(2,0,0,2,0,0)"/>
<path style="fill-rule:nonzero;fill:rgb(99.215686%,28.627451%,62.745098%);fill-opacity:1;stroke-width:0.25;stroke-linecap:butt;stroke-linejoin:miter;stroke:rgb(99.215686%,28.627451%,62.745098%);stroke-opacity:1;stroke-miterlimit:10;" d="M 3.779297 16.570312 L 3.849609 16.630859 Z M 3.779297 16.570312 " transform="matrix(2,0,0,2,0,0)"/>
<path style="fill:none;stroke-width:0.25;stroke-linecap:butt;stroke-linejoin:miter;stroke:rgb(99.215686%,28.627451%,62.745098%);stroke-opacity:1;stroke-miterlimit:10;" d="M 3.550781 16.349609 C 3.550781 16.349609 3.550781 16.349609 3.599609 16.349609 C 3.650391 16.349609 3.560547 16.349609 3.550781 16.349609 Z M 3.550781 16.349609 " transform="matrix(2,0,0,2,0,0)"/>
<path style="fill:none;stroke-width:0.25;stroke-linecap:butt;stroke-linejoin:miter;stroke:rgb(99.215686%,28.627451%,62.745098%);stroke-opacity:1;stroke-miterlimit:10;" d="M 3.900391 16.650391 C 3.900391 16.650391 3.890625 16.650391 3.900391 16.650391 Z M 3.900391 16.650391 " transform="matrix(2,0,0,2,0,0)"/>
<path style="fill:none;stroke-width:0.25;stroke-linecap:butt;stroke-linejoin:miter;stroke:rgb(99.215686%,28.627451%,62.745098%);stroke-opacity:1;stroke-miterlimit:10;" d="M 3.900391 16.650391 Z M 3.900391 16.650391 " transform="matrix(2,0,0,2,0,0)"/>
<path style="fill-rule:nonzero;fill:rgb(99.215686%,28.627451%,62.745098%);fill-opacity:1;stroke-width:0.25;stroke-linecap:butt;stroke-linejoin:miter;stroke:rgb(99.215686%,28.627451%,62.745098%);stroke-opacity:1;stroke-miterlimit:10;" d="M 3.130859 16.119141 C 3.130859 16.119141 3.230469 16.169922 3.289062 16.240234 C 3.349609 16.310547 3.349609 16.240234 3.289062 16.150391 C 3.230469 16.060547 3.289062 16.150391 3.199219 16.150391 C 3.109375 16.150391 3.339844 16.289062 3.279297 16.25 C 3.238281 16.21875 3.201172 16.181641 3.169922 16.140625 C 3.169922 16.140625 3.039062 16.060547 3.039062 16.089844 L 3.130859 16.150391 C 3.130859 16.150391 3.109375 16.099609 3.130859 16.119141 Z M 3.130859 16.119141 " transform="matrix(2,0,0,2,0,0)"/>
<path style="fill-rule:nonzero;fill:rgb(99.215686%,28.627451%,62.745098%);fill-opacity:1;stroke-width:0.25;stroke-linecap:butt;stroke-linejoin:miter;stroke:rgb(99.215686%,28.627451%,62.745098%);stroke-opacity:1;stroke-miterlimit:10;" d="M 3.439453 16.269531 C 3.408203 16.240234 3.380859 16.207031 3.359375 16.169922 L 3.289062 16.169922 L 3.429688 16.289062 Z M 3.439453 16.269531 " transform="matrix(2,0,0,2,0,0)"/>
<path style="fill-rule:nonzero;fill:rgb(99.215686%,28.627451%,62.745098%);fill-opacity:1;stroke-width:0.25;stroke-linecap:butt;stroke-linejoin:miter;stroke:rgb(99.215686%,28.627451%,62.745098%);stroke-opacity:1;stroke-miterlimit:10;" d="M 3.589844 16.400391 C 3.589844 16.400391 3.490234 16.339844 3.519531 16.400391 C 3.552734 16.435547 3.59375 16.462891 3.640625 16.480469 C 3.5 16.369141 3.640625 16.480469 3.589844 16.419922 L 3.660156 16.480469 L 3.599609 16.400391 L 3.460938 16.289062 Z M 3.589844 16.400391 " transform="matrix(2,0,0,2,0,0)"/>
<path style="fill:none;stroke-width:0.25;stroke-linecap:butt;stroke-linejoin:miter;stroke:rgb(99.215686%,28.627451%,62.745098%);stroke-opacity:1;stroke-miterlimit:10;" d="M 4.210938 17 C 4.210938 17 4.189453 17 4.210938 17 Z M 4.210938 17 " transform="matrix(2,0,0,2,0,0)"/>
<path style="fill-rule:nonzero;fill:rgb(99.215686%,28.627451%,62.745098%);fill-opacity:1;stroke-width:0.25;stroke-linecap:butt;stroke-linejoin:miter;stroke:rgb(99.215686%,28.627451%,62.745098%);stroke-opacity:1;stroke-miterlimit:10;" d="M 4.160156 17 C 4.160156 17 4.230469 17.050781 4.160156 17 C 4.160156 16.949219 4.060547 16.880859 4.070312 16.880859 C 4.083984 16.929688 4.115234 16.972656 4.160156 17 Z M 4.160156 17 " transform="matrix(2,0,0,2,0,0)"/>
<path style="fill-rule:nonzero;fill:rgb(99.215686%,28.627451%,62.745098%);fill-opacity:1;stroke-width:0.25;stroke-linecap:butt;stroke-linejoin:miter;stroke:rgb(99.215686%,28.627451%,62.745098%);stroke-opacity:1;stroke-miterlimit:10;" d="M 3.869141 16.689453 L 3.75 16.599609 Z M 3.869141 16.689453 " transform="matrix(2,0,0,2,0,0)"/>
<path style="fill-rule:nonzero;fill:rgb(99.215686%,28.627451%,62.745098%);fill-opacity:1;stroke-width:0.25;stroke-linecap:butt;stroke-linejoin:miter;stroke:rgb(99.215686%,28.627451%,62.745098%);stroke-opacity:1;stroke-miterlimit:10;" d="M 3.289062 16.130859 L 3.320312 16.130859 L 3.240234 16.089844 Z M 3.289062 16.130859 " transform="matrix(2,0,0,2,0,0)"/>
<path style="fill-rule:nonzero;fill:rgb(99.215686%,28.627451%,62.745098%);fill-opacity:1;stroke-width:0.25;stroke-linecap:butt;stroke-linejoin:miter;stroke:rgb(99.215686%,28.627451%,62.745098%);stroke-opacity:1;stroke-miterlimit:10;" d="M 3.150391 16.009766 L 3.160156 16 L 3.119141 15.980469 Z M 3.150391 16.009766 " transform="matrix(2,0,0,2,0,0)"/>
<path style="fill:none;stroke-width:0.25;stroke-linecap:butt;stroke-linejoin:miter;stroke:rgb(99.215686%,28.627451%,62.745098%);stroke-opacity:1;stroke-miterlimit:10;" d="M 3.869141 12.050781 Z M 3.869141 12.050781 " transform="matrix(2,0,0,2,0,0)"/>
<path style="fill-rule:nonzero;fill:rgb(99.215686%,28.627451%,62.745098%);fill-opacity:1;stroke-width:0.25;stroke-linecap:butt;stroke-linejoin:miter;stroke:rgb(99.215686%,28.627451%,62.745098%);stroke-opacity:1;stroke-miterlimit:10;" d="M 4.119141 11.849609 C 4.119141 11.849609 4.109375 11.859375 4.119141 11.849609 Z M 4.119141 11.849609 " transform="matrix(2,0,0,2,0,0)"/>
<path style="fill-rule:nonzero;fill:rgb(99.215686%,28.627451%,62.745098%);fill-opacity:1;stroke-width:0.25;stroke-linecap:butt;stroke-linejoin:miter;stroke:rgb(99.215686%,28.627451%,62.745098%);stroke-opacity:1;stroke-miterlimit:10;" d="M 2.900391 13.150391 C 2.949219 13.150391 3.019531 13.089844 3 13.080078 Z M 2.900391 13.150391 " transform="matrix(2,0,0,2,0,0)"/>
<path style="fill:none;stroke-width:0.25;stroke-linecap:butt;stroke-linejoin:miter;stroke:rgb(99.215686%,28.627451%,62.745098%);stroke-opacity:1;stroke-miterlimit:10;" d="M 5.339844 11.089844 Z M 5.339844 11.089844 " transform="matrix(2,0,0,2,0,0)"/>
<path style="fill:none;stroke-width:0.25;stroke-linecap:butt;stroke-linejoin:miter;stroke:rgb(99.215686%,28.627451%,62.745098%);stroke-opacity:1;stroke-miterlimit:10;" d="M 5.339844 11 L 5.410156 11 Z M 5.339844 11 " transform="matrix(2,0,0,2,0,0)"/>
<path style="fill-rule:nonzero;fill:rgb(99.215686%,28.627451%,62.745098%);fill-opacity:1;stroke-width:0.25;stroke-linecap:butt;stroke-linejoin:miter;stroke:rgb(99.215686%,28.627451%,62.745098%);stroke-opacity:1;stroke-miterlimit:10;" d="M 2.560547 13.119141 C 2.589844 13.109375 2.560547 13.130859 2.560547 13.119141 Z M 2.560547 13.119141 " transform="matrix(2,0,0,2,0,0)"/>
<path style="fill-rule:nonzero;fill:rgb(99.215686%,28.627451%,62.745098%);fill-opacity:1;stroke-width:0.25;stroke-linecap:butt;stroke-linejoin:miter;stroke:rgb(99.215686%,28.627451%,62.745098%);stroke-opacity:1;stroke-miterlimit:10;" d="M 1.679688 14.740234 L 1.580078 14.640625 C 1.580078 14.640625 1.650391 14.740234 1.679688 14.740234 Z M 1.679688 14.740234 " transform="matrix(2,0,0,2,0,0)"/>
<path style="fill:none;stroke-width:0.25;stroke-linecap:butt;stroke-linejoin:miter;stroke:rgb(99.215686%,28.627451%,62.745098%);stroke-opacity:1;stroke-miterlimit:10;" d="M 3.880859 11.849609 Z M 3.880859 11.849609 " transform="matrix(2,0,0,2,0,0)"/>
<path style="fill-rule:nonzero;fill:rgb(99.215686%,28.627451%,62.745098%);fill-opacity:1;stroke-width:0.25;stroke-linecap:butt;stroke-linejoin:miter;stroke:rgb(99.215686%,28.627451%,62.745098%);stroke-opacity:1;stroke-miterlimit:10;" d="M 1.460938 14.539062 L 1.560547 14.619141 C 1.529297 14.589844 1.496094 14.5625 1.460938 14.539062 Z M 1.460938 14.539062 " transform="matrix(2,0,0,2,0,0)"/>
<path style="fill:none;stroke-width:0.25;stroke-linecap:butt;stroke-linejoin:miter;stroke:rgb(99.215686%,28.627451%,62.745098%);stroke-opacity:1;stroke-miterlimit:10;" d="M 3.859375 17 Z M 3.859375 17 " transform="matrix(2,0,0,2,0,0)"/>
<path style="fill:none;stroke-width:0.25;stroke-linecap:butt;stroke-linejoin:miter;stroke:rgb(99.215686%,28.627451%,62.745098%);stroke-opacity:1;stroke-miterlimit:10;" d="M 5.119141 18.230469 L 5.119141 18.179688 Z M 5.119141 18.230469 " transform="matrix(2,0,0,2,0,0)"/>
<path style="fill:none;stroke-width:0.25;stroke-linecap:butt;stroke-linejoin:miter;stroke:rgb(99.215686%,28.627451%,62.745098%);stroke-opacity:1;stroke-miterlimit:10;" d="M 2.580078 15.5 Z M 2.580078 15.5 " transform="matrix(2,0,0,2,0,0)"/>
<path style="fill:none;stroke-width:0.25;stroke-linecap:butt;stroke-linejoin:miter;stroke:rgb(99.215686%,28.627451%,62.745098%);stroke-opacity:1;stroke-miterlimit:10;" d="M 2.689453 15.669922 Z M 2.689453 15.669922 " transform="matrix(2,0,0,2,0,0)"/>
<path style="fill:none;stroke-width:0.25;stroke-linecap:butt;stroke-linejoin:miter;stroke:rgb(99.215686%,28.627451%,62.745098%);stroke-opacity:1;stroke-miterlimit:10;" d="M 1.259766 14.349609 Z M 1.259766 14.349609 " transform="matrix(2,0,0,2,0,0)"/>
<path style="fill:none;stroke-width:0.25;stroke-linecap:butt;stroke-linejoin:miter;stroke:rgb(99.215686%,28.627451%,62.745098%);stroke-opacity:1;stroke-miterlimit:10;" d="M 2.619141 15.550781 Z M 2.619141 15.550781 " transform="matrix(2,0,0,2,0,0)"/>
<path style="fill:none;stroke-width:0.25;stroke-linecap:butt;stroke-linejoin:miter;stroke:rgb(99.215686%,28.627451%,62.745098%);stroke-opacity:1;stroke-miterlimit:10;" d="M 2.619141 15.539062 Z M 2.619141 15.539062 " transform="matrix(2,0,0,2,0,0)"/>
<path style="fill:none;stroke-width:0.25;stroke-linecap:butt;stroke-linejoin:miter;stroke:rgb(99.215686%,28.627451%,62.745098%);stroke-opacity:1;stroke-miterlimit:10;" d="M 2.529297 15.470703 L 2.580078 15.470703 Z M 2.529297 15.470703 " transform="matrix(2,0,0,2,0,0)"/>
<path style="fill-rule:nonzero;fill:rgb(99.215686%,28.627451%,62.745098%);fill-opacity:1;stroke-width:0.25;stroke-linecap:butt;stroke-linejoin:miter;stroke:rgb(99.215686%,28.627451%,62.745098%);stroke-opacity:1;stroke-miterlimit:10;" d="M 1.339844 14.820312 C 1.339844 14.820312 1.369141 14.830078 1.339844 14.820312 Z M 1.339844 14.820312 " transform="matrix(2,0,0,2,0,0)"/>
<path style="fill:none;stroke-width:0.25;stroke-linecap:butt;stroke-linejoin:miter;stroke:rgb(99.215686%,28.627451%,62.745098%);stroke-opacity:1;stroke-miterlimit:10;" d="M 3.619141 12.380859 L 3.630859 12.380859 Z M 3.619141 12.380859 " transform="matrix(2,0,0,2,0,0)"/>
<path style="fill-rule:nonzero;fill:rgb(99.215686%,28.627451%,62.745098%);fill-opacity:1;stroke-width:0.25;stroke-linecap:butt;stroke-linejoin:miter;stroke:rgb(99.215686%,28.627451%,62.745098%);stroke-opacity:1;stroke-miterlimit:10;" d="M 3.730469 12.279297 L 3.630859 12.380859 L 3.689453 12.380859 Z M 3.730469 12.279297 " transform="matrix(2,0,0,2,0,0)"/>
<path style="fill-rule:nonzero;fill:rgb(99.215686%,28.627451%,62.745098%);fill-opacity:1;stroke-width:0.25;stroke-linecap:butt;stroke-linejoin:miter;stroke:rgb(99.215686%,28.627451%,62.745098%);stroke-opacity:1;stroke-miterlimit:10;" d="M 3.289062 12.509766 L 3.380859 12.509766 C 3.300781 12.599609 3.230469 12.650391 3.310547 12.609375 C 3.390625 12.570312 3.619141 12.359375 3.599609 12.320312 L 3.660156 12.320312 C 3.769531 12.25 3.710938 12.230469 3.849609 12.130859 C 3.990234 12.029297 3.929688 12.080078 3.900391 12.130859 L 4 12 L 4.150391 11.869141 L 4.230469 11.779297 L 4.310547 11.699219 C 4.310547 11.699219 4.310547 11.75 4.230469 11.789062 C 4.330078 11.789062 4.289062 11.730469 4.480469 11.609375 L 4.400391 11.679688 C 4.478516 11.638672 4.556641 11.591797 4.630859 11.539062 C 4.630859 11.539062 4.419922 11.650391 4.509766 11.539062 L 4.619141 11.449219 C 4.619141 11.449219 4.619141 11.449219 4.730469 11.369141 C 4.800781 11.310547 4.730469 11.300781 4.820312 11.269531 C 4.910156 11.240234 4.919922 11.210938 4.939453 11.210938 C 4.960938 11.210938 4.849609 11.210938 4.939453 11.140625 C 5.039062 11.066406 5.130859 10.986328 5.220703 10.900391 C 5.300781 10.900391 5.220703 10.900391 5.220703 10.900391 L 5.269531 10.839844 C 5.269531 10.839844 5.269531 10.839844 5.339844 10.75 C 5.410156 10.660156 5.339844 10.75 5.449219 10.669922 C 5.457031 10.703125 5.457031 10.736328 5.449219 10.769531 C 5.449219 10.769531 5.449219 10.769531 5.449219 10.830078 L 5.449219 10.880859 L 5.349609 10.939453 C 5.429688 10.939453 5.349609 10.939453 5.279297 11.060547 L 5.349609 11.060547 L 5.230469 11.169922 L 5.279297 11.169922 C 5.279297 11.169922 5.279297 11.099609 5.279297 11.099609 L 5.109375 11.220703 C 4.998047 11.357422 4.873047 11.484375 4.740234 11.599609 C 4.740234 11.599609 4.880859 11.470703 4.980469 11.400391 C 5.080078 11.330078 4.980469 11.400391 4.980469 11.400391 L 4.810547 11.550781 L 4.720703 11.599609 C 4.779297 11.599609 4.599609 11.720703 4.539062 11.789062 C 4.480469 11.859375 4.539062 11.789062 4.630859 11.689453 C 4.519531 11.75 4.529297 11.820312 4.419922 11.880859 C 4.419922 11.880859 4.25 12.019531 4.269531 11.990234 C 4.115234 12.103516 3.970703 12.230469 3.839844 12.369141 L 3.650391 12.640625 C 3.650391 12.640625 3.529297 12.640625 3.650391 12.519531 L 3.509766 12.640625 C 3.509766 12.640625 3.580078 12.640625 3.509766 12.640625 L 3.320312 12.740234 C 3.320312 12.740234 3.320312 12.740234 3.320312 12.820312 C 3.320312 12.900391 3.320312 12.820312 3.320312 12.820312 L 3.199219 12.960938 L 3 12.890625 L 3.060547 12.890625 C 2.900391 13.009766 2.939453 13.050781 2.789062 13.169922 C 2.789062 13.169922 2.789062 13.099609 2.730469 13.169922 C 2.671875 13.287109 2.595703 13.390625 2.5 13.480469 L 2.410156 13.570312 C 2.488281 13.441406 2.578125 13.320312 2.679688 13.210938 C 2.609375 13.210938 2.679688 13.210938 2.570312 13.279297 C 2.460938 13.349609 2.570312 13.230469 2.630859 13.210938 L 2.429688 13.369141 C 2.429688 13.369141 2.289062 13.5 2.310547 13.509766 L 2.509766 13.320312 C 2.509766 13.320312 2.429688 13.470703 2.279297 13.580078 C 2.130859 13.689453 2.279297 13.580078 2.279297 13.519531 L 2.140625 13.650391 L 2.140625 13.589844 C 2.072266 13.65625 2 13.716797 1.919922 13.769531 C 1.919922 13.769531 1.810547 13.830078 1.810547 13.839844 C 1.810547 13.849609 1.939453 13.839844 1.919922 13.910156 L 1.699219 14 C 1.630859 14 1.75 13.900391 1.699219 13.919922 L 1.699219 13.970703 C 1.699219 13.970703 1.699219 13.970703 1.630859 13.970703 C 1.560547 13.970703 1.480469 14.089844 1.630859 14.019531 C 1.560547 14.080078 1.550781 14.019531 1.460938 14.140625 C 1.369141 14.259766 1.460938 14.240234 1.349609 14.300781 L 1.259766 14.359375 L 1.400391 14.490234 C 1.441406 14.535156 1.488281 14.574219 1.539062 14.609375 C 1.539062 14.609375 1.599609 14.689453 1.539062 14.669922 L 1.630859 14.730469 C 1.689453 14.810547 1.529297 14.650391 1.580078 14.730469 L 1.759766 14.849609 C 1.703125 14.785156 1.634766 14.730469 1.560547 14.689453 C 1.560547 14.689453 1.699219 14.689453 1.849609 14.849609 C 2 15.009766 1.849609 14.849609 1.910156 14.910156 C 2.109375 15.099609 2.119141 15.029297 2.279297 15.199219 C 2.439453 15.369141 2.279297 15.199219 2.279297 15.199219 L 2 15.109375 L 2.070312 15.179688 L 2 15.080078 C 2.050781 15.140625 2.349609 15.380859 2.5 15.529297 L 2.570312 15.529297 L 2.570312 15.480469 C 2.570312 15.480469 2.679688 15.550781 2.570312 15.480469 C 2.658203 15.539062 2.742188 15.605469 2.820312 15.679688 C 2.820312 15.679688 2.820312 15.609375 2.740234 15.589844 C 2.660156 15.570312 2.869141 15.740234 2.929688 15.759766 L 2.869141 15.689453 C 2.960938 15.744141 3.044922 15.806641 3.119141 15.880859 C 3.119141 15.830078 3.119141 15.880859 3.060547 15.789062 C 3 15.699219 2.839844 15.599609 2.910156 15.699219 C 2.910156 15.630859 2.810547 15.599609 2.740234 15.509766 C 2.669922 15.419922 2.740234 15.509766 2.740234 15.509766 L 2.539062 15.369141 L 2.480469 15.369141 C 2.480469 15.369141 2.380859 15.259766 2.480469 15.369141 L 2.390625 15.289062 C 2.337891 15.234375 2.28125 15.183594 2.220703 15.140625 C 2.220703 15.140625 2.099609 15.060547 2.150391 15.080078 L 1.919922 15 C 1.765625 14.878906 1.619141 14.748047 1.480469 14.609375 L 1.400391 14.5 C 1.548828 14.408203 1.689453 14.304688 1.820312 14.189453 C 1.902344 14.128906 1.978516 14.0625 2.050781 13.990234 L 2 13.990234 C 2.070312 13.919922 2.210938 13.839844 2.339844 13.730469 L 2.279297 13.789062 C 2.449219 13.689453 2.580078 13.509766 2.730469 13.419922 L 2.820312 13.349609 L 2.880859 13.349609 L 2.980469 13.269531 L 3 13.269531 C 3.074219 13.269531 3.134766 13.208984 3.134766 13.134766 C 3.134766 13.060547 3.074219 13 3 13 C 3.050781 13 3.099609 12.919922 3.160156 12.900391 C 3.220703 12.880859 3.349609 12.740234 3.359375 12.699219 L 3.490234 12.599609 L 3.570312 12.5 C 3.630859 12.5 3.660156 12.5 3.570312 12.5 L 3.789062 12.289062 C 3.857422 12.255859 3.927734 12.228516 4 12.210938 C 4.109375 12.150391 4.470703 11.839844 4.730469 11.660156 C 4.660156 11.660156 4.849609 11.580078 4.839844 11.550781 C 4.830078 11.519531 4.900391 11.550781 4.839844 11.550781 C 4.931641 11.484375 5.019531 11.410156 5.099609 11.330078 L 5.150391 11.330078 C 5.150391 11.330078 5.269531 11.199219 5.259766 11.169922 C 5.318359 11.146484 5.367188 11.103516 5.400391 11.050781 C 5.400391 11.050781 5.470703 11.050781 5.400391 11.050781 L 5.609375 10.880859 C 5.615234 10.857422 5.615234 10.832031 5.609375 10.810547 C 5.615234 10.777344 5.615234 10.744141 5.609375 10.710938 C 5.611328 10.679688 5.611328 10.650391 5.609375 10.619141 C 5.615234 10.597656 5.615234 10.572266 5.609375 10.550781 L 5.550781 10.550781 L 5.490234 10.599609 C 5.490234 10.650391 5.410156 10.669922 5.330078 10.740234 C 5.140625 10.869141 5.259766 10.810547 5.070312 10.939453 C 5.070312 10.939453 4.900391 11.050781 4.800781 11.140625 C 4.800781 11.199219 4.619141 11.230469 4.560547 11.269531 C 4.5 11.310547 4.560547 11.269531 4.560547 11.269531 C 4.400391 11.369141 4.560547 11.269531 4.449219 11.390625 C 4.339844 11.509766 4.449219 11.390625 4.380859 11.390625 C 4.283203 11.484375 4.179688 11.572266 4.070312 11.650391 C 4.070312 11.650391 4.130859 11.650391 4.070312 11.650391 C 3.964844 11.712891 3.867188 11.785156 3.779297 11.869141 C 3.730469 11.929688 3.589844 12.039062 3.570312 12.080078 C 3.550781 12.119141 3.210938 12.400391 3.179688 12.359375 L 3 12.509766 C 2.927734 12.558594 2.863281 12.621094 2.810547 12.689453 C 2.689453 12.771484 2.580078 12.865234 2.480469 12.970703 C 2.480469 12.970703 2.210938 13.150391 2.050781 13.300781 C 1.869141 13.470703 1.560547 13.630859 1.529297 13.730469 L 1.410156 13.849609 C 1.580078 13.720703 1.410156 13.849609 1.470703 13.849609 C 1.529297 13.849609 1.300781 13.970703 1.369141 13.849609 C 1.369141 13.849609 1.160156 14.009766 1.150391 13.990234 L 1 14.169922 L 0.699219 14.400391 L 0.980469 14.650391 L 1.199219 14.849609 L 1.300781 14.939453 C 1.300781 14.939453 1.300781 14.939453 1.25 14.939453 C 1.285156 14.980469 1.330078 15.011719 1.380859 15.029297 C 1.519531 15.160156 1.310547 15.029297 1.380859 15.029297 L 1.439453 15.029297 C 1.498047 15.054688 1.548828 15.091797 1.589844 15.140625 C 1.640625 15.189453 1.589844 15.140625 1.589844 15.189453 L 1.710938 15.300781 L 1.710938 15.240234 C 1.779297 15.289062 1.830078 15.349609 1.789062 15.240234 C 1.849609 15.339844 2.259766 15.660156 2.300781 15.720703 C 2.394531 15.78125 2.480469 15.851562 2.560547 15.929688 C 2.560547 15.929688 2.560547 15.880859 2.619141 15.929688 C 2.679688 15.980469 2.769531 16.080078 2.810547 16.160156 C 2.810547 16.089844 3.050781 16.359375 2.980469 16.259766 C 3.050781 16.320312 2.980469 16.259766 2.980469 16.330078 C 2.980469 16.400391 3.339844 16.650391 3.550781 16.830078 L 3.640625 16.939453 C 3.689453 16.939453 3.699219 16.939453 3.759766 17.029297 C 3.820312 17.119141 3.759766 17.029297 3.759766 17.029297 C 4.150391 17.400391 4.599609 17.730469 4.980469 18.119141 C 4.980469 18.060547 4.980469 18.119141 4.980469 18.119141 L 5.130859 18.279297 C 5.130859 18.279297 5.320312 18.439453 5.349609 18.439453 L 5.289062 18.439453 C 5.380859 18.439453 5.230469 18.310547 5.289062 18.289062 C 5.349609 18.269531 5.169922 18.080078 5 18 C 4.830078 17.919922 5 18 5 18 C 4.943359 17.96875 4.892578 17.927734 4.849609 17.880859 C 4.640625 17.699219 4.550781 17.619141 4.320312 17.400391 L 4.240234 17.320312 C 4.169922 17.320312 4.380859 17.439453 4.310547 17.419922 C 4.240234 17.400391 4 17.130859 4 17.060547 C 4 16.990234 4 17.060547 3.939453 17.060547 C 3.912109 17.039062 3.890625 17.011719 3.880859 16.980469 C 3.820312 16.910156 3.689453 16.820312 3.669922 16.789062 L 3.740234 16.859375 C 3.519531 16.689453 3.269531 16.449219 3.050781 16.289062 C 2.880859 16.160156 2.929688 16.169922 2.75 16.019531 L 2.609375 15.919922 C 2.660156 15.919922 2.539062 15.830078 2.609375 15.869141 C 2.537109 15.816406 2.460938 15.769531 2.380859 15.730469 C 2.322266 15.708984 2.271484 15.675781 2.230469 15.630859 C 2.310547 15.689453 2.230469 15.570312 2.230469 15.630859 C 2.070312 15.449219 1.939453 15.419922 1.890625 15.320312 C 1.839844 15.220703 2.029297 15.470703 1.980469 15.429688 C 1.929688 15.390625 1.890625 15.429688 1.839844 15.339844 C 1.789062 15.25 1.769531 15.220703 1.619141 15.099609 C 1.560547 15.052734 1.503906 15.003906 1.449219 14.949219 C 1.400391 14.949219 1.369141 14.869141 1.339844 14.880859 L 1.480469 14.990234 C 1.373047 14.931641 1.275391 14.857422 1.189453 14.769531 L 1.269531 14.830078 C 1.269531 14.830078 1.199219 14.769531 1.169922 14.730469 C 1.140625 14.689453 1.330078 14.869141 1.429688 14.919922 C 1.529297 14.970703 1.259766 14.800781 1.320312 14.820312 C 1.380859 14.839844 1.179688 14.689453 1.060547 14.619141 L 0.980469 14.560547 L 1.039062 14.560547 C 0.998047 14.529297 0.957031 14.496094 0.919922 14.460938 L 1 14.460938 L 0.949219 14.460938 L 1.050781 14.460938 L 0.980469 14.460938 L 1 14.460938 L 1.140625 14.369141 C 1.289062 14.25 1.140625 14.369141 1.140625 14.369141 C 1.140625 14.369141 1.210938 14.310547 1.269531 14.25 C 1.449219 14.119141 1.269531 14.189453 1.460938 14.070312 L 1.410156 14 L 1.490234 13.929688 C 1.548828 13.869141 1.617188 13.814453 1.689453 13.769531 C 1.689453 13.769531 1.689453 13.769531 1.759766 13.669922 C 1.830078 13.570312 1.759766 13.669922 1.849609 13.669922 C 1.830078 13.707031 1.798828 13.734375 1.759766 13.75 L 1.939453 13.609375 L 2 13.519531 L 2.099609 13.429688 C 2.089844 13.464844 2.068359 13.498047 2.039062 13.519531 L 2.179688 13.380859 L 2.25 13.380859 C 2.339844 13.320312 2.439453 13.199219 2.560547 13.119141 C 2.673828 13.046875 2.78125 12.962891 2.880859 12.869141 L 2.970703 12.869141 C 3.060547 12.789062 2.859375 12.929688 2.970703 12.789062 C 3.080078 12.650391 2.970703 12.789062 3.070312 12.789062 C 3.138672 12.703125 3.224609 12.626953 3.320312 12.570312 Z M 4.480469 11.560547 C 4.480469 11.560547 4.419922 11.630859 4.390625 11.630859 C 4.414062 11.599609 4.445312 11.576172 4.480469 11.560547 Z M 5.150391 11.210938 C 5.167969 11.185547 5.193359 11.164062 5.220703 11.150391 Z M 2.230469 15.210938 Z M 2.330078 15.310547 L 2.269531 15.259766 Z M 1.599609 15.169922 C 1.599609 15.169922 1.609375 15.179688 1.599609 15.179688 Z M 1.599609 15.169922 " transform="matrix(2,0,0,2,0,0)"/>
<path style="fill:none;stroke-width:0.25;stroke-linecap:butt;stroke-linejoin:miter;stroke:rgb(99.215686%,28.627451%,62.745098%);stroke-opacity:1;stroke-miterlimit:10;" d="M 5.339844 11 C 5.339844 11 5.359375 11 5.339844 11 Z M 5.339844 11 " transform="matrix(2,0,0,2,0,0)"/>
<path style="fill:none;stroke-width:0.25;stroke-linecap:butt;stroke-linejoin:miter;stroke:rgb(99.215686%,28.627451%,62.745098%);stroke-opacity:1;stroke-miterlimit:10;" d="M 2.560547 13.109375 L 2.560547 13.119141 Z M 2.560547 13.109375 " transform="matrix(2,0,0,2,0,0)"/>
<path style="fill:none;stroke-width:0.25;stroke-linecap:butt;stroke-linejoin:miter;stroke:rgb(99.215686%,28.627451%,62.745098%);stroke-opacity:1;stroke-miterlimit:10;" d="M 1.650391 14 Z M 1.650391 14 " transform="matrix(2,0,0,2,0,0)"/>
<path style="fill-rule:nonzero;fill:rgb(99.215686%,28.627451%,62.745098%);fill-opacity:1;stroke-width:0.25;stroke-linecap:butt;stroke-linejoin:miter;stroke:rgb(99.215686%,28.627451%,62.745098%);stroke-opacity:1;stroke-miterlimit:10;" d="M 2.900391 15.769531 L 2.830078 15.769531 C 2.830078 15.769531 2.869141 15.75 2.900391 15.769531 Z M 2.900391 15.769531 " transform="matrix(2,0,0,2,0,0)"/>
<path style="fill-rule:nonzero;fill:rgb(99.215686%,28.627451%,62.745098%);fill-opacity:1;stroke-width:0.25;stroke-linecap:butt;stroke-linejoin:miter;stroke:rgb(99.215686%,28.627451%,62.745098%);stroke-opacity:1;stroke-miterlimit:10;" d="M 3.400391 16.339844 C 3.400391 16.339844 3.359375 16.300781 3.400391 16.339844 Z M 3.400391 16.339844 " transform="matrix(2,0,0,2,0,0)"/>
<path style="fill-rule:nonzero;fill:rgb(99.215686%,28.627451%,62.745098%);fill-opacity:1;stroke-width:0.25;stroke-linecap:butt;stroke-linejoin:miter;stroke:rgb(99.215686%,28.627451%,62.745098%);stroke-opacity:1;stroke-miterlimit:10;" d="M 2.919922 15.859375 C 2.919922 15.859375 2.919922 15.910156 3.009766 15.949219 L 3 15.949219 C 3 15.949219 3 15.900391 2.919922 15.859375 Z M 2.919922 15.859375 " transform="matrix(2,0,0,2,0,0)"/>
<path style="fill:none;stroke-width:0.25;stroke-linecap:butt;stroke-linejoin:miter;stroke:rgb(99.215686%,28.627451%,62.745098%);stroke-opacity:1;stroke-miterlimit:10;" d="M 3 16 Z M 3 16 " transform="matrix(2,0,0,2,0,0)"/>
<path style="fill-rule:nonzero;fill:rgb(99.215686%,28.627451%,62.745098%);fill-opacity:1;stroke-width:0.25;stroke-linecap:butt;stroke-linejoin:miter;stroke:rgb(99.215686%,28.627451%,62.745098%);stroke-opacity:1;stroke-miterlimit:10;" d="M 2.470703 15.429688 C 2.470703 15.429688 2.339844 15.330078 2.470703 15.429688 Z M 2.470703 15.429688 " transform="matrix(2,0,0,2,0,0)"/>
<path style="fill-rule:nonzero;fill:rgb(99.215686%,28.627451%,62.745098%);fill-opacity:1;stroke-width:0.25;stroke-linecap:butt;stroke-linejoin:miter;stroke:rgb(99.215686%,28.627451%,62.745098%);stroke-opacity:1;stroke-miterlimit:10;" d="M 2.929688 15.929688 L 2.929688 15.900391 L 2.890625 15.890625 Z M 2.929688 15.929688 " transform="matrix(2,0,0,2,0,0)"/>
<path style="fill-rule:nonzero;fill:rgb(99.215686%,28.627451%,62.745098%);fill-opacity:1;stroke-width:0.25;stroke-linecap:butt;stroke-linejoin:miter;stroke:rgb(99.215686%,28.627451%,62.745098%);stroke-opacity:1;stroke-miterlimit:10;" d="M 2.570312 15.599609 L 2.650391 15.669922 Z M 2.570312 15.599609 " transform="matrix(2,0,0,2,0,0)"/>
<path style="fill-rule:nonzero;fill:rgb(99.215686%,28.627451%,62.745098%);fill-opacity:1;stroke-width:0.25;stroke-linecap:butt;stroke-linejoin:miter;stroke:rgb(99.215686%,28.627451%,62.745098%);stroke-opacity:1;stroke-miterlimit:10;" d="M 2.669922 15.679688 L 2.730469 15.730469 Z M 2.669922 15.679688 " transform="matrix(2,0,0,2,0,0)"/>
<path style="fill-rule:nonzero;fill:rgb(99.215686%,28.627451%,62.745098%);fill-opacity:1;stroke-width:0.25;stroke-linecap:butt;stroke-linejoin:miter;stroke:rgb(99.215686%,28.627451%,62.745098%);stroke-opacity:1;stroke-miterlimit:10;" d="M 2.830078 15.849609 L 2.810547 15.820312 L 2.759766 15.779297 Z M 2.830078 15.849609 " transform="matrix(2,0,0,2,0,0)"/>
<path style="fill-rule:nonzero;fill:rgb(99.215686%,28.627451%,62.745098%);fill-opacity:1;stroke-width:0.25;stroke-linecap:butt;stroke-linejoin:miter;stroke:rgb(99.215686%,28.627451%,62.745098%);stroke-opacity:1;stroke-miterlimit:10;" d="M 1.779297 14.910156 L 1.699219 14.849609 C 1.699219 14.849609 1.789062 14.929688 1.779297 14.910156 Z M 1.779297 14.910156 " transform="matrix(2,0,0,2,0,0)"/>
<path style="fill:none;stroke-width:0.25;stroke-linecap:butt;stroke-linejoin:miter;stroke:rgb(99.215686%,28.627451%,62.745098%);stroke-opacity:1;stroke-miterlimit:10;" d="M 2 15.160156 Z M 2 15.160156 " transform="matrix(2,0,0,2,0,0)"/>
<path style="fill-rule:nonzero;fill:rgb(99.215686%,28.627451%,62.745098%);fill-opacity:1;stroke-width:0.25;stroke-linecap:butt;stroke-linejoin:miter;stroke:rgb(99.215686%,28.627451%,62.745098%);stroke-opacity:1;stroke-miterlimit:10;" d="M 1.759766 15 C 1.759766 15 1.630859 14.910156 1.759766 15 C 1.890625 15.089844 1.830078 15 1.759766 15 Z M 1.759766 15 " transform="matrix(2,0,0,2,0,0)"/>
<path style="fill-rule:nonzero;fill:rgb(99.215686%,28.627451%,62.745098%);fill-opacity:1;stroke-width:0.25;stroke-linecap:butt;stroke-linejoin:miter;stroke:rgb(99.215686%,28.627451%,62.745098%);stroke-opacity:1;stroke-miterlimit:10;" d="M 1.810547 13.900391 L 1.789062 13.919922 L 1.810547 13.939453 Z M 1.810547 13.900391 " transform="matrix(2,0,0,2,0,0)"/>
<path style="fill-rule:nonzero;fill:rgb(99.215686%,28.627451%,62.745098%);fill-opacity:1;stroke-width:0.25;stroke-linecap:butt;stroke-linejoin:miter;stroke:rgb(99.215686%,28.627451%,62.745098%);stroke-opacity:1;stroke-miterlimit:10;" d="M 2.869141 13 C 2.759766 13.070312 2.869141 13 2.759766 13.089844 C 2.650391 13.179688 2.839844 13.039062 2.820312 13.089844 C 2.800781 13.140625 2.910156 13 2.869141 13 Z M 2.869141 13 " transform="matrix(2,0,0,2,0,0)"/>
<path style="fill:none;stroke-width:0.25;stroke-linecap:butt;stroke-linejoin:miter;stroke:rgb(99.215686%,28.627451%,62.745098%);stroke-opacity:1;stroke-miterlimit:10;" d="M 2.820312 13 Z M 2.820312 13 " transform="matrix(2,0,0,2,0,0)"/>
<path style="fill-rule:nonzero;fill:rgb(99.215686%,28.627451%,62.745098%);fill-opacity:1;stroke-width:0.25;stroke-linecap:butt;stroke-linejoin:miter;stroke:rgb(99.215686%,28.627451%,62.745098%);stroke-opacity:1;stroke-miterlimit:10;" d="M 5.339844 18.439453 L 5.390625 18.490234 L 5.359375 18.449219 Z M 5.339844 18.439453 " transform="matrix(2,0,0,2,0,0)"/>
<path style="fill-rule:nonzero;fill:rgb(99.215686%,28.627451%,62.745098%);fill-opacity:1;stroke-width:0.25;stroke-linecap:butt;stroke-linejoin:miter;stroke:rgb(99.215686%,28.627451%,62.745098%);stroke-opacity:1;stroke-miterlimit:10;" d="M 5.470703 18.519531 L 5.560547 18.519531 C 5.560547 18.519531 5.5 18.519531 5.490234 18.519531 C 5.480469 18.519531 5.470703 18.529297 5.470703 18.519531 Z M 5.470703 18.519531 " transform="matrix(2,0,0,2,0,0)"/>
<path style="fill:none;stroke-width:0.25;stroke-linecap:butt;stroke-linejoin:miter;stroke:rgb(99.215686%,28.627451%,62.745098%);stroke-opacity:1;stroke-miterlimit:10;" d="M 4.679688 11.449219 L 4.619141 11.449219 Z M 4.679688 11.449219 " transform="matrix(2,0,0,2,0,0)"/>
<path style="fill-rule:nonzero;fill:rgb(99.215686%,28.627451%,62.745098%);fill-opacity:1;stroke-width:0.25;stroke-linecap:butt;stroke-linejoin:miter;stroke:rgb(99.215686%,28.627451%,62.745098%);stroke-opacity:1;stroke-miterlimit:10;" d="M 3.810547 12.130859 L 3.820312 12.119141 L 3.779297 12.119141 Z M 3.810547 12.130859 " transform="matrix(2,0,0,2,0,0)"/>
<path style="fill-rule:nonzero;fill:rgb(99.215686%,28.627451%,62.745098%);fill-opacity:1;stroke-width:0.25;stroke-linecap:butt;stroke-linejoin:miter;stroke:rgb(99.215686%,28.627451%,62.745098%);stroke-opacity:1;stroke-miterlimit:10;" d="M 3.099609 12.720703 L 3.189453 12.650391 C 3.130859 12.699219 3.080078 12.710938 3.099609 12.720703 Z M 3.099609 12.720703 " transform="matrix(2,0,0,2,0,0)"/>
<path style="fill-rule:nonzero;fill:rgb(99.215686%,28.627451%,62.745098%);fill-opacity:1;stroke-width:0.25;stroke-linecap:butt;stroke-linejoin:miter;stroke:rgb(99.215686%,28.627451%,62.745098%);stroke-opacity:1;stroke-miterlimit:10;" d="M 26.449219 18.369141 C 26.449219 18.369141 26.400391 18.369141 26.380859 18.279297 C 26.351562 18.216797 26.351562 18.144531 26.380859 18.080078 L 30.779297 14.25 L 26.380859 10.720703 C 26.357422 10.658203 26.357422 10.591797 26.380859 10.529297 C 26.380859 10.449219 26.439453 10.419922 26.480469 10.449219 L 31.199219 14.240234 L 26.480469 18.349609 Z M 26.449219 18.369141 " transform="matrix(2,0,0,2,0,0)"/>
<path style="fill-rule:nonzero;fill:rgb(99.215686%,28.627451%,62.745098%);fill-opacity:1;stroke-width:0.25;stroke-linecap:butt;stroke-linejoin:miter;stroke:rgb(99.215686%,28.627451%,62.745098%);stroke-opacity:1;stroke-miterlimit:10;" d="M 26.529297 18.419922 C 26.507812 18.427734 26.482422 18.427734 26.460938 18.419922 C 26.484375 18.431641 26.515625 18.431641 26.539062 18.419922 Z M 26.529297 18.419922 " transform="matrix(2,0,0,2,0,0)"/>
<path style="fill-rule:nonzero;fill:rgb(99.215686%,28.627451%,62.745098%);fill-opacity:1;stroke-width:0.25;stroke-linecap:butt;stroke-linejoin:miter;stroke:rgb(99.215686%,28.627451%,62.745098%);stroke-opacity:1;stroke-miterlimit:10;" d="M 26.960938 18 L 26.949219 18.009766 L 27.009766 17.939453 Z M 26.960938 18 " transform="matrix(2,0,0,2,0,0)"/>
<path style="fill-rule:nonzero;fill:rgb(99.215686%,28.627451%,62.745098%);fill-opacity:1;stroke-width:0.25;stroke-linecap:butt;stroke-linejoin:miter;stroke:rgb(99.215686%,28.627451%,62.745098%);stroke-opacity:1;stroke-miterlimit:10;" d="M 27.380859 17.630859 C 27.300781 17.693359 27.222656 17.759766 27.150391 17.830078 Z M 27.380859 17.630859 " transform="matrix(2,0,0,2,0,0)"/>
<path style="fill-rule:nonzero;fill:rgb(99.215686%,28.627451%,62.745098%);fill-opacity:1;stroke-width:0.25;stroke-linecap:butt;stroke-linejoin:miter;stroke:rgb(99.215686%,28.627451%,62.745098%);stroke-opacity:1;stroke-miterlimit:10;" d="M 27.640625 17.480469 C 27.640625 17.480469 27.640625 17.429688 27.580078 17.480469 Z M 27.640625 17.480469 " transform="matrix(2,0,0,2,0,0)"/>
<path style="fill:none;stroke-width:0.25;stroke-linecap:butt;stroke-linejoin:miter;stroke:rgb(99.215686%,28.627451%,62.745098%);stroke-opacity:1;stroke-miterlimit:10;" d="M 27.599609 17.509766 Z M 27.599609 17.509766 " transform="matrix(2,0,0,2,0,0)"/>
<path style="fill-rule:nonzero;fill:rgb(99.215686%,28.627451%,62.745098%);fill-opacity:1;stroke-width:0.25;stroke-linecap:butt;stroke-linejoin:miter;stroke:rgb(99.215686%,28.627451%,62.745098%);stroke-opacity:1;stroke-miterlimit:10;" d="M 27.800781 17.330078 L 27.740234 17.390625 C 27.740234 17.390625 27.810547 17.339844 27.800781 17.390625 C 27.789062 17.439453 27.839844 17.310547 27.800781 17.330078 Z M 27.800781 17.330078 " transform="matrix(2,0,0,2,0,0)"/>
<path style="fill-rule:nonzero;fill:rgb(99.215686%,28.627451%,62.745098%);fill-opacity:1;stroke-width:0.25;stroke-linecap:butt;stroke-linejoin:miter;stroke:rgb(99.215686%,28.627451%,62.745098%);stroke-opacity:1;stroke-miterlimit:10;" d="M 27.839844 17.269531 C 27.839844 17.269531 27.830078 17.289062 27.839844 17.269531 Z M 27.839844 17.269531 " transform="matrix(2,0,0,2,0,0)"/>
<path style="fill-rule:nonzero;fill:rgb(99.215686%,28.627451%,62.745098%);fill-opacity:1;stroke-width:0.25;stroke-linecap:butt;stroke-linejoin:miter;stroke:rgb(99.215686%,28.627451%,62.745098%);stroke-opacity:1;stroke-miterlimit:10;" d="M 27.75 17.359375 L 27.810547 17.300781 Z M 27.75 17.359375 " transform="matrix(2,0,0,2,0,0)"/>
<path style="fill-rule:nonzero;fill:rgb(99.215686%,28.627451%,62.745098%);fill-opacity:1;stroke-width:0.25;stroke-linecap:butt;stroke-linejoin:miter;stroke:rgb(99.215686%,28.627451%,62.745098%);stroke-opacity:1;stroke-miterlimit:10;" d="M 27.710938 17.390625 C 27.710938 17.390625 27.630859 17.449219 27.710938 17.390625 C 27.580078 17.490234 27.609375 17.490234 27.710938 17.390625 Z M 27.710938 17.390625 " transform="matrix(2,0,0,2,0,0)"/>
<path style="fill:none;stroke-width:0.25;stroke-linecap:butt;stroke-linejoin:miter;stroke:rgb(99.215686%,28.627451%,62.745098%);stroke-opacity:1;stroke-miterlimit:10;" d="M 27.390625 17.599609 L 27.339844 17.599609 C 27.357422 17.599609 27.373047 17.599609 27.390625 17.599609 Z M 27.390625 17.599609 " transform="matrix(2,0,0,2,0,0)"/>
<path style="fill:none;stroke-width:0.25;stroke-linecap:butt;stroke-linejoin:miter;stroke:rgb(99.215686%,28.627451%,62.745098%);stroke-opacity:1;stroke-miterlimit:10;" d="M 28.169922 17 Z M 28.169922 17 " transform="matrix(2,0,0,2,0,0)"/>
<path style="fill-rule:nonzero;fill:rgb(99.215686%,28.627451%,62.745098%);fill-opacity:1;stroke-width:0.25;stroke-linecap:butt;stroke-linejoin:miter;stroke:rgb(99.215686%,28.627451%,62.745098%);stroke-opacity:1;stroke-miterlimit:10;" d="M 28.130859 17 L 28.189453 16.939453 C 28.130859 17 28.119141 17 28.130859 17 Z M 28.130859 17 " transform="matrix(2,0,0,2,0,0)"/>
<path style="fill-rule:nonzero;fill:rgb(99.215686%,28.627451%,62.745098%);fill-opacity:1;stroke-width:0.25;stroke-linecap:butt;stroke-linejoin:miter;stroke:rgb(99.215686%,28.627451%,62.745098%);stroke-opacity:1;stroke-miterlimit:10;" d="M 27.830078 17.240234 L 27.740234 17.349609 L 27.859375 17.220703 Z M 27.830078 17.240234 " transform="matrix(2,0,0,2,0,0)"/>
<path style="fill-rule:nonzero;fill:rgb(99.215686%,28.627451%,62.745098%);fill-opacity:1;stroke-width:0.25;stroke-linecap:butt;stroke-linejoin:miter;stroke:rgb(99.215686%,28.627451%,62.745098%);stroke-opacity:1;stroke-miterlimit:10;" d="M 28.410156 16.810547 L 28.390625 16.849609 L 28.439453 16.779297 Z M 28.410156 16.810547 " transform="matrix(2,0,0,2,0,0)"/>
<path style="fill-rule:nonzero;fill:rgb(99.215686%,28.627451%,62.745098%);fill-opacity:1;stroke-width:0.25;stroke-linecap:butt;stroke-linejoin:miter;stroke:rgb(99.215686%,28.627451%,62.745098%);stroke-opacity:1;stroke-miterlimit:10;" d="M 28.580078 16.660156 C 28.580078 16.660156 28.630859 16.660156 28.580078 16.660156 L 28.689453 16.550781 Z M 28.580078 16.660156 " transform="matrix(2,0,0,2,0,0)"/>
<path style="fill-rule:nonzero;fill:rgb(99.215686%,28.627451%,62.745098%);fill-opacity:1;stroke-width:0.25;stroke-linecap:butt;stroke-linejoin:miter;stroke:rgb(99.215686%,28.627451%,62.745098%);stroke-opacity:1;stroke-miterlimit:10;" d="M 28.759766 16.5 L 28.710938 16.560547 Z M 28.759766 16.5 " transform="matrix(2,0,0,2,0,0)"/>
<path style="fill:none;stroke-width:0.25;stroke-linecap:butt;stroke-linejoin:miter;stroke:rgb(99.215686%,28.627451%,62.745098%);stroke-opacity:1;stroke-miterlimit:10;" d="M 28.300781 16.869141 C 28.300781 16.869141 28.300781 16.869141 28.359375 16.869141 Z M 28.300781 16.869141 " transform="matrix(2,0,0,2,0,0)"/>
<path style="fill-rule:nonzero;fill:rgb(99.215686%,28.627451%,62.745098%);fill-opacity:1;stroke-width:0.25;stroke-linecap:butt;stroke-linejoin:miter;stroke:rgb(99.215686%,28.627451%,62.745098%);stroke-opacity:1;stroke-miterlimit:10;" d="M 28.330078 16.849609 L 28.380859 16.800781 Z M 28.330078 16.849609 " transform="matrix(2,0,0,2,0,0)"/>
<path style="fill:none;stroke-width:0.25;stroke-linecap:butt;stroke-linejoin:miter;stroke:rgb(99.215686%,28.627451%,62.745098%);stroke-opacity:1;stroke-miterlimit:10;" d="M 28.300781 16.880859 Z M 28.300781 16.880859 " transform="matrix(2,0,0,2,0,0)"/>
<path style="fill-rule:nonzero;fill:rgb(99.215686%,28.627451%,62.745098%);fill-opacity:1;stroke-width:0.25;stroke-linecap:butt;stroke-linejoin:miter;stroke:rgb(99.215686%,28.627451%,62.745098%);stroke-opacity:1;stroke-miterlimit:10;" d="M 28 17.099609 C 28 17.099609 28.109375 16.990234 28 17.050781 C 27.890625 17.109375 28.060547 17 28 17.099609 Z M 28 17.099609 " transform="matrix(2,0,0,2,0,0)"/>
<path style="fill-rule:nonzero;fill:rgb(99.215686%,28.627451%,62.745098%);fill-opacity:1;stroke-width:0.25;stroke-linecap:butt;stroke-linejoin:miter;stroke:rgb(99.215686%,28.627451%,62.745098%);stroke-opacity:1;stroke-miterlimit:10;" d="M 28.25 16.890625 L 28.179688 16.949219 Z M 28.25 16.890625 " transform="matrix(2,0,0,2,0,0)"/>
<path style="fill-rule:nonzero;fill:rgb(99.215686%,28.627451%,62.745098%);fill-opacity:1;stroke-width:0.25;stroke-linecap:butt;stroke-linejoin:miter;stroke:rgb(99.215686%,28.627451%,62.745098%);stroke-opacity:1;stroke-miterlimit:10;" d="M 28.279297 16.859375 L 28.25 16.890625 L 28.279297 16.869141 Z M 28.279297 16.859375 " transform="matrix(2,0,0,2,0,0)"/>
<path style="fill-rule:nonzero;fill:rgb(99.215686%,28.627451%,62.745098%);fill-opacity:1;stroke-width:0.25;stroke-linecap:butt;stroke-linejoin:miter;stroke:rgb(99.215686%,28.627451%,62.745098%);stroke-opacity:1;stroke-miterlimit:10;" d="M 28.630859 16.589844 L 28.720703 16.5 L 28.599609 16.599609 C 28.599609 16.599609 28.589844 16.630859 28.630859 16.589844 Z M 28.630859 16.589844 " transform="matrix(2,0,0,2,0,0)"/>
<path style="fill:none;stroke-width:0.25;stroke-linecap:butt;stroke-linejoin:miter;stroke:rgb(99.215686%,28.627451%,62.745098%);stroke-opacity:1;stroke-miterlimit:10;" d="M 28.480469 16.720703 Z M 28.480469 16.720703 " transform="matrix(2,0,0,2,0,0)"/>
<path style="fill:none;stroke-width:0.25;stroke-linecap:butt;stroke-linejoin:miter;stroke:rgb(99.215686%,28.627451%,62.745098%);stroke-opacity:1;stroke-miterlimit:10;" d="M 29.080078 16.189453 Z M 29.080078 16.189453 " transform="matrix(2,0,0,2,0,0)"/>
<path style="fill-rule:nonzero;fill:rgb(99.215686%,28.627451%,62.745098%);fill-opacity:1;stroke-width:0.25;stroke-linecap:butt;stroke-linejoin:miter;stroke:rgb(99.215686%,28.627451%,62.745098%);stroke-opacity:1;stroke-miterlimit:10;" d="M 28.589844 16.609375 L 28.529297 16.660156 L 28.599609 16.599609 Z M 28.589844 16.609375 " transform="matrix(2,0,0,2,0,0)"/>
<path style="fill-rule:nonzero;fill:rgb(99.215686%,28.627451%,62.745098%);fill-opacity:1;stroke-width:0.25;stroke-linecap:butt;stroke-linejoin:miter;stroke:rgb(99.215686%,28.627451%,62.745098%);stroke-opacity:1;stroke-miterlimit:10;" d="M 28.849609 16.410156 L 28.800781 16.410156 C 28.800781 16.410156 28.849609 16.419922 28.849609 16.410156 Z M 28.849609 16.410156 " transform="matrix(2,0,0,2,0,0)"/>
<path style="fill:none;stroke-width:0.25;stroke-linecap:butt;stroke-linejoin:miter;stroke:rgb(99.215686%,28.627451%,62.745098%);stroke-opacity:1;stroke-miterlimit:10;" d="M 28.5 16.710938 Z M 28.5 16.710938 " transform="matrix(2,0,0,2,0,0)"/>
<path style="fill:none;stroke-width:0.25;stroke-linecap:butt;stroke-linejoin:miter;stroke:rgb(99.215686%,28.627451%,62.745098%);stroke-opacity:1;stroke-miterlimit:10;" d="M 28.5 16.710938 L 28.5 16.660156 Z M 28.5 16.710938 " transform="matrix(2,0,0,2,0,0)"/>
<path style="fill-rule:nonzero;fill:rgb(99.215686%,28.627451%,62.745098%);fill-opacity:1;stroke-width:0.25;stroke-linecap:butt;stroke-linejoin:miter;stroke:rgb(99.215686%,28.627451%,62.745098%);stroke-opacity:1;stroke-miterlimit:10;" d="M 29.130859 16 C 29.130859 16 29.070312 16.099609 28.990234 16.140625 C 28.910156 16.179688 28.990234 16.199219 29.080078 16.140625 C 29.169922 16.080078 29.080078 16.140625 29.130859 16.070312 C 29.179688 16 28.970703 16.179688 29.019531 16.130859 C 29.058594 16.089844 29.101562 16.056641 29.150391 16.029297 C 29.150391 16.029297 29.25 15.919922 29.210938 15.910156 L 29.140625 15.990234 C 29.140625 15.990234 29.160156 16 29.130859 16 Z M 29.130859 16 " transform="matrix(2,0,0,2,0,0)"/>
<path style="fill-rule:nonzero;fill:rgb(99.215686%,28.627451%,62.745098%);fill-opacity:1;stroke-width:0.25;stroke-linecap:butt;stroke-linejoin:miter;stroke:rgb(99.215686%,28.627451%,62.745098%);stroke-opacity:1;stroke-miterlimit:10;" d="M 29 16.300781 C 29.033203 16.271484 29.070312 16.248047 29.109375 16.230469 L 29.109375 16.160156 L 28.970703 16.279297 Z M 29 16.300781 " transform="matrix(2,0,0,2,0,0)"/>
<path style="fill-rule:nonzero;fill:rgb(99.215686%,28.627451%,62.745098%);fill-opacity:1;stroke-width:0.25;stroke-linecap:butt;stroke-linejoin:miter;stroke:rgb(99.215686%,28.627451%,62.745098%);stroke-opacity:1;stroke-miterlimit:10;" d="M 28.789062 16.439453 C 28.789062 16.439453 28.869141 16.339844 28.789062 16.369141 L 28.689453 16.470703 C 28.820312 16.359375 28.689453 16.470703 28.759766 16.470703 L 28.689453 16.529297 L 28.769531 16.480469 L 28.900391 16.359375 Z M 28.789062 16.439453 " transform="matrix(2,0,0,2,0,0)"/>
<path style="fill:none;stroke-width:0.25;stroke-linecap:butt;stroke-linejoin:miter;stroke:rgb(99.215686%,28.627451%,62.745098%);stroke-opacity:1;stroke-miterlimit:10;" d="M 28.080078 17 C 28.080078 17 28.099609 17 28.080078 17 Z M 28.080078 17 " transform="matrix(2,0,0,2,0,0)"/>
<path style="fill-rule:nonzero;fill:rgb(99.215686%,28.627451%,62.745098%);fill-opacity:1;stroke-width:0.25;stroke-linecap:butt;stroke-linejoin:miter;stroke:rgb(99.215686%,28.627451%,62.745098%);stroke-opacity:1;stroke-miterlimit:10;" d="M 28.140625 16.919922 C 28.140625 16.919922 28.080078 16.990234 28.140625 16.919922 L 28.269531 16.839844 Z M 28.140625 16.919922 " transform="matrix(2,0,0,2,0,0)"/>
<path style="fill-rule:nonzero;fill:rgb(99.215686%,28.627451%,62.745098%);fill-opacity:1;stroke-width:0.25;stroke-linecap:butt;stroke-linejoin:miter;stroke:rgb(99.215686%,28.627451%,62.745098%);stroke-opacity:1;stroke-miterlimit:10;" d="M 28.470703 16.669922 L 28.580078 16.570312 L 28.509766 16.570312 C 28.460938 16.669922 28.480469 16.660156 28.470703 16.669922 Z M 28.470703 16.669922 " transform="matrix(2,0,0,2,0,0)"/>
<path style="fill-rule:nonzero;fill:rgb(99.215686%,28.627451%,62.745098%);fill-opacity:1;stroke-width:0.25;stroke-linecap:butt;stroke-linejoin:miter;stroke:rgb(99.215686%,28.627451%,62.745098%);stroke-opacity:1;stroke-miterlimit:10;" d="M 29.099609 16.179688 L 29.099609 16.199219 L 29.150391 16.130859 Z M 29.099609 16.179688 " transform="matrix(2,0,0,2,0,0)"/>
<path style="fill-rule:nonzero;fill:rgb(99.215686%,28.627451%,62.745098%);fill-opacity:1;stroke-width:0.25;stroke-linecap:butt;stroke-linejoin:miter;stroke:rgb(99.215686%,28.627451%,62.745098%);stroke-opacity:1;stroke-miterlimit:10;" d="M 29.240234 16.050781 L 29.25 16.070312 L 29.279297 16.029297 Z M 29.240234 16.050781 " transform="matrix(2,0,0,2,0,0)"/>
<path style="fill:none;stroke-width:0.25;stroke-linecap:butt;stroke-linejoin:miter;stroke:rgb(99.215686%,28.627451%,62.745098%);stroke-opacity:1;stroke-miterlimit:10;" d="M 27.740234 11.679688 Z M 27.740234 11.679688 " transform="matrix(2,0,0,2,0,0)"/>
<path style="fill:none;stroke-width:0.25;stroke-linecap:butt;stroke-linejoin:miter;stroke:rgb(99.215686%,28.627451%,62.745098%);stroke-opacity:1;stroke-miterlimit:10;" d="M 27.5 11.480469 Z M 27.5 11.480469 " transform="matrix(2,0,0,2,0,0)"/>
<path style="fill-rule:nonzero;fill:rgb(99.215686%,28.627451%,62.745098%);fill-opacity:1;stroke-width:0.25;stroke-linecap:butt;stroke-linejoin:miter;stroke:rgb(99.215686%,28.627451%,62.745098%);stroke-opacity:1;stroke-miterlimit:10;" d="M 29.699219 12.929688 C 29.699219 12.929688 29.619141 12.820312 29.609375 12.839844 Z M 29.699219 12.929688 " transform="matrix(2,0,0,2,0,0)"/>
<path style="fill:none;stroke-width:0.25;stroke-linecap:butt;stroke-linejoin:miter;stroke:rgb(99.215686%,28.627451%,62.745098%);stroke-opacity:1;stroke-miterlimit:10;" d="M 27.160156 11 Z M 27.160156 11 " transform="matrix(2,0,0,2,0,0)"/>
<path style="fill-rule:nonzero;fill:rgb(99.215686%,28.627451%,62.745098%);fill-opacity:1;stroke-width:0.25;stroke-linecap:butt;stroke-linejoin:miter;stroke:rgb(99.215686%,28.627451%,62.745098%);stroke-opacity:1;stroke-miterlimit:10;" d="M 27.089844 11 L 27 11 C 27.029297 11.007812 27.060547 11.007812 27.089844 11 Z M 27.089844 11 " transform="matrix(2,0,0,2,0,0)"/>
<path style="fill-rule:nonzero;fill:rgb(99.215686%,28.627451%,62.745098%);fill-opacity:1;stroke-width:0.25;stroke-linecap:butt;stroke-linejoin:miter;stroke:rgb(99.215686%,28.627451%,62.745098%);stroke-opacity:1;stroke-miterlimit:10;" d="M 29.080078 12.730469 C 29.060547 12.699219 29.089844 12.730469 29.080078 12.730469 Z M 29.080078 12.730469 " transform="matrix(2,0,0,2,0,0)"/>
<path style="fill-rule:nonzero;fill:rgb(99.215686%,28.627451%,62.745098%);fill-opacity:1;stroke-width:0.25;stroke-linecap:butt;stroke-linejoin:miter;stroke:rgb(99.215686%,28.627451%,62.745098%);stroke-opacity:1;stroke-miterlimit:10;" d="M 30.710938 14.769531 L 30.810547 14.689453 C 30.810547 14.689453 30.710938 14.75 30.710938 14.769531 Z M 30.710938 14.769531 " transform="matrix(2,0,0,2,0,0)"/>
<path style="fill:none;stroke-width:0.25;stroke-linecap:butt;stroke-linejoin:miter;stroke:rgb(99.215686%,28.627451%,62.745098%);stroke-opacity:1;stroke-miterlimit:10;" d="M 27.550781 11.720703 Z M 27.550781 11.720703 " transform="matrix(2,0,0,2,0,0)"/>
<path style="fill-rule:nonzero;fill:rgb(99.215686%,28.627451%,62.745098%);fill-opacity:1;stroke-width:0.25;stroke-linecap:butt;stroke-linejoin:miter;stroke:rgb(99.215686%,28.627451%,62.745098%);stroke-opacity:1;stroke-miterlimit:10;" d="M 30.929688 14.589844 L 30.830078 14.669922 C 30.865234 14.646484 30.900391 14.621094 30.929688 14.589844 Z M 30.929688 14.589844 " transform="matrix(2,0,0,2,0,0)"/>
<path style="fill:none;stroke-width:0.25;stroke-linecap:butt;stroke-linejoin:miter;stroke:rgb(99.215686%,28.627451%,62.745098%);stroke-opacity:1;stroke-miterlimit:10;" d="M 28 16.839844 Z M 28 16.839844 " transform="matrix(2,0,0,2,0,0)"/>
<path style="fill-rule:nonzero;fill:rgb(99.215686%,28.627451%,62.745098%);fill-opacity:1;stroke-width:0.25;stroke-linecap:butt;stroke-linejoin:miter;stroke:rgb(99.215686%,28.627451%,62.745098%);stroke-opacity:1;stroke-miterlimit:10;" d="M 26.529297 17.910156 L 26.589844 17.859375 Z M 26.529297 17.910156 " transform="matrix(2,0,0,2,0,0)"/>
<path style="fill:none;stroke-width:0.25;stroke-linecap:butt;stroke-linejoin:miter;stroke:rgb(99.215686%,28.627451%,62.745098%);stroke-opacity:1;stroke-miterlimit:10;" d="M 29.820312 15.560547 Z M 29.820312 15.560547 " transform="matrix(2,0,0,2,0,0)"/>
<path style="fill:none;stroke-width:0.25;stroke-linecap:butt;stroke-linejoin:miter;stroke:rgb(99.215686%,28.627451%,62.745098%);stroke-opacity:1;stroke-miterlimit:10;" d="M 29.640625 15.640625 Z M 29.640625 15.640625 " transform="matrix(2,0,0,2,0,0)"/>
<path style="fill:none;stroke-width:0.25;stroke-linecap:butt;stroke-linejoin:miter;stroke:rgb(99.215686%,28.627451%,62.745098%);stroke-opacity:1;stroke-miterlimit:10;" d="M 31.169922 14.259766 Z M 31.169922 14.259766 " transform="matrix(2,0,0,2,0,0)"/>
<path style="fill-rule:nonzero;fill:rgb(99.215686%,28.627451%,62.745098%);fill-opacity:1;stroke-width:0.25;stroke-linecap:butt;stroke-linejoin:miter;stroke:rgb(99.215686%,28.627451%,62.745098%);stroke-opacity:1;stroke-miterlimit:10;" d="M 29.769531 15.589844 C 29.769531 15.589844 29.800781 15.580078 29.769531 15.589844 Z M 29.769531 15.589844 " transform="matrix(2,0,0,2,0,0)"/>
<path style="fill:none;stroke-width:0.25;stroke-linecap:butt;stroke-linejoin:miter;stroke:rgb(99.215686%,28.627451%,62.745098%);stroke-opacity:1;stroke-miterlimit:10;" d="M 29.779297 15.589844 Z M 29.779297 15.589844 " transform="matrix(2,0,0,2,0,0)"/>
<path style="fill-rule:nonzero;fill:rgb(99.215686%,28.627451%,62.745098%);fill-opacity:1;stroke-width:0.25;stroke-linecap:butt;stroke-linejoin:miter;stroke:rgb(99.215686%,28.627451%,62.745098%);stroke-opacity:1;stroke-miterlimit:10;" d="M 29.859375 15.519531 C 29.84375 15.523438 29.826172 15.523438 29.810547 15.519531 Z M 29.859375 15.519531 " transform="matrix(2,0,0,2,0,0)"/>
<path style="fill-rule:nonzero;fill:rgb(99.215686%,28.627451%,62.745098%);fill-opacity:1;stroke-width:0.25;stroke-linecap:butt;stroke-linejoin:miter;stroke:rgb(99.215686%,28.627451%,62.745098%);stroke-opacity:1;stroke-miterlimit:10;" d="M 30.439453 14.640625 C 30.439453 14.640625 30.419922 14.660156 30.439453 14.640625 Z M 30.439453 14.640625 " transform="matrix(2,0,0,2,0,0)"/>
<path style="fill-rule:nonzero;fill:rgb(99.215686%,28.627451%,62.745098%);fill-opacity:1;stroke-width:0.25;stroke-linecap:butt;stroke-linejoin:miter;stroke:rgb(99.215686%,28.627451%,62.745098%);stroke-opacity:1;stroke-miterlimit:10;" d="M 28.789062 12.380859 L 28.800781 12.390625 Z M 28.789062 12.380859 " transform="matrix(2,0,0,2,0,0)"/>
<path style="fill-rule:nonzero;fill:rgb(99.215686%,28.627451%,62.745098%);fill-opacity:1;stroke-width:0.25;stroke-linecap:butt;stroke-linejoin:miter;stroke:rgb(99.215686%,28.627451%,62.745098%);stroke-opacity:1;stroke-miterlimit:10;" d="M 28.669922 12.300781 C 28.714844 12.320312 28.755859 12.345703 28.789062 12.380859 L 28.789062 12.320312 Z M 28.669922 12.300781 " transform="matrix(2,0,0,2,0,0)"/>
<path style="fill-rule:nonzero;fill:rgb(99.215686%,28.627451%,62.745098%);fill-opacity:1;stroke-width:0.25;stroke-linecap:butt;stroke-linejoin:miter;stroke:rgb(99.215686%,28.627451%,62.745098%);stroke-opacity:1;stroke-miterlimit:10;" d="M 28.330078 12.140625 L 28.259766 12.070312 C 28.359375 12.130859 28.429688 12.189453 28.369141 12.070312 C 28.310547 11.949219 28.050781 11.820312 28.019531 11.849609 L 28 11.849609 C 27.910156 11.759766 27.910156 11.849609 27.779297 11.710938 C 27.650391 11.570312 27.710938 11.640625 27.779297 11.660156 L 27.669922 11.589844 L 27.509766 11.460938 L 27.400391 11.400391 L 27.300781 11.339844 C 27.300781 11.339844 27.349609 11.339844 27.410156 11.400391 C 27.359375 11.300781 27.330078 11.349609 27.179688 11.199219 L 27.259766 11.259766 C 27.259766 11.189453 27.160156 11.150391 27.080078 11.070312 C 27 10.990234 27.230469 11.240234 27.130859 11.179688 C 27.101562 11.140625 27.064453 11.109375 27.019531 11.089844 C 27.019531 11.089844 27.019531 11.089844 26.919922 10.990234 C 26.886719 10.964844 26.849609 10.943359 26.810547 10.929688 C 26.767578 10.90625 26.736328 10.867188 26.720703 10.820312 C 26.599609 10.720703 26.789062 10.910156 26.640625 10.820312 C 26.587891 10.767578 26.53125 10.720703 26.470703 10.679688 C 26.464844 10.660156 26.464844 10.640625 26.470703 10.619141 C 26.470703 10.560547 26.470703 10.619141 26.470703 10.619141 C 26.464844 10.599609 26.464844 10.580078 26.470703 10.560547 L 26.529297 10.619141 C 26.578125 10.669922 26.632812 10.712891 26.689453 10.75 L 26.939453 10.900391 L 27 11 C 26.939453 10.929688 27 11 27.130859 11 L 27.080078 10.939453 L 27.210938 11.029297 C 27.210938 11.029297 27.130859 11.029297 27.130859 11.029297 L 27.179688 11.029297 L 27.339844 11.169922 C 27.496094 11.253906 27.646484 11.347656 27.789062 11.449219 C 27.730469 11.449219 27.789062 11.449219 27.740234 11.449219 C 27.664062 11.380859 27.583984 11.318359 27.5 11.259766 C 27.5 11.310547 27.5 11.259766 27.5 11.259766 L 27.679688 11.380859 C 27.679688 11.380859 27.679688 11.380859 27.75 11.460938 C 27.820312 11.539062 27.890625 11.550781 27.970703 11.599609 C 28.050781 11.650391 27.970703 11.599609 27.859375 11.529297 C 27.939453 11.630859 28.009766 11.599609 28.089844 11.689453 L 28.039062 11.689453 C 28.099609 11.689453 28.210938 11.830078 28.179688 11.810547 C 28.320312 11.935547 28.474609 12.046875 28.640625 12.140625 L 28.949219 12.269531 C 28.949219 12.269531 28.949219 12.380859 28.839844 12.269531 C 28.880859 12.3125 28.927734 12.349609 28.980469 12.380859 C 28.980469 12.380859 28.980469 12.310547 28.980469 12.330078 L 29.119141 12.490234 C 29.119141 12.490234 29.119141 12.490234 29.199219 12.490234 C 29.279297 12.490234 29.199219 12.490234 29.199219 12.490234 L 29.359375 12.570312 C 29.412109 12.607422 29.462891 12.646484 29.509766 12.689453 L 29.460938 12.630859 C 29.599609 12.759766 29.640625 12.710938 29.789062 12.839844 C 29.789062 12.839844 29.710938 12.839844 29.789062 12.900391 C 29.914062 12.927734 30.033203 12.978516 30.140625 13.050781 L 30.25 13.119141 C 30.109375 13.066406 29.972656 13.007812 29.839844 12.939453 C 29.865234 12.970703 29.896484 12.998047 29.929688 13.019531 C 29.929688 13.019531 29.880859 13.019531 29.849609 13.019531 L 30.039062 13.179688 C 30.039062 13.179688 30.210938 13.289062 30.210938 13.269531 L 29.980469 13.109375 C 29.980469 13.109375 30.150391 13.109375 30.279297 13.279297 C 30.410156 13.449219 30.279297 13.279297 30.279297 13.279297 C 30.335938 13.306641 30.386719 13.345703 30.429688 13.390625 L 30.369141 13.390625 C 30.439453 13.460938 30.509766 13.470703 30.589844 13.560547 C 30.669922 13.650391 30.669922 13.660156 30.679688 13.650391 C 30.689453 13.640625 30.679688 13.519531 30.730469 13.529297 L 30.910156 13.730469 C 30.910156 13.789062 30.810547 13.730469 30.839844 13.730469 L 30.890625 13.730469 C 30.890625 13.730469 30.890625 13.730469 30.890625 13.789062 C 30.890625 13.849609 31.039062 13.910156 30.939453 13.789062 L 31.099609 13.919922 C 31.099609 13.919922 31.189453 13.919922 31.279297 14 L 30.929688 14.300781 C 30.929688 14.300781 30.839844 14.300781 30.859375 14.300781 L 30.789062 14.380859 C 30.699219 14.429688 30.880859 14.300781 30.789062 14.330078 C 30.744141 14.390625 30.693359 14.447266 30.640625 14.5 C 30.640625 14.5 30.779297 14.380859 30.830078 14.320312 C 30.880859 14.259766 30.769531 14.449219 30.630859 14.589844 C 30.490234 14.730469 30.580078 14.589844 30.560547 14.589844 C 30.349609 14.769531 30.410156 14.779297 30.230469 14.919922 C 30.050781 15.060547 30.230469 14.919922 30.179688 14.919922 C 30.130859 14.919922 30.320312 14.810547 30.380859 14.75 L 30.300781 14.810547 L 30.419922 14.699219 C 30.349609 14.699219 30.070312 15.009766 29.900391 15.130859 C 29.900391 15.130859 29.830078 15.210938 29.900391 15.199219 L 29.949219 15.150391 C 30 15.150391 29.869141 15.25 29.949219 15.199219 C 29.880859 15.277344 29.808594 15.351562 29.730469 15.419922 L 29.820312 15.349609 C 29.820312 15.349609 29.650391 15.449219 29.630859 15.509766 L 29.699219 15.460938 C 29.634766 15.544922 29.560547 15.621094 29.480469 15.689453 C 29.529297 15.689453 29.480469 15.689453 29.580078 15.630859 C 29.679688 15.570312 29.789062 15.449219 29.689453 15.5 C 29.769531 15.5 29.800781 15.410156 29.900391 15.359375 C 30 15.310547 29.900391 15.359375 29.900391 15.310547 L 29.849609 15.310547 L 30.029297 15.130859 L 30.080078 15.070312 C 30.080078 15.070312 30.210938 14.990234 30.080078 15.070312 L 30.169922 15 L 30.349609 14.849609 C 30.349609 14.849609 30.439453 14.75 30.410156 14.789062 L 30.550781 14.660156 C 30.689453 14.521484 30.839844 14.394531 31 14.279297 C 31.052734 14.222656 31.109375 14.167969 31.169922 14.119141 L 31.269531 14.029297 L 31.419922 13.900391 L 31.339844 13.839844 L 31.289062 13.789062 L 31 14 L 30.769531 13.820312 L 30.519531 13.640625 C 30.429688 13.589844 30.320312 13.470703 30.189453 13.369141 C 30.189453 13.369141 30.240234 13.369141 30.259766 13.419922 C 30.130859 13.269531 29.919922 13.179688 29.800781 13.050781 L 29.75 13 L 29.640625 12.919922 L 29.580078 12.919922 C 29.580078 12.869141 29.470703 12.839844 29.449219 12.779297 C 29.429688 12.720703 29.240234 12.630859 29.199219 12.640625 C 29.160156 12.650391 29.199219 12.640625 29.199219 12.640625 L 29.070312 12.539062 L 28.960938 12.480469 C 28.910156 12.480469 28.890625 12.400391 28.960938 12.480469 C 28.800781 12.380859 28.839844 12.390625 28.710938 12.320312 C 28.660156 12.291016 28.613281 12.257812 28.570312 12.220703 C 28.490234 12.119141 28.099609 11.839844 27.869141 11.630859 C 27.869141 11.689453 27.769531 11.519531 27.740234 11.539062 C 27.710938 11.560547 27.740234 11.539062 27.740234 11.539062 C 27.650391 11.464844 27.556641 11.394531 27.460938 11.330078 C 27.460938 11.330078 27.460938 11.330078 27.400391 11.330078 L 27.449219 11.330078 C 27.320312 11.230469 27.289062 11.240234 27.259766 11.259766 C 27.226562 11.208984 27.177734 11.169922 27.119141 11.150391 C 27.119141 11.150391 27.070312 11.089844 27.119141 11.150391 C 27.035156 11.066406 26.941406 10.992188 26.839844 10.929688 L 26.769531 10.869141 L 26.560547 10.710938 C 26.560547 10.710938 26.509766 10.710938 26.480469 10.710938 L 26.419922 10.710938 C 26.392578 10.724609 26.371094 10.75 26.359375 10.779297 L 26.359375 10.890625 C 26.351562 10.916016 26.351562 10.943359 26.359375 10.970703 C 26.359375 10.970703 26.5 11.119141 26.619141 11.189453 C 26.689453 11.189453 26.75 11.359375 26.810547 11.400391 C 26.869141 11.439453 26.810547 11.400391 26.810547 11.400391 C 26.810547 11.400391 26.810547 11.400391 26.949219 11.480469 C 27.089844 11.560547 26.949219 11.480469 26.949219 11.550781 C 27.066406 11.621094 27.175781 11.701172 27.279297 11.789062 C 27.279297 11.789062 27.279297 11.740234 27.279297 11.789062 C 27.365234 11.875 27.458984 11.951172 27.560547 12.019531 C 27.640625 12.078125 27.724609 12.130859 27.810547 12.179688 C 27.810547 12.269531 28.199219 12.460938 28.160156 12.5 L 28.349609 12.640625 C 28.414062 12.701172 28.488281 12.751953 28.570312 12.789062 C 28.669922 12.892578 28.785156 12.980469 28.910156 13.050781 C 29.039062 13.171875 29.175781 13.285156 29.320312 13.390625 C 29.519531 13.529297 29.75 13.800781 29.849609 13.810547 L 29.990234 13.900391 C 29.830078 13.759766 29.990234 13.900391 29.990234 13.830078 C 29.990234 13.759766 30.140625 13.980469 30.060547 13.919922 C 30.009766 13.919922 30.259766 14.089844 30.240234 14.099609 L 30.519531 14.330078 L 30.660156 14.449219 L 30.710938 14.449219 L 30.630859 14.509766 L 30.460938 14.660156 L 30.509766 14.660156 L 30.400391 14.75 C 30.400391 14.75 30.400391 14.75 30.400391 14.699219 C 30.400391 14.650391 30.289062 14.820312 30.289062 14.820312 C 30.289062 14.820312 30.289062 14.75 30.289062 14.820312 L 30.230469 14.869141 C 30.193359 14.921875 30.148438 14.96875 30.099609 15.009766 L 30.039062 15.009766 L 29.910156 15.119141 L 29.970703 15.119141 C 29.919922 15.169922 29.849609 15.220703 29.970703 15.189453 C 29.859375 15.240234 29.480469 15.589844 29.419922 15.630859 C 29.345703 15.710938 29.265625 15.789062 29.179688 15.859375 C 29.179688 15.859375 29.230469 15.859375 29.179688 15.919922 C 29.130859 15.980469 29.009766 16.029297 28.919922 16.070312 C 29 16.070312 28.689453 16.279297 28.800781 16.220703 C 28.730469 16.279297 28.800781 16.220703 28.730469 16.220703 C 28.660156 16.220703 28.359375 16.529297 28.160156 16.710938 L 28.029297 16.779297 C 28.029297 16.779297 28.029297 16.839844 27.929688 16.890625 C 27.830078 16.939453 27.929688 16.890625 27.929688 16.890625 C 27.509766 17.220703 27.119141 17.619141 26.679688 17.890625 C 26.740234 17.890625 26.679688 17.890625 26.679688 17.890625 L 26.5 18.019531 C 26.478516 18.050781 26.462891 18.083984 26.449219 18.119141 C 26.449219 18.189453 26.449219 18.259766 26.449219 18.269531 C 26.447266 18.244141 26.447266 18.216797 26.449219 18.189453 C 26.449219 18.240234 26.449219 18.189453 26.5 18.189453 C 26.494141 18.169922 26.494141 18.150391 26.5 18.130859 C 26.5 18.130859 26.5 18.130859 26.560547 18.070312 C 26.585938 18.041016 26.617188 18.017578 26.650391 18 C 26.720703 17.951172 26.783203 17.894531 26.839844 17.830078 C 26.839844 17.830078 26.900391 17.759766 26.980469 17.699219 C 27.189453 17.509766 27.289062 17.439453 27.529297 17.240234 L 27.630859 17.169922 C 27.630859 17.099609 27.480469 17.289062 27.519531 17.230469 C 27.560547 17.169922 27.880859 16.919922 27.949219 16.900391 C 28.019531 16.880859 27.949219 16.900391 27.949219 16.839844 C 27.976562 16.818359 28.007812 16.800781 28.039062 16.789062 L 28.039062 16.839844 C 28.109375 16.789062 28.220703 16.669922 28.25 16.650391 L 28.169922 16.710938 C 28.369141 16.519531 28.640625 16.300781 28.839844 16.109375 C 28.931641 16.017578 29.029297 15.931641 29.130859 15.849609 C 29.164062 15.804688 29.205078 15.765625 29.25 15.730469 C 29.25 15.730469 29.339844 15.669922 29.25 15.730469 C 29.318359 15.669922 29.375 15.599609 29.419922 15.519531 C 29.451172 15.472656 29.488281 15.429688 29.529297 15.390625 C 29.470703 15.460938 29.599609 15.390625 29.529297 15.390625 C 29.730469 15.25 29.779297 15.140625 29.890625 15.089844 C 30 15.039062 29.720703 15.210938 29.759766 15.169922 C 29.800781 15.130859 29.759766 15.089844 29.869141 15.039062 C 29.966797 14.990234 30.056641 14.929688 30.140625 14.859375 C 30.199219 14.859375 30.240234 14.759766 30.310547 14.710938 C 30.380859 14.660156 30.400391 14.640625 30.390625 14.609375 L 30.259766 14.730469 C 30.335938 14.636719 30.423828 14.552734 30.519531 14.480469 L 30.460938 14.550781 C 30.494141 14.517578 30.53125 14.488281 30.570312 14.460938 C 30.570312 14.460938 30.410156 14.599609 30.339844 14.689453 C 30.269531 14.779297 30.480469 14.539062 30.460938 14.599609 C 30.439453 14.660156 30.609375 14.480469 30.689453 14.369141 L 30.759766 14.289062 L 30.759766 14.349609 L 30.910156 14.230469 C 30.880859 14.197266 30.847656 14.171875 30.810547 14.150391 C 30.847656 14.171875 30.880859 14.199219 30.910156 14.230469 C 30.849609 14.279297 30.839844 14.230469 30.839844 14.230469 C 30.839844 14.230469 30.839844 14.230469 30.789062 14.230469 L 30.859375 14.169922 L 30.75 14.080078 C 30.699219 14.023438 30.642578 13.972656 30.580078 13.929688 C 30.580078 13.929688 30.689453 14.029297 30.640625 14 L 30.519531 13.880859 C 30.369141 13.759766 30.519531 13.880859 30.470703 13.880859 C 30.419922 13.880859 30.390625 13.820312 30.320312 13.769531 C 30.150391 13.630859 30.25 13.769531 30.099609 13.630859 L 30.179688 13.630859 L 30.099609 13.570312 C 30.021484 13.527344 29.951172 13.474609 29.890625 13.410156 C 29.890625 13.410156 29.890625 13.410156 29.779297 13.410156 C 29.669922 13.410156 29.779297 13.410156 29.710938 13.330078 C 29.751953 13.34375 29.789062 13.369141 29.820312 13.400391 C 29.765625 13.34375 29.705078 13.292969 29.640625 13.25 L 29.470703 13.140625 L 29.359375 13.060547 C 29.359375 13.060547 29.359375 13.060547 29.460938 13.060547 L 29.439453 13 C 29.439453 13 29.369141 12.929688 29.390625 12.939453 C 29.410156 12.949219 29.179688 12.800781 29.070312 12.699219 C 28.96875 12.609375 28.861328 12.525391 28.75 12.449219 L 28.689453 12.369141 C 28.599609 12.300781 28.769531 12.470703 28.609375 12.369141 C 28.449219 12.269531 28.609375 12.369141 28.539062 12.279297 C 28.439453 12.234375 28.347656 12.169922 28.269531 12.089844 Z M 27.140625 11.199219 C 27.169922 11.214844 27.197266 11.234375 27.220703 11.259766 C 27.220703 11.259766 27.169922 11.230469 27.140625 11.199219 Z M 27.310547 11.199219 L 27.240234 11.140625 C 27.263672 11.142578 27.289062 11.148438 27.310547 11.160156 Z M 30.150391 15.300781 Z M 30.039062 15.380859 L 30.089844 15.380859 Z M 30.039062 14.880859 C 30 14.869141 30 14.859375 30 14.839844 Z M 30.039062 14.880859 " transform="matrix(2,0,0,2,0,0)"/>
<path style="fill:none;stroke-width:0.25;stroke-linecap:butt;stroke-linejoin:miter;stroke:rgb(99.215686%,28.627451%,62.745098%);stroke-opacity:1;stroke-miterlimit:10;" d="M 27.089844 11 C 27.089844 11 27.080078 11 27.089844 11 Z M 27.089844 11 " transform="matrix(2,0,0,2,0,0)"/>
<path style="fill:none;stroke-width:0.25;stroke-linecap:butt;stroke-linejoin:miter;stroke:rgb(99.215686%,28.627451%,62.745098%);stroke-opacity:1;stroke-miterlimit:10;" d="M 29.070312 12.730469 L 29.080078 12.730469 Z M 29.070312 12.730469 " transform="matrix(2,0,0,2,0,0)"/>
<path style="fill:none;stroke-width:0.25;stroke-linecap:butt;stroke-linejoin:miter;stroke:rgb(99.215686%,28.627451%,62.745098%);stroke-opacity:1;stroke-miterlimit:10;" d="M 30.769531 14 Z M 30.769531 14 " transform="matrix(2,0,0,2,0,0)"/>
<path style="fill-rule:nonzero;fill:rgb(99.215686%,28.627451%,62.745098%);fill-opacity:1;stroke-width:0.25;stroke-linecap:butt;stroke-linejoin:miter;stroke:rgb(99.215686%,28.627451%,62.745098%);stroke-opacity:1;stroke-miterlimit:10;" d="M 29.509766 15.839844 L 29.580078 15.779297 C 29.556641 15.785156 29.533203 15.785156 29.509766 15.779297 C 29.509766 15.779297 29.529297 15.820312 29.509766 15.839844 Z M 29.509766 15.839844 " transform="matrix(2,0,0,2,0,0)"/>
<path style="fill-rule:nonzero;fill:rgb(99.215686%,28.627451%,62.745098%);fill-opacity:1;stroke-width:0.25;stroke-linecap:butt;stroke-linejoin:miter;stroke:rgb(99.215686%,28.627451%,62.745098%);stroke-opacity:1;stroke-miterlimit:10;" d="M 28.880859 16.259766 C 28.880859 16.259766 28.919922 16.230469 28.880859 16.259766 Z M 28.880859 16.259766 " transform="matrix(2,0,0,2,0,0)"/>
<path style="fill-rule:nonzero;fill:rgb(99.215686%,28.627451%,62.745098%);fill-opacity:1;stroke-width:0.25;stroke-linecap:butt;stroke-linejoin:miter;stroke:rgb(99.215686%,28.627451%,62.745098%);stroke-opacity:1;stroke-miterlimit:10;" d="M 29.419922 15.849609 C 29.419922 15.849609 29.369141 15.849609 29.320312 15.929688 C 29.320312 15.929688 29.369141 15.900391 29.419922 15.849609 Z M 29.419922 15.849609 " transform="matrix(2,0,0,2,0,0)"/>
<path style="fill:none;stroke-width:0.25;stroke-linecap:butt;stroke-linejoin:miter;stroke:rgb(99.215686%,28.627451%,62.745098%);stroke-opacity:1;stroke-miterlimit:10;" d="M 29.310547 15.939453 Z M 29.310547 15.939453 " transform="matrix(2,0,0,2,0,0)"/>
<path style="fill-rule:nonzero;fill:rgb(99.215686%,28.627451%,62.745098%);fill-opacity:1;stroke-width:0.25;stroke-linecap:butt;stroke-linejoin:miter;stroke:rgb(99.215686%,28.627451%,62.745098%);stroke-opacity:1;stroke-miterlimit:10;" d="M 29.919922 15.460938 C 29.919922 15.460938 30 15.349609 29.919922 15.460938 Z M 29.919922 15.460938 " transform="matrix(2,0,0,2,0,0)"/>
<path style="fill-rule:nonzero;fill:rgb(99.215686%,28.627451%,62.745098%);fill-opacity:1;stroke-width:0.25;stroke-linecap:butt;stroke-linejoin:miter;stroke:rgb(99.215686%,28.627451%,62.745098%);stroke-opacity:1;stroke-miterlimit:10;" d="M 29.349609 15.849609 L 29.380859 15.849609 L 29.400391 15.820312 Z M 29.349609 15.849609 " transform="matrix(2,0,0,2,0,0)"/>
<path style="fill-rule:nonzero;fill:rgb(99.215686%,28.627451%,62.745098%);fill-opacity:1;stroke-width:0.25;stroke-linecap:butt;stroke-linejoin:miter;stroke:rgb(99.215686%,28.627451%,62.745098%);stroke-opacity:1;stroke-miterlimit:10;" d="M 29.720703 15.539062 L 29.650391 15.599609 C 29.679688 15.589844 29.730469 15.539062 29.720703 15.539062 Z M 29.720703 15.539062 " transform="matrix(2,0,0,2,0,0)"/>
<path style="fill-rule:nonzero;fill:rgb(99.215686%,28.627451%,62.745098%);fill-opacity:1;stroke-width:0.25;stroke-linecap:butt;stroke-linejoin:miter;stroke:rgb(99.215686%,28.627451%,62.745098%);stroke-opacity:1;stroke-miterlimit:10;" d="M 29.630859 15.619141 C 29.615234 15.644531 29.595703 15.666016 29.570312 15.679688 Z M 29.630859 15.619141 " transform="matrix(2,0,0,2,0,0)"/>
<path style="fill-rule:nonzero;fill:rgb(99.215686%,28.627451%,62.745098%);fill-opacity:1;stroke-width:0.25;stroke-linecap:butt;stroke-linejoin:miter;stroke:rgb(99.215686%,28.627451%,62.745098%);stroke-opacity:1;stroke-miterlimit:10;" d="M 29.449219 15.759766 L 29.470703 15.740234 L 29.529297 15.699219 Z M 29.449219 15.759766 " transform="matrix(2,0,0,2,0,0)"/>
<path style="fill-rule:nonzero;fill:rgb(99.215686%,28.627451%,62.745098%);fill-opacity:1;stroke-width:0.25;stroke-linecap:butt;stroke-linejoin:miter;stroke:rgb(99.215686%,28.627451%,62.745098%);stroke-opacity:1;stroke-miterlimit:10;" d="M 30.519531 14.849609 L 30.599609 14.779297 L 30.550781 14.779297 C 30.550781 14.779297 30.5 14.859375 30.519531 14.849609 Z M 30.519531 14.849609 " transform="matrix(2,0,0,2,0,0)"/>
<path style="fill:none;stroke-width:0.25;stroke-linecap:butt;stroke-linejoin:miter;stroke:rgb(99.215686%,28.627451%,62.745098%);stroke-opacity:1;stroke-miterlimit:10;" d="M 30.25 15 Z M 30.25 15 " transform="matrix(2,0,0,2,0,0)"/>
<path style="fill-rule:nonzero;fill:rgb(99.215686%,28.627451%,62.745098%);fill-opacity:1;stroke-width:0.25;stroke-linecap:butt;stroke-linejoin:miter;stroke:rgb(99.215686%,28.627451%,62.745098%);stroke-opacity:1;stroke-miterlimit:10;" d="M 30.480469 14.830078 C 30.480469 14.830078 30.580078 14.710938 30.480469 14.830078 C 30.380859 14.949219 30.400391 14.890625 30.480469 14.830078 Z M 30.480469 14.830078 " transform="matrix(2,0,0,2,0,0)"/>
<path style="fill-rule:nonzero;fill:rgb(99.215686%,28.627451%,62.745098%);fill-opacity:1;stroke-width:0.25;stroke-linecap:butt;stroke-linejoin:miter;stroke:rgb(99.215686%,28.627451%,62.745098%);stroke-opacity:1;stroke-miterlimit:10;" d="M 30.669922 13.820312 L 30.689453 13.839844 L 30.710938 13.810547 Z M 30.669922 13.820312 " transform="matrix(2,0,0,2,0,0)"/>
<path style="fill-rule:nonzero;fill:rgb(99.215686%,28.627451%,62.745098%);fill-opacity:1;stroke-width:0.25;stroke-linecap:butt;stroke-linejoin:miter;stroke:rgb(99.215686%,28.627451%,62.745098%);stroke-opacity:1;stroke-miterlimit:10;" d="M 29.519531 13 C 29.609375 13.080078 29.519531 13 29.640625 13.080078 C 29.759766 13.160156 29.570312 13.019531 29.640625 13.029297 C 29.710938 13.039062 29.509766 13 29.519531 13 Z M 29.519531 13 " transform="matrix(2,0,0,2,0,0)"/>
<path style="fill:none;stroke-width:0.25;stroke-linecap:butt;stroke-linejoin:miter;stroke:rgb(99.215686%,28.627451%,62.745098%);stroke-opacity:1;stroke-miterlimit:10;" d="M 29.599609 13 Z M 29.599609 13 " transform="matrix(2,0,0,2,0,0)"/>
<path style="fill-rule:nonzero;fill:rgb(99.215686%,28.627451%,62.745098%);fill-opacity:1;stroke-width:0.25;stroke-linecap:butt;stroke-linejoin:miter;stroke:rgb(99.215686%,28.627451%,62.745098%);stroke-opacity:1;stroke-miterlimit:10;" d="M 26.300781 18.160156 C 26.300781 18.160156 26.300781 18.230469 26.300781 18.269531 C 26.304688 18.246094 26.304688 18.222656 26.300781 18.199219 Z M 26.300781 18.160156 " transform="matrix(2,0,0,2,0,0)"/>
<path style="fill-rule:nonzero;fill:rgb(99.215686%,28.627451%,62.745098%);fill-opacity:1;stroke-width:0.25;stroke-linecap:butt;stroke-linejoin:miter;stroke:rgb(99.215686%,28.627451%,62.745098%);stroke-opacity:1;stroke-miterlimit:10;" d="M 26.349609 18.349609 C 26.380859 18.365234 26.417969 18.365234 26.449219 18.349609 C 26.449219 18.349609 26.400391 18.349609 26.380859 18.349609 C 26.371094 18.353516 26.359375 18.353516 26.349609 18.349609 Z M 26.349609 18.349609 " transform="matrix(2,0,0,2,0,0)"/>
<path style="fill-rule:nonzero;fill:rgb(99.215686%,28.627451%,62.745098%);fill-opacity:1;stroke-width:0.25;stroke-linecap:butt;stroke-linejoin:miter;stroke:rgb(99.215686%,28.627451%,62.745098%);stroke-opacity:1;stroke-miterlimit:10;" d="M 27 11 C 27.011719 11.021484 27.029297 11.039062 27.050781 11.050781 Z M 27 11 " transform="matrix(2,0,0,2,0,0)"/>
<path style="fill-rule:nonzero;fill:rgb(99.215686%,28.627451%,62.745098%);fill-opacity:1;stroke-width:0.25;stroke-linecap:butt;stroke-linejoin:miter;stroke:rgb(99.215686%,28.627451%,62.745098%);stroke-opacity:1;stroke-miterlimit:10;" d="M 27.839844 11.730469 L 27.820312 11.710938 L 27.839844 11.75 Z M 27.839844 11.730469 " transform="matrix(2,0,0,2,0,0)"/>
<path style="fill-rule:nonzero;fill:rgb(99.215686%,28.627451%,62.745098%);fill-opacity:1;stroke-width:0.25;stroke-linecap:butt;stroke-linejoin:miter;stroke:rgb(99.215686%,28.627451%,62.745098%);stroke-opacity:1;stroke-miterlimit:10;" d="M 28.570312 12.289062 L 28.480469 12.210938 C 28.539062 12.259766 28.570312 12.310547 28.570312 12.289062 Z M 28.570312 12.289062 " transform="matrix(2,0,0,2,0,0)"/>
</g>
</svg>
