<svg xmlns="http://www.w3.org/2000/svg" viewBox="0 0 500 500"><defs><style>.cls-1{fill:#fd49a0;}.cls-2{fill:#fd5eab;}.cls-3{fill:#fff;}</style></defs><g id="Capa_3" data-name="Capa 3"><ellipse class="cls-1" cx="250.1" cy="251.55" rx="234.8" ry="181.33"/><path class="cls-2" d="M492.15,249.94c0,2,1.19,1.3,1.42,1.61C493.19,248.11,491.82,250,492.15,249.94Z"/><path class="cls-2" d="M485.22,217.3l.64.45c-.8-1.48-1.51-3-2.36-4.41C484.14,214.63,484.64,216,485.22,217.3Z"/><path class="cls-2" d="M475.12,188.25c-.39,1.79.8,4.28,2.28,7,.38.67.74,1.39,1.07,2.12s.68,1.45,1,2.18a23.92,23.92,0,0,1,1.47,4.25l-.15,1c.81.59,1.57,1.21,2.36,1.83-.28-.79-.54-1.62-.9-2.44l-1.11-2.48-2.27-5A60.41,60.41,0,0,1,475.12,188.25Z"/><path class="cls-2" d="M471.41,171.42c-.2,1.32-2.46-2.77,1.75,3.52-.11-.38-.12-.5-.17-.72C472.63,173.64,472.16,172.83,471.41,171.42Z"/><path class="cls-2" d="M473,174.22c1.73,2.84-.49-2.23,0,0Z"/><path class="cls-2" d="M464.45,161.5l3,3.22c-.09-1-2.16-4.35-1.06-3.34-1.41-1.78-2.11-2.37-2.35-2.21S464.09,160.2,464.45,161.5Z"/><path class="cls-2" d="M460.79,159.05l1.59,1.62C462.32,160.23,462,159.71,460.79,159.05Z"/><path class="cls-2" d="M465.58,164.25c-1.07-1.2-2.12-2.41-3.2-3.58.09.7-.46,1.16,1.42,1.67C463.06,162.38,464.08,162.81,465.58,164.25Z"/><path class="cls-2" d="M466.8,166.68c1,2.27,2.34,5.08-.59,1.83l.84,1.15.7,1a18,18,0,0,0,1.11,1.42c.62.7,1,.91,1.06.69a3.84,3.84,0,0,0-.6-1.95c-.25-.52-.57-1.14-1-1.85S467.4,167.53,466.8,166.68Z"/><path class="cls-2" d="M472.46,187.78c.29,1,.48,2.1.72,3.14l1.75,2.21C474.05,192,473,187.29,472.46,187.78Z"/><path class="cls-2" d="M448.3,139.67c-.51.11.1,1.9-.11,2.53l2.55,2C449.86,142.79,448,140.29,448.3,139.67Z"/><path class="cls-2" d="M448.19,142.2l-3.8-3C447.2,142.41,448,142.74,448.19,142.2Z"/><path class="cls-2" d="M458.41,159.84c1,.88,2,1.73,2.95,2.65l2.84,2.78-3.26-3.39-3.44-3.22Z"/><polygon class="cls-2" points="435.28 126.72 438.03 127.76 433.34 125.71 435.28 126.72"/><path class="cls-2" d="M425.93,119c2.11.6-1.23-2.89.77-2a28,28,0,0,0-4-2.45c-1.34-.63-2.64-1.14-3.86-1.62a22.7,22.7,0,0,1,3.55,2.38A35.52,35.52,0,0,1,425.93,119Z"/><path class="cls-2" d="M414.86,111.21c1.2.62,2.54,1.14,4,1.72A21.25,21.25,0,0,0,414.86,111.21Z"/><path class="cls-2" d="M438.82,133.34c-.07-.46-.07-1.48-1.79-3.57.17.74.32,1.5.47,2.24Z"/><path class="cls-2" d="M437.52,132.09l0-.08c-1.41-1.47-2.48-2.37-2.91-2.8C435,129.58,435.91,130.36,437.52,132.09Z"/><path class="cls-2" d="M439.16,133.67l-.34-.33C438.86,133.55,438.91,133.66,439.16,133.67Z"/><path class="cls-2" d="M451.69,149.39a40.17,40.17,0,0,0-3.85-2.78c-1.06-.51-1.38-.27,0,2.19C449.77,149.74,448.2,146.88,451.69,149.39Z"/><path class="cls-2" d="M439.68,136.44c1.11,1.26,2.29,2.43,3.32,3.76.18-.31-.08-1.32,1.11-.55C442.7,138.5,441.16,137.49,439.68,136.44Z"/><polygon class="cls-2" points="437.65 135.01 439.68 136.44 438.43 135.06 437.65 135.01"/><path class="cls-2" d="M421.11,117.32a36.7,36.7,0,0,1-6.24-3.75q1.63,1.43,3.34,2.81c1.13.91,2.28,1.79,3.36,2.7C422.13,119,423.55,119.23,421.11,117.32Z"/><path class="cls-2" d="M429.2,124.37l-.41-.27C429,124.38,429.1,124.57,429.2,124.37Z"/><path class="cls-2" d="M392.71,99.28l.25.41.2-.15Z"/><path class="cls-2" d="M421.8,119.57a10,10,0,0,0,3.93,2.58c-1.34-.91-2.72-1.93-4.16-3.07C421.32,119.11,421.22,119.18,421.8,119.57Z"/><path class="cls-2" d="M408.41,107.5c.79.85,1.73,1.75,2.73,2.67C410.45,109.22,408.93,107.44,408.41,107.5Z"/><path class="cls-2" d="M428.46,123.36l.29.16C428.37,122.87,428.35,123,428.46,123.36Z"/><path class="cls-2" d="M428.46,123.36a20,20,0,0,0-2.73-1.21c1.08.76,2.13,1.41,3.06,1.95A4.23,4.23,0,0,1,428.46,123.36Z"/><path class="cls-2" d="M381.87,102.72c.85-.86,6.28.77,9.76,4.26,4.44,1.68,3.91-3.3,1.33-7.29-.38.38-.63.78-5.28-1,.6.7,2.81,2.34,4.33,3.68s2.31,2.45.29,1.84c-5.93-2.61-4.42-2.92-6.87-5,.82,1.29-1.24.77-3.46.28s-4.68-.82-4.55.46c1.77.61,3.59,1.15,5.33,1.85C382.68,102.19,380.66,101.7,381.87,102.72Z"/><path class="cls-2" d="M401,104.64l1.82.93a32.34,32.34,0,0,1-5.21-5c-3.2-1.29-4.05-1.22-4.45-1,2.88,1.7,5.68,3.55,8.52,5.31Z"/><path class="cls-2" d="M410.44,110.65c-2.06.17-6.39-2.07-4.7.75,4.95,3.22,4.08,1.37,7.27,3-8-5.29,2.72.94-2.59-3.61a36.36,36.36,0,0,1,4.45,2.76c-1.32-1.16-2.53-2.35-3.73-3.4l.13.19.05,0s0,0,0,0c.25.37.31.52,0,.18a.6.6,0,0,1-.18-.09,1.26,1.26,0,0,1-.64.16c-2.18-1.78-.18-.52.64-.16.06,0,.16,0,.21-.09l0,0c-2.82-1.6-5.63-3.22-8.45-4.79A91.18,91.18,0,0,0,410.44,110.65Z"/><path class="cls-2" d="M442.38,146.89c-.12-.3,0-.35,0-.43C441.86,146.12,441.63,146,442.38,146.89Z"/><path class="cls-2" d="M440.32,143.5a6.9,6.9,0,0,1,2.78,2.19c1,1.69-.46.41-.71.77,1.16.75,3.89,2.86,1.48-.69l-.58-.37a43.29,43.29,0,0,1-3-5c-.82-1.48-1.27-2.55-1-2.38a12,12,0,0,0,.16,2.37A25.76,25.76,0,0,0,440.32,143.5Z"/><path class="cls-2" d="M425.92,126.44l-6.58-4.51,2.43,3.41.27-.65C425.37,127.73,425.15,126.49,425.92,126.44Z"/><polygon class="cls-2" points="392.22 98.28 393.83 97.61 388.8 97.04 392.22 98.28"/><polygon class="cls-2" points="382.9 93.46 383.79 92.57 380.98 91.98 382.9 93.46"/><path class="cls-2" d="M60.93,348.43l1.75,1.4A14.84,14.84,0,0,0,60.93,348.43Z"/><path class="cls-2" d="M51.05,335.87l-.71,0C51,336.3,51.42,336.4,51.05,335.87Z"/><path class="cls-2" d="M134.37,85.62c-3.58.37-7.85.39-6.91,1.43l1.51.76A20.69,20.69,0,0,1,134.37,85.62Z"/><path class="cls-2" d="M21.62,210.86l.66-.82-.54-2.54C21.7,208.51,21.66,209.65,21.62,210.86Z"/><path class="cls-2" d="M26.13,214.57c-.33.64-.68,1.28-1,1.93l-.89,2C24.74,217.61,25.29,216.33,26.13,214.57Z"/><path class="cls-2" d="M131.94,398.92l2.92-.15C131.16,397.13,132.51,398.45,131.94,398.92Z"/><path class="cls-2" d="M280.59,64.63a41.73,41.73,0,0,0-7.29-1.45C276.81,64.16,279.55,65.64,280.59,64.63Z"/><path class="cls-2" d="M46.2,352.32c1.12,1,1.72,1.28,1.91,1.06C47,352.38,46.25,351.88,46.2,352.32Z"/><path class="cls-2" d="M264.75,62.68c.52.16,1,.26,1.55.4a50.47,50.47,0,0,1,7,.1A17,17,0,0,0,264.75,62.68Z"/><path class="cls-2" d="M430.92,356.83c.21-.12.43-.3.63-.39C431.47,356.26,431.24,356.48,430.92,356.83Z"/><path class="cls-2" d="M487.75,280.42c-.14,1-.5,2.54-.82,4A22.59,22.59,0,0,0,487.75,280.42Z"/><path class="cls-2" d="M344.24,76.77c2.13.65.38,0,0,0Z"/><path class="cls-2" d="M352.65,85.16c-.49,0-.88,0-1,.3A1.46,1.46,0,0,1,352.65,85.16Z"/><path class="cls-2" d="M242.91,70.55h-.19C243.37,70.79,243.26,70.75,242.91,70.55Z"/><path class="cls-2" d="M347.21,78.43c-.74-.42-1.6-.87-2.56-1.3C345.05,77.38,345.83,77.78,347.21,78.43Z"/><path class="cls-2" d="M347,77.7l1.79.76C349.11,78.35,348.92,78.14,347,77.7Z"/><path class="cls-2" d="M341.26,75.93a24.9,24.9,0,0,1,3.39,1.2c-.38-.23-.53-.36-.41-.36Z"/><path class="cls-2" d="M277.21,427.68c.14,0,.31,0,.47.08C279.76,427,278.83,427.19,277.21,427.68Z"/><path class="cls-2" d="M92.09,124.93c.07-.07.1-.13.16-.2l-.28.15Z"/><path class="cls-2" d="M86.69,130.23a13.46,13.46,0,0,1,1.13-2.07,9.2,9.2,0,0,1,1.26-1.4A14.52,14.52,0,0,1,92,124.88l-4.26-1.52-.57,3.41C87,127.91,86.83,129.09,86.69,130.23Z"/><path class="cls-2" d="M89.27,374.29c-1.16-1.36-2.25-2.8-3.36-4.19a41.42,41.42,0,0,1,4,1.88c1.13.56,2,1,2.64,1.3,1.23.55,1.3.3-.16-1.79-1.57,1.47-5.55-1.66-9.55-4.76-3.86-3.25-7.69-6.53-9.34-5.31l-1.87-3c.68.72,1,.66,1.63,1.37-1.71-3.05-3.1-3.38-4.81-3.79S64.73,355,62,351.61a15,15,0,0,1-1.86-3c-.23-.67,0-.84.81-.22l-5.07-4.52c-1.2-1.56-.33-1.63.85-.09-2.34-2.51-4.36-5.26-6.51-7.91h.14A37.63,37.63,0,0,1,45,331.78c-1-2.52,1.09.86,1.14,0-1.32-1.4-2.67-2.8-4-4.24-.13-1.29.58-1,1.65-.05a20.43,20.43,0,0,1,3.46,4.3c.23-3.34-.61-4.14-2.08-5.5a16.72,16.72,0,0,1-2.41-2.91,22.2,22.2,0,0,1-1.37-2.47,19.48,19.48,0,0,1-1.32-3.52c.46.75,1,1.47,1.51,2.19l1.56,2.15a9,9,0,0,0-.3-2.94,13.92,13.92,0,0,0-.46-1.43c-.15-.49-.32-1-.51-1.51a50,50,0,0,1-2.41-7.26c-.09.8.48,3.78.56,6s-.25,3.73-2.09,1.23A15.21,15.21,0,0,0,36.78,313a16.19,16.19,0,0,0-1-1.67c-.41-.58-.82-1.23-1.35-1.9,1.32-.64-.32-3.41-2-7.08l1.88-.46c-2-3.81-2.79-3.16-4.49-5.27a9.08,9.08,0,0,1-.5-5,7.35,7.35,0,0,1,1.19-2.53c-1-3.67-1.15-2.27-1.47-1s-.77,2.45-2.26-1.9a44.16,44.16,0,0,0-1.88-8.66c-.36-1.4-.78-2.84-1.26-4.39-.25-.78-.5-1.59-.77-2.43a27.51,27.51,0,0,1-.78-2.69c.22-4.59,1.24.65,1.63-1l-1.91-3.83c-.06-1,.44-.7.69-.56-.89-3.33-2.06-.11-2.77-5.47-.54-.34-.64-1.22-.53-2.43.06-.61.17-1.31.31-2.06.06-.38.14-.77.21-1.17s.21-.82.32-1.25a38.48,38.48,0,0,0,1-5.38,23,23,0,0,0,.08-2.74,11,11,0,0,0-.32-2.64c.71-1.57,1.1.89,1.89.45-.34-4.54-.48-6.53-.49-8.29s-.25-3.35-.65-7.28l2.67-6c-1.22,2.11-1.92,1.64-2.32-.1a19.09,19.09,0,0,1-.39-3.37c0-1.31,0-2.75.09-4.14-1.16,1.44-2.17,2.7-2.73,3.58l1.52-8.7c.63-.91,1,.14,1.33,1.76,0-.62,0-1.21,0-1.67,1.76-2.7,2.19-.82,2.52,1.6-.65.88-1.34,1.75-2,2.61.5,2.38,1.19,4.6,2.4,4.48a11.14,11.14,0,0,1,.29-2.79c.15.61.32,1,.58.83s.11-1.17,0-2.64l2.58-1.17L27.5,208l2.5-4.9c.85-1.63,1.63-3.27,2.61-4.82.28-2,.49-4,.71-6,.09-1,.26-2,.45-3.07s.39-2.09.62-3.19.48-2.22.78-3.39a32.8,32.8,0,0,1,1.17-3.56c.45-1.22,1-2.5,1.54-3.83.29-.66.6-1.34.91-2s.73-1.36,1.13-2.06c-.44,3.49,1.79,1.94,3.26,3.09a4.59,4.59,0,0,0-1.23.89,8.31,8.31,0,0,0-1,1.34A24.28,24.28,0,0,0,39.29,180c-.52,1.33-1.13,2.7-1.65,4.18a26.81,26.81,0,0,1-2,4.32c1.72-2.91,2.17-1.83,2.06-.93,1.11-3.71,2.62-7.26,4-10.9.59.5,1.13.12,1.8-.66s1.55-1.91,2.64-3c-1.89.12-1.12-1.94.37-4.62s3.95-5.73,5-7.93c1,.39,1.11,1.93-2.5,6.37,2.8-1.87,3.29-4,3.78-6.22s1.13-4.33,3.87-6.13c-.89,1.1-1.49,1.59-1.45,2.35a14.19,14.19,0,0,1,1.7-2.67,18.34,18.34,0,0,1,2.38-2.63c1.61-1.5,3-2.36,2.63-1.37L61,151.27l12.47-12.84a76.79,76.79,0,0,0,5.44-6c1.42-1.64,2.25-3,2.12-3.67a10.9,10.9,0,0,1,.89,3.91c1.25-2.83,2.49-5.76,3.87-8.61s2.86-5.66,4.35-8.54c0,1.35,2,2.22,3.17,3.49s1.69,2.9-1,5.69a31,31,0,0,0,3.34-2,32.45,32.45,0,0,0,4.52-3.58c-1.43.58-5-.51-3.31-1.84A29,29,0,0,0,102,116a49,49,0,0,1,5.93-1.84c-2.2.79-1.83-3.45,1.36-5.27-.22.74,2,2.77,1,3.76,2-2.56,4.08-4.9,6.18-7.37-1.69,1.63,1,2.7,3.23,2.58-.28,0,0-.28.62-.65a23,23,0,0,1,2.64-1.36,56.27,56.27,0,0,0,5.64-2.81l-3.75,1A19.56,19.56,0,0,0,130,100.9a23.49,23.49,0,0,0,3-3.16,24.64,24.64,0,0,1,3.07-3.22,17.47,17.47,0,0,1,2.22-1.58,21,21,0,0,1,3.09-1.41c-.9,1.11-1.18,5.08,3.73,3.59.39-.62,1-1.65,1.83-2.92a38.55,38.55,0,0,1,3.18-4.32,41.71,41.71,0,0,1,4.54-4.6c.86-.74,1.77-1.45,2.72-2.12a24.12,24.12,0,0,1,3-1.68l2,.42c2.14-1,4.28-2.12,6.45-3.11-1.78,1.84-5.2,5-8.81,8.17s-7.32,6.6-10,8.67c3.84-.53,1.4.74,6.71-1.21,2.18.22-2.44,2.34-4,2.93,4.2-1.22,8.34-2.58,12.59-3.58-.57-.88,1.68-2.1,4-3.28,1.14-.6,2.3-1.17,3.12-1.64s1.3-.95,1.07-1.32c-2.25.91-4.44,2-6.62,3s-4.38,2-6.53,3.1c-.6-.88.93-2.86,3.8-4.91a34.58,34.58,0,0,1,5.18-3A33.2,33.2,0,0,1,176,81.52c2.53.17-.84,3.93-.47,4.53a19.15,19.15,0,0,1,4.64-2.11,13.49,13.49,0,0,1,4.64-1c-1.21.64-2.44,1.24-3.63,1.92a18.55,18.55,0,0,0,6.65-2.31,12.72,12.72,0,0,1,7.65-1.5c2.17-.25,6.8,1.43,7,.19-3.82-1.66-5.82-8.54-3.7-10.67.4,0,3.38,0,6.6.26a55.44,55.44,0,0,1,8,1c3.79,1.3-4.85,5-1.6,6.13.06-.57,1.94-1.51,2.73-1.84,2.33.21-.74,1.78,4.17,1,.61-2.11,10.08-.82,2.16-2a19,19,0,0,1,5.12-.52,41.79,41.79,0,0,0,5.78,0c-.95-.61.26-1.8,2.35-3A25.86,25.86,0,0,1,237.6,70a21.35,21.35,0,0,1,3.91-1c-.27.53.86,1.18,1.4,1.48,2.53,0,4.76,0,6.84.12s4,.32,5.89.48,3.76.32,5.74.45,4.07.38,6.42.51c.84.54,5.3,1.41,3.32,2.17a14,14,0,0,1,5.53-.67c5.4,2.3-6.41-.35-2.36,2.18.45-1.15,7.54-.93,11.72-1.23-.52-1-2.89-1.3-5.64-1.34a62.61,62.61,0,0,0-7.95.44,2.63,2.63,0,0,1,1.4-1.82,13.38,13.38,0,0,1,3.7-1.44,41.31,41.31,0,0,1,5.56-1c1.06-.12,2.18-.23,3.35-.29s2.38,0,3.64,0c7.95.46,3.17,2.09,4.58,1.92,14.54,2.8,13.34-2.31,25.12,2.13,4.42,2.71-.52,3.15.27,4.53a30.88,30.88,0,0,1-7.61-2c-1-.39-2-.79-3-1.15a19,19,0,0,0-3.06-.77l2.56.85,2.53.94c-2.09,0-6.36-.27-8.57-1.15a24.59,24.59,0,0,0,5.57,1.68c2.62.67,5.86,1.43,9.33,2.21,1.74.37,3.51.86,5.29,1.35l5.28,1.49c.87.26,1.72.5,2.55.77l2.41.87c1.56.58,3,1.15,4.32,1.73,1,0,2.43.17,3.4.16s1.49-.12.81-.7l-3.51-.84c-2.79-2.21,7.05.26,2.86-1.65,2.47.28,5.08.64,7.9,1.2a44.12,44.12,0,0,1,4.34,1.12,37,37,0,0,1,4.52,2l.52,2.19c.07-.55-3.77-2.69-5.77-2.85,1.48.12,3.71,1.69,6,3.06A22,22,0,0,0,362.2,90a5.53,5.53,0,0,0,3.14.39l-1.95-1.56-2-1.48c2.48.43,5.26,1,8.15,1.63a43.44,43.44,0,0,1,4.33,1.27,23,23,0,0,1,4.14,2c-.86-1.44-1.21-1.56-1.71-1.79s-1.15-.61-2.73-2.45c1.19,2-2.41.34-5.76-1.16s-6.49-2.69-4.18-.31a15.17,15.17,0,0,0-5.22-3.91A36,36,0,0,1,352,78.67c0,.63,1.58,1.78-3.23-.21a5.85,5.85,0,0,1-1.25.13l-.31-.16.24.16c-.24,0-.26,0,.1.06a7.35,7.35,0,0,1,2.18,1.74c-1.44.24-4.09-.34-6.73-1a60.09,60.09,0,0,0-6.75-1.24c-2.84-1.16,1.42-.29,0-1.4L332,76.61c0-1.4-7.29-4.22-.07-3.15l-6.3-1.71a34.26,34.26,0,0,0-12-3.28c-2.95-1-7.92,0-5.08-.6l-10.2-1,0-.35c-2.49-.39-5-.62-7.63-.81l-3.92-.27-4-.16c-2.68-.12-5.39-.32-8.14-.71a52,52,0,0,1-8.38-1.53,91.28,91.28,0,0,1-12.56,0l-1.1-1.19c-2.18.11-5.45-.07-8.42-.21s-5.64-.17-6.55.45c-2.41-1.41-7.76-1.33-13.42-.76s-11.65,1.71-15.49,2L208.67,65c-2.62.33-5.18.73-7.86,1.33s-5.49,1.42-8.65,2.29l.65,1.25a47.61,47.61,0,0,1-10.22,2.09,85,85,0,0,0-12.71,2.37c.45-.65,2.68-1.09,4.31-1.19A25.9,25.9,0,0,0,166,74.27a77.62,77.62,0,0,0-7.74,3c-1.27.54-2.51,1.15-3.74,1.74s-2.45,1.14-3.67,1.63a34.38,34.38,0,0,1-7.31,2.13A13.82,13.82,0,0,1,138.14,85a3.23,3.23,0,0,0,.53-.29c-.24.08-.58.21-.93.35-1.07.19-2.21.31-3.37.61a25.88,25.88,0,0,0,2.88-.41,53,53,0,0,0-6.62,3.44L129,87.81l-.57.3c-2.72.62-1.71,1.5.06,1.91a18.71,18.71,0,0,0-3,2.29c-3-1.12-6.11,3.9-9.92,3-.54,1-3.48,2.86-6.27,4.84-.7.5-1.39,1-2,1.51a22,22,0,0,0-1.7,1.54,4.47,4.47,0,0,0-1.59,2.66c-.26-.23-1,0,.23-.73-2.75,1.35-5.58,2.61-7.43,4.79l-2.09-.82-4.16,5.76c-3.89,1.48-5.67,2-3.22-1.58a70.69,70.69,0,0,1-6.1,6.35,44.39,44.39,0,0,0-4.93,5.9l-.45-1.17c-2.34,1.84-4.74,6.26-6.74,6.69a17.28,17.28,0,0,0-2.94,1.74c-1.13.82-2.36,1.9-3.73,3.12s-2.87,2.59-4.4,4.13l-4.69,5c-1.67,1.71-3.22,3.65-4.84,5.54s-3.3,3.79-4.81,5.79-3.12,3.86-4.65,5.7-2.88,3.7-4.29,5.36c2.39-.43,1,1-.83,2.84s-3.72,4.21-2.71,5.18c-1.22.45-2.86,2.32-2.06-.47-.47,1-1,1.93-1.42,2.8s-.85,1.71-1.28,2.48c-.84,1.55-1.67,2.9-2.41,4.21-.37.65-.74,1.28-1,1.93s-.55,1.32-.78,2a16.76,16.76,0,0,0-.84,4.41c-1.17.61-.35-2.21-1.16-1.58-.13.73-.48,2.88-1.3,3.54s-.13-1.46.11-2.9A29.33,29.33,0,0,0,18,194.78a21.65,21.65,0,0,0-.5,2.37,9,9,0,0,0,0,3.32A5,5,0,0,0,20,203.62c-.33.48-.63.94-.89,1.37s-.46.88-.64,1.29a12.63,12.63,0,0,0-.82,2.34,11.67,11.67,0,0,0,0,4.72C17,214,16.34,214.9,16,215s-.52-.73.17-3.43A101.94,101.94,0,0,0,13.21,222a27.34,27.34,0,0,0-.56,3.16c-.14,1-.23,1.94-.28,2.75-.09,1.6,0,2.69.49,2.84a5.67,5.67,0,0,0-.6,2.6,15.61,15.61,0,0,0,.06,2.56c-.21,1.74-.37,3.08-.51,4.22a28.1,28.1,0,0,0-.29,3c-.1,1.89-.16,3.76-.18,7.21l.37-1.9c1.14,1.37,1.13,2.78,1.11,4.55a45.27,45.27,0,0,0-.15,6.65l-.24-.15a30.6,30.6,0,0,0-.17,3.92c0,1,0,1.85.08,2.5a15.47,15.47,0,0,0,.41,2.64,18.13,18.13,0,0,1,.4,2.59c.14,1.28.25,3.17.29,6.36l1.31-.93c.81.16,1.21.92,1.4,2.1a44.46,44.46,0,0,1,.33,4.53c.05,1.79.1,3.78.3,5.77a20.44,20.44,0,0,0,1.62,5.52l0-2.73a6.9,6.9,0,0,1,.78,3.36c0,1.33-.16,2.85-.23,4.35-.2,3-.55,6.17,0,8.16.06.93-.89-1.16-1.5-2.26.25,1.34.47,2.36.68,3.13a8.32,8.32,0,0,0,.65,1.58c.4.65.72.62,1.07.47.69-.29,1.52-1,3.29,2.52-.33,1.76-3.12-.68-1.13,4.32.23,1.38,2.75,4.5,5.38,8.13,1.41,1.76,2.87,3.63,4.1,5.53.61.94,1.15,1.91,1.64,2.83a15.72,15.72,0,0,1,1.24,2.7c-.23-1.76-.43-3.47,2.07-.77A28.75,28.75,0,0,1,38.84,340c.76,1.6,1.69,3.23,2.59,4.87a35.59,35.59,0,0,0,2.94,4.52,10.7,10.7,0,0,0,3.57,2.87c.29.68.3,1,.17,1.16.8.72,1.81,1.7,2.9,2.78s2.39,2.17,3.6,3.24c2.45,2.14,4.8,4.06,6.21,4.44-.19,1.55,1,3.39,2.84,5.3.46.48,1,1,1.49,1.45s1.13.93,1.72,1.39c1.19.92,2.46,1.83,3.7,2.72s2.43,1.77,3.58,2.53a36.65,36.65,0,0,1,3,2.19c1.63,1.36,2.46,2.54,1.73,3.43,1.69,1.37,3.49,2.58,5.25,3.84s3.54,2.52,5.33,3.74l-.56.2a44.32,44.32,0,0,0,7.81,4.72,21.2,21.2,0,0,0,5.07,1.42c1.47,1.25.06.9-.21,1,2.48,1.75,4.38,3.15,6.07,4.18a44.27,44.27,0,0,0,4.51,2.43,39,39,0,0,0,4.47,1.72c1.7.48,3.66,1,6.17,1.57l.29,1.8a15.12,15.12,0,0,1,3.68,1.76c1.71,1,3.87,2.17,6.29,3.51a68.29,68.29,0,0,0,8,3.86q2.16.88,4.37,1.64a37.47,37.47,0,0,0,4.44,1.12c-.17.12-.5.31-1.46.2a44.64,44.64,0,0,1,5,1.41c1.7.57,3.41,1.27,5.16,1.88,3.48,1.27,6.92,2.82,10.21,4a57,57,0,0,0,9,2.58c2.63.4,4.83.17,6.31-.88l4.42.29,2.21.14,2.22.05c-2.77-.57-4-1.11-4.38-1.44s.09-.55.76-.74c1.35-.35,3.51-.65,1.34-1.55,4.36.51,10.93,3.62,5.53,2.95l-.79-.41c-1.24,1.21,2.17,2.07,5.82,2.86s7.57,1.23,7.29,2.18c5.52.83,11.05,1.29,16.53,2l8.2.74,4.09.38c1.36.1,2.72.15,4.08.24l8.11.45c2.7.08,5.39.09,8.07.13l4,0c1.34,0,2.67-.07,4-.11q4-.15,7.92-.36L271,436.34l3.64-.16,3.63-.29c1.95.32,2.73,1.46-2.48,1.88,2.85,1,8.62-1.89,8.7-2.38,2.56,0,3.6.06,3.79.33s-.49.65-1.39,1c-1.81.74-4.54,1.42-3,1.3,1.41-.2,2.83-.37,4.23-.64l-1-.12c3.32-1.37,3.49-2.35,9.7-3.1,4-.16,2.23,1,3.78.84,0,.16.55.14,2.38-.36l4.57-.72,2.29-.36,2.27-.44c-1.32-.29-2.64-.6-4-1,3.84-1.59,8.47-1.73,3.94-2.71,1.66.41,4.61.22,8.15-.3s7.61-1.63,11.62-2.66,7.84-2.44,11-3.39a42.32,42.32,0,0,1,6.42-1.93c1.25-.77,2.51-1.46,3.81-2.1s2.6-1.32,4-1.93,2.78-1.2,4.27-1.78l2.28-.89,2.35-1c-1.73.38-3.42-1,2.12-3.2-.19,2.27,2.51,1.57,6,.34s7.52-3.22,10.39-3c-1.21.06-.83-.38.22-1.17s2.84-1.86,4.53-2.91a27,27,0,0,0,4-2.83c.7-.76.55-1.13-1.26-.86,4.47-2.3,1,1.15,4.78,0,4.78-3.73,10.44-7.14,16.36-10.89a113.89,113.89,0,0,0,17.5-13.11c-.18-.54-2.57.5-.71-2.21,2.52-1.1,5.14-2.12,7.6-3.38,1.95-2.29-.18-4.07,4.94-6.58-.85.24-2.13.57-.87-1,11-9.62,19.91-22,27.19-35.1,1.93-3.23,3.5-6.66,5.24-10,.9-1.65,1.62-3.4,2.41-5.1s1.59-3.42,2.41-5.12,1.46-3.48,2.22-5.21,1.6-3.43,2.25-5.2c1.37-3.53,3-7,4.39-10.56-1.92,3.75-1.4,1.05-.74-2-.69,1.91-1.26-.34-2.05-.11l1.19-2.93c.19-.49.4-1,.59-1.47l.5-1.5,2-6c-.72-1.26-.49-4.6-.18-7.82s.38-6.34-.54-7c.06,1.31.17,2.63.19,3.95-.47-1.34-1.09-1.57-1.7-1.18a10.39,10.39,0,0,0-2.13,2.49c-1.55,2.23-3.22,4.88-4.61,4.35a7.34,7.34,0,0,1,.35,2.31,11.62,11.62,0,0,1-.44,2.51c-.46,1.74-1.21,3.59-1.94,5.53a47.44,47.44,0,0,0-2.18,6.08,20,20,0,0,0-.54,3.32,15.73,15.73,0,0,0-.07,3.51c-1.14,1.75-.4-1.9-1.35-1.06a10.14,10.14,0,0,1-.07,4.2,21.94,21.94,0,0,1-2.21,5.79l-.08-.65c-.59,1.71-1.16,3.29-1.71,4.77s-1.26,2.81-1.87,4.11-1.22,2.54-1.82,3.75-1.35,2.33-2,3.49c-1.4,2.31-2.77,4.68-4.58,7.2l-2.77,4.06c-1,1.44-2.15,2.9-3.33,4.54l1.85-.22a22,22,0,0,1-4.07,4.31c-.32,2.23,1.21.31,2.6-1.78s2.91-4.13,2.89-2c-1.25.59-2.72,2.16-4.31,4.2s-3.53,4.38-5.34,6.77-3.84,4.53-5.54,6.23a12.7,12.7,0,0,1-2.44,2,4.22,4.22,0,0,1-2,.75c-3.64,3.93,2.28,0-1.38,3.9l-1.6.43c0,.6-.07,1.19-.13,1.78-2.67,2.35-4.71,2.8-5.33,2.35a24.65,24.65,0,0,0,2.18-2.53,19.69,19.69,0,0,0-3.08,2.48c-1,1-2,2.11-3.07,3.09a45.89,45.89,0,0,1-4.34,4.24l4.2-3c-1.29,1.29-2.65,2.6-4.05,3.91-.69.68-1.42,1.31-2.18,1.93l-2.27,1.89c-1.54,1.24-3.06,2.56-4.67,3.77l-4.88,3.61-2.44,1.81-2.49,1.71c-1.64,1.15-3.27,2.3-4.85,3.45-3.23,2.23-6.36,4.39-9.19,6.63.43,0,.85,0,1.27,0a36.29,36.29,0,0,1-8.67,5,62.4,62.4,0,0,0-9.81,4.54l.32-.34a29.27,29.27,0,0,1-7.75,4.51c2.46-1.95-5.82.92-2.52-1.5-5.21,2.87-6.51,3.6-7.25,4.35-.38.37-.62.72-1.18,1.31a20.94,20.94,0,0,1-3.07,2.65l-2.09-.44a29.71,29.71,0,0,1-2.66,2.17,15.36,15.36,0,0,1-1.93,1.08c-.41.2-.89.42-1.43.65s-1.18.45-1.9.71c4.46-2.36-4.2-.49.72-3.31-6.41.66-10.64,2.68-14.25,4s-6.4,2.57-9.63,1.4c-2.48,2.12.27,2,3.29,1.42s6.22-1.68,4.72-.95c1.45.14.44,1-1.45,1.92a25.28,25.28,0,0,1-3.27,1.31,22.93,22.93,0,0,1-3.37.78c-2,.41-3.9-.18-6.53-.6a29.31,29.31,0,0,0-11,.08c1-.16,1-.4,2-.57-3.83,0-7.18,2.2-12,1.59-2.34,2.25-6,.61-6.49,3,1.54-.26,3.09-.45,4.62-.77l4.58-.91c-5.11,1.39-9.82,4.66-18.7,4.06a9.32,9.32,0,0,1,2.06-.92c.94-.36,2-.71,2.88-1a10.64,10.64,0,0,0-3.74.23,10.38,10.38,0,0,1-3.82.09c.15-.6.93-1,2.1-1.23.58-.13,1.27-.23,2-.32s1.56-.21,2.41-.31c3.41-.42,7.46-.73,10.14-2-2.79-.64-10.42,2.78-7.85,0-1.87,1.8-4.37,2-7.22,2s-6-.14-9.41,1.3l.39-1.45a22.55,22.55,0,0,1-5.3,1l3.56-1.92c-5.5,1.67-10.66-1.08-15.93-.42,5.53.1,6.16.51,6,1.07s-1.16,1.29,1.2,1.76a26.72,26.72,0,0,1-4.33.37,17.6,17.6,0,0,1-3-.22,11.59,11.59,0,0,1-3.72-1.36c-2.15-1.08-4.45-2.5-12.09-2.6,2.07-.08,7.7,1.31,4.43,1.78-2.9-.48-6.71-1.19-8.41-2.17-10.1-.69,1.42,1.61-3,2.06a5.05,5.05,0,0,0-4.31-.65l-2.32.59a14.11,14.11,0,0,1-2.94.28l.15-1.44c-5.68-1.26-6.54-.61-7.28,0a2.27,2.27,0,0,1-1.57.71,16,16,0,0,1-4.83-.91l4.69-1.2-5.45-.44,1.39-1.43a31.76,31.76,0,0,1-6.86-.37c-1.88-.39-3.7-1-6.48-1.84.55.64.22,1.24-.88,1.55a8,8,0,0,1-2.21.21,14,14,0,0,1-3.27-.49c-3.19-1.73,2.24-.84-4.87-2.49,1.83-.45,3.83-1.11,6.57,1,.42-.36,1.79-.52,2.22-.9-3.42-1.8-9.06-2.57-11.61-3.19a12.83,12.83,0,0,1,2.65,1c-3.58-.18-7.09-.67-10.67-1-1.43-1,0-1,1.34-1.06-2.08-.5-3.72-.2-6.72-1.15a7.07,7.07,0,0,1,1.64-1.24,8.18,8.18,0,0,1,4.06,0l-2.47-.41c-.83-.15-1.64-.33-2.46-.5l-4.92-1c-.47-.69-4.34-3-3-3-2.43-1.33-5.76-2-9.32-2.86a39.42,39.42,0,0,1-10.38-3.94,7.18,7.18,0,0,1-2.68-.65c-1.52-.82-3-1.69-4.38-2.56l-2.14-1.31c-.7-.46-1.4-.92-2.12-1.37a53.51,53.51,0,0,0-9.91-4.87l-2.83-4.19c-2.83-1.43-1.86-.07-1.36,1.06.26.56.4,1.07-.13,1.13s-1.72-.29-4-1.63c-6.66-3.65-1.34-3.06-3.19-5a40.12,40.12,0,0,1-7-2.84,25.94,25.94,0,0,1-4-2.52,22.23,22.23,0,0,1-3.54-3.69C86.32,371.72,87.48,373.13,89.27,374.29ZM38,316c.48.6,1.27,1.46,1.9,2.34A3.89,3.89,0,0,1,41,320.78a3.07,3.07,0,0,1-2.12-1.68C38.54,318.3,38.38,317.28,38,316ZM28.06,200.56c.05,1.25-.78,2.82-2,4.52A17.61,17.61,0,0,1,28.06,200.56ZM320.55,71.35a.63.63,0,0,0-.19,0C317,70.06,318.17,70.55,320.55,71.35Zm7.08,2.45c.78,0,.78-.21.53-.49-.6.23-2.23-.17-4.05-.76C324.53,73.06,325.4,73.55,327.63,73.8ZM301.37,434.38l-1.49-.12C303,433.28,302.19,433.81,301.37,434.38Z"/><path class="cls-2" d="M25.62,214.11a1.39,1.39,0,0,1-.94.41C24.74,215.16,25,215.24,25.62,214.11Z"/><path class="cls-2" d="M131.4,398.93l.21.12a.67.67,0,0,0,.33-.13Z"/><path class="cls-2" d="M214.59,78.23a9.57,9.57,0,0,1-2.91-.35C211.65,78.24,212.35,78.44,214.59,78.23Z"/><path class="cls-2" d="M366,84.23c-1.53-.53-3.09-1-4.63-1.45a13.81,13.81,0,0,1,3.86,2C365.3,84.47,364.64,83.65,366,84.23Z"/><path class="cls-2" d="M398.48,111.19c.68.19,1.24.74,1.9,1l.2-.67C398.1,109.94,396.05,109.4,398.48,111.19Z"/><path class="cls-2" d="M368.18,90.44c-.15,1.28,2.74,2.06,5.84,3.27-.18-.09-.35-.16-.52-.26C375.12,92.3,371.63,91.36,368.18,90.44Z"/><path class="cls-2" d="M374.73,94a26.05,26.05,0,0,1,2.76,1.34C378.14,94.91,376.44,94.66,374.73,94Z"/><path class="cls-2" d="M337,75.59c1.43.76,1.4-1.2,2.13-.46C341.25,74.16,328.39,73.83,337,75.59Z"/><polygon class="cls-2" points="368.98 95.19 368.52 93.34 366.35 93.7 368.98 95.19"/><path class="cls-2" d="M345.31,84.62l4.82,2.13c0-.27.69-.19,1.5,0C348.6,85.62,345.34,84.16,345.31,84.62Z"/><path class="cls-2" d="M351.63,86.73a21.92,21.92,0,0,0,4,1.3A31.74,31.74,0,0,0,351.63,86.73Z"/><path class="cls-2" d="M362.27,92.7c-.43-.31-.87-.59-1.31-.88l-3.39-1.46C359.14,91.15,360.72,91.89,362.27,92.7Z"/><path class="cls-2" d="M290.46,71.53c-1.91-.1-3.82-.29-5.74-.31-.63.47.88.88,3,1C289.13,72.05,291.27,72.14,290.46,71.53Z"/><path class="cls-2" d="M306.81,78.33a5.52,5.52,0,0,1-2.25-1.56l-.51,1.8Z"/><path class="cls-2" d="M290.47,76.12c-.64.44-8.29.36-1.21,1.22C289.88,76.9,295.55,77.25,290.47,76.12Z"/><polygon class="cls-2" points="205.26 74.36 206.69 74.14 206.05 71.14 205.26 74.36"/><path class="cls-2" d="M135.85,102c3.14-1,3.31-1.58,3.41-2.12a1.14,1.14,0,0,1,.48-.81,6.93,6.93,0,0,1,2.6-.94c.58-.62-.62-.35-1.82-.06s-2.34.68-1.74.07C135.43,100.46,133.36,100.91,135.85,102Z"/><path class="cls-2" d="M138.78,98.14c.54-.37,1.1-.79,1.69-1.25A10,10,0,0,0,138.78,98.14Z"/><path class="cls-2" d="M491.65,264.14c.37-1.5.74-3,1-4.53-.37,1-.74,1.94-1.2,2.89Z"/><path class="cls-2" d="M489.86,255.32l2-1-1.68-2.74C490.22,252.57,490.32,254.55,489.86,255.32Z"/><path class="cls-2" d="M36.67,304l-.56-.1c-.21.77.14,1.67.84,3.45Z"/><polygon class="cls-2" points="65.91 351.01 65.28 350.27 65.22 352.81 65.91 351.01"/><path class="cls-2" d="M103.3,379.62c-1.55-1.14-3.67-2-5.21-3.22C101.72,378.5,102.53,381.73,103.3,379.62Z"/><path class="cls-3" d="M146.36,155c0-10.82,14.1-19.62,31.44-19.62h72.28c66.13,0,112,19.17,113.47,61.35a45.6,45.6,0,0,1,.36,7.44v19.4a45.73,45.73,0,0,1-.36,7.45q-3.26,61.57-111.67,61.57H155.4c-5.42,0-9-2.25-9-5.64ZM261.29,240.2c.27,5,0,0-.57,4.26a7.77,7.77,0,0,0,4,8c12.71,6.52,9.05-31,10.95-34.3,2.4-4.12,10.44-5.64,12.74-1.73,4.84,8.23-5.17,41-5.17,41,7.11.34,7.11.34,15.48-.91.36-2-3.5-36.06-3.14-39v-13.1c-.36-2.71-.36-5.19-.72-7.22C294.17,178.5,278.63,169,248.27,169H194.06c10.12,0,19.88,5.19,19.88,11.73V240.3c0,2,.24,16.3,2.41,17.65.24.18,14.85,1.93,12.45.48-8.27-5-13.33-28.55-10.69-37.53,1.64-5.56,15.29-4.63,15.52-1,2.27,36.8,17.07,44.71,15.86,14.81-.12-2.9,2.74-3.79,5.65-3.79h0C259.72,232.37,261,235.38,261.29,240.2Z"/><path class="cls-3" d="M130.37,259.92a.48.48,0,0,1-.33-.14L75.52,212.59l54.54-43.47c.43-.34.93.08,1.1.94a2.52,2.52,0,0,1-.47,2.2L79.92,212.72l50.79,44a2.53,2.53,0,0,1,.44,2.22C131,259.54,130.7,259.92,130.37,259.92Z"/><path class="cls-3" d="M131.23,260.53a3.56,3.56,0,0,1-.75.37c-.07,0,0,.09-.11.1a1.34,1.34,0,0,0,1-.39c.1-.11.1-.15.09-.16S131.2,260.53,131.23,260.53Z"/><polygon class="cls-3" points="128.44 253.99 128.57 254.02 127.7 253.47 128.44 253.99"/><path class="cls-3" d="M123.58,249.77c.28.6,1.79,1.5,2.59,2.32l.11.17.53.17C125.73,251.55,124.27,250.47,123.58,249.77Z"/><path class="cls-3" d="M121.36,247.09c.1.22-.61-.41.59.55l-.09-.11Z"/><path class="cls-3" d="M121.86,247.53c.51.43-.28-.36,0,0Z"/><path class="cls-3" d="M119.45,245.53l.74.51c-.1-.17-.69-.7-.44-.54C119,244.94,119.12,245.11,119.45,245.53Z"/><path class="cls-3" d="M118.69,245.12l.37.27A.76.76,0,0,0,118.69,245.12Z"/><path class="cls-3" d="M119.86,246l-.8-.58c.07.12,0,.19.36.27C119.31,245.67,119.5,245.74,119.86,246Z"/><path class="cls-3" d="M120.25,246.37c.34.37.8.82.07.3C121.63,247.76,121.56,247.45,120.25,246.37Z"/><path class="cls-3" d="M123.15,249.77l.45.49.5.32C123.85,250.42,123.17,249.68,123.15,249.77Z"/><path class="cls-3" d="M115.34,241.78c-.08,0,.13.32.13.41l.54.39C115.78,242.32,115.32,241.88,115.34,241.78Z"/><path class="cls-3" d="M115.47,242.19l-.81-.57C115.32,242.21,115.47,242.28,115.47,242.19Z"/><polygon class="cls-3" points="118.37 245.24 119.73 246.14 118.13 245.04 118.37 245.24"/><polygon class="cls-3" points="112.5 239.31 113.01 239.58 112.13 239.08 112.5 239.31"/><path class="cls-3" d="M110.6,237.7c.38.19-.31-.51.06-.28a12.59,12.59,0,0,0-1.47-1A9.34,9.34,0,0,1,110.6,237.7Z"/><path class="cls-3" d="M108.45,235.93c.22.16.47.31.74.48A5.84,5.84,0,0,0,108.45,235.93Z"/><path class="cls-3" d="M113.41,240.5a1.84,1.84,0,0,0-.48-.63l.19.38Z"/><path class="cls-3" d="M113.13,240.26h0l-.63-.56Z"/><path class="cls-3" d="M113.48,240.57l-.07-.07S113.44,240.56,113.48,240.57Z"/><path class="cls-3" d="M116.51,243.44c-.49-.31-1.47-1-.68-.16C116.22,243.47,115.76,243,116.51,243.44Z"/><path class="cls-3" d="M113.72,241l.77.72c0-.05-.09-.22.15-.07Z"/><polygon class="cls-3" points="113.3 240.74 113.72 241.03 113.43 240.77 113.3 240.74"/><path class="cls-3" d="M109.7,237.21a11.69,11.69,0,0,1-1.19-.92c.43.42.89.84,1.33,1.22C109.94,237.53,110.19,237.63,109.7,237.21Z"/><path class="cls-3" d="M111.36,238.7l-.08,0S111.35,238.73,111.36,238.7Z"/><polygon class="cls-3" points="104.35 232.69 104.4 232.77 104.43 232.76 104.35 232.69"/><path class="cls-3" d="M109.9,237.6a3.32,3.32,0,0,0,.78.6q-.41-.31-.84-.69S109.79,237.51,109.9,237.6Z"/><path class="cls-3" d="M107.24,235c.15.18.33.37.53.58A2.6,2.6,0,0,0,107.24,235Z"/><path class="cls-3" d="M111.19,238.51l.06,0C111.16,238.43,111.16,238.45,111.19,238.51Z"/><path class="cls-3" d="M111.19,238.51c-.19-.13-.35-.22-.51-.31q.31.26.6.45A.8.8,0,0,1,111.19,238.51Z"/><path class="cls-3" d="M102.42,232.38a4.48,4.48,0,0,1,1.81,1.4c.83.57.65-.23.17-1-.07,0-.11.08-1-.54.22.3,1.62,1.65.87,1.18a4.69,4.69,0,0,1-1.27-1.27c.31.51-1.49-.94-1.45-.54l1,.72S102.19,232.13,102.42,232.38Z"/><path class="cls-3" d="M105.88,234.07l.33.27a11,11,0,0,1-1-1.12c-.58-.41-.73-.46-.8-.46l1.57,1.39Z"/><path class="cls-3" d="M107.66,235.59c-.36-.1-1.18-.71-.82-.17,1,.81.75.47,1.36.9-1.55-1.28.5.32-.54-.71.32.24.59.47.85.68l-.74-.73,0,0h0c0,.07.07.1,0,0l0,0a.22.22,0,0,1-.11,0c-.42-.41,0-.09.11,0s0,0,0,0h0l-1.59-1.25C106.52,234.64,106.93,235,107.66,235.59Z"/><path class="cls-3" d="M114.79,242.83c0-.05,0-.05,0-.07S114.61,242.67,114.79,242.83Z"/><path class="cls-3" d="M114.23,242.22a2.62,2.62,0,0,1,.61.43c.28.31,0,.06-.07.11.24.16.84.57.2-.07l-.12-.08a6.79,6.79,0,0,1-1.11-1.34A3,3,0,0,0,114.23,242.22Z"/><path class="cls-3" d="M110.87,238.9l-1.32-1.05.56.67,0-.09C110.83,239.08,110.74,238.87,110.87,238.9Z"/><polygon class="cls-3" points="104.26 232.51 104.54 232.52 103.64 232.07 104.26 232.51"/><polygon class="cls-3" points="102.59 231.09 102.75 231.03 102.25 230.72 102.59 231.09"/><path class="cls-3" d="M110.93,185.5l-.36.34A4.51,4.51,0,0,0,110.93,185.5Z"/><path class="cls-3" d="M113.74,183.28l0-.11C113.66,183.3,113.62,183.37,113.74,183.28Z"/><path class="cls-3" d="M99.67,198.17c.65-.34,1.41-.68,1.24-.75h-.27A7.38,7.38,0,0,1,99.67,198.17Z"/><path class="cls-3" d="M127.82,174.5l-.2.09-.28.43Z"/><path class="cls-3" d="M127.8,173.66l.8-.51A9.11,9.11,0,0,0,127.8,173.66Z"/><path class="cls-3" d="M95.76,197.81l-.35.49C96.12,197.74,95.75,197.92,95.76,197.81Z"/><path class="cls-3" d="M85.63,216.48c-.43-.45-.79-.79-1.11-1.08C85,216,85.39,216.46,85.63,216.48Z"/><path class="cls-3" d="M111,183.28c-.22.21-.3.31-.27.34C110.92,183.4,111,183.27,111,183.28Z"/><path class="cls-3" d="M83.16,214.22l.23.25c.36.27.72.56,1.13.93A5.81,5.81,0,0,0,83.16,214.22Z"/><path class="cls-3" d="M110.77,241.89l.11.11S110.86,242,110.77,241.89Z"/><path class="cls-3" d="M125.31,256.64l-.65-.55C124.77,256.2,125,256.36,125.31,256.64Z"/><path class="cls-3" d="M96,225.28c.36.3.07,0,0,0Z"/><path class="cls-3" d="M97.27,227.24c-.08-.05-.16-.08-.19-.06A.38.38,0,0,1,97.27,227.24Z"/><path class="cls-3" d="M80.82,212l0,0C80.71,212,80.74,212,80.82,212Z"/><path class="cls-3" d="M96.47,225.79l-.42-.42Z"/><path class="cls-3" d="M96.45,225.67l.29.28C96.8,226,96.78,225.92,96.45,225.67Z"/><path class="cls-3" d="M95.49,224.87a7.05,7.05,0,0,1,.56.5q-.09-.1-.06-.09Z"/><path class="cls-3" d="M81.78,217.36l.07.08C82.24,217.69,82.08,217.57,81.78,217.36Z"/><path class="cls-3" d="M108.06,189.33l0,0,.06,0Z"/><path class="cls-3" d="M109.28,188.2a4,4,0,0,1-1.2,1.13l.72,0Z"/><path class="cls-3" d="M104.26,190.88l1-.62c-1,1.07-1.81,1.64-.82,1.12-.19-.5,3.52-2.88,3.33-3.38l.67-.39c-.17.13-.18.18-.36.31,1.33-.74.65-1,2.2-2.13.55-.39,1-.62.64-.29l1.1-1c.35-.27.32-.13,0,.13l1.77-1.46v0c.21-.27.71-.83,1-1.09.5-.31-.2.22,0,.18l.91-.89c.49-.22-.25.54-1,1.07,1.24-.34.74-.76,2.93-2.12l-.9.8a18.38,18.38,0,0,0,2.62-1.62c-.31.13-2.4,1.33-1.41.38a7.21,7.21,0,0,0,1.26-1.06c.12.14.65-.35,1.36-.92l.1.22a6.61,6.61,0,0,0,1-1.15,2.5,2.5,0,0,1,1.46-.7c1.39-1.06-1.13.52.46-.8a26.83,26.83,0,0,0,3.2-2.75c.85-.57,0,.23.28.05l.59-.71c.17-.13.15,0,.14,0,.55-.53-.1-.22.8-1,0-.2.58-.51,1.23-.91l.5-.32.25-.16a.57.57,0,0,1-.11-.22s0,.08-.08.19l0,0h0l0,0a1.56,1.56,0,0,1,.21.29c0,.28-.17-.08-.24,0a2.43,2.43,0,0,1,.2,1.16,1.26,1.26,0,0,1-.21.66,3,3,0,0,1-.45.54l-1.21.76c.93-.51,0,.49-.78,1.35l.82-.4-1.37,1.26c-.2.11-.11-.08.07-.34l-.23.25c-.58.35-.4,0-.11-.37l.62-.31c.27-.4.51-.79.34-.84a3.4,3.4,0,0,1-.43.43c.07-.11.1-.18,0-.17s-.19.19-.39.42l-.5.06v.15l-2,1.38a42.71,42.71,0,0,1-4.23,4.37c.41-.58-.09-.35-.2-.55.74-.28,1.61-1.42,2.76-2.27-.6.44-.54.26-.41.11l-1.86,1.77c-.08-.19-.52.22-1.09.58.63,0-1.34,1.38-2.08,2.12-.13-.06,0-.31,1-1.08-1.27.65-1.14,1.47-2.37,2.14.24-.2.39-.28.44-.41-.49.54-1.93,1.57-1.68,1.23l.24-.2c-1.63,1.25-4.9,3.91-4.94,4.35a1.27,1.27,0,0,1,0-.6l-2.21,3.13c.09-.42-1.29-.15,0-1.34a11.38,11.38,0,0,0-1.66,1.34c.29-.18.9-.21.56.09a22.7,22.7,0,0,0-2.16,1.18c.43-.27.26.41-.36.9,0-.13-.32-.29-.12-.51L103,193.93c.34-.37-.15-.33-.57-.15.21-.06-1.34,1.05-1.73,1.41l.72-.44c-1.78,1.34-1.35,1.83-3.09,3.19.15-.23.18-.83-.73-.17A14.12,14.12,0,0,1,95,201.35l-.37.14-1.09,1a47.41,47.41,0,0,1,3.11-4.1,4.78,4.78,0,0,0-1.24.82c-.42.18.42-.56.7-.8l-2.32,1.75c.26.12-1.58,1.59-1.36,1.68l2.31-2.17c.25.12-1,1.7-2.62,2.94-.47.25,0-.59-.06-.63a11.54,11.54,0,0,1-1.61,1.42l.6-.65c-1,.64-1.26,1.42-2.48,2.09-.38.29-1.31.63-1.29.8.79-.26,1.46.34,1.19.83-.14.09-2.12,1.34-2.63,1.57-.76.31.58-1.15-.06-.89,0,.08-.27.41-.39.54-.43.27,0-.29-.8.41,0,.31-1.74,1.36-.27.49-.78.72-.91.66-1.88,1.44.43-.12-.55,1.16-1.28,1.84,0-.08-.25,0-.38.06l-1,.75,1.55,1.43c.48.45,1,.9,1.59,1.43.1.17.79.87.4.68a6.55,6.55,0,0,1,1,.67c.77,1-1.08-.89-.55-.08a13.56,13.56,0,0,1,2.09,1.42c-.06-.36-1.53-1.38-2.27-1.9.21-.24,1.6.53,3.3,1.8,1.32,1.05.41.64.66.79,2.36,2.12,2.4,1.35,4.24,3.24.66.84-.23.33-.15.6-1.08-.84-1.51-1.48-2.21-2.08l.8.82a9.59,9.59,0,0,1-1.44-1.17c.54.71,4,3.53,5.76,5.25.37.23,1,.67.76.38l-.6-.49c-.43-.58,1.25.78.56.09a18.68,18.68,0,0,1,2.89,2.24l.06.35a3.75,3.75,0,0,0-1-.94c.53.32,1.49,1.7,2.19,1.9l-.67-.78a21,21,0,0,1,2.92,2.15c-.29-.56-.24-.18-.76-1,.39.77-2.49-2.17-1.75-1.07-.51-.85-1.15-1.17-1.91-2.18,0,.09.24.4-.56-.34a2,2,0,0,1-.22-.1l0-.06,0,.05c-.05,0-.05,0,0,0a1.71,1.71,0,0,1,.34.45c-.52-.23-1.82-1.36-2.32-1.67s.26.11,0-.18l-.75-.47c0-.19-1.11-1.33.1-.41l-1-.9A14.57,14.57,0,0,0,91,220.93c-.47-.44-1.35-.92-.84-.65L88.47,219v-.05a53.79,53.79,0,0,1-5.09-4.44c-.29-.22-.58-.44-.9-.71l-.52-.44-.21-.18-.11-.12a.31.31,0,0,1,.09-.11.9.9,0,0,1-.18-.16l.33-.2a2.5,2.5,0,0,0,.43-.41c1-.31,3.51-2.7,4.81-3.64l-.07-.19c.87-.68,1.67-1.38,2.69-2.3l-.17-.08c.84-.84,2.46-1.8,3.91-3a2.72,2.72,0,0,1-.73.59c2-1.09,3.52-3.15,5.27-4.2a5.18,5.18,0,0,1,1-.76l-.09.08.17-.12.6-.37a6,6,0,0,0-.52.3c.3-.25.75-.63,1.18-1h.31l.1-.09c.48-.3.3-.35,0-.27a6.44,6.44,0,0,0,.53-.56c.54-.06,1.13-1,1.81-1.17.22-.36,2.21-1.91,2.25-2.35,0,0,.19-.07,0,.13a9.66,9.66,0,0,0,1.45-1.18h.36l.91-1.12c.75-.43,1.08-.58.53.08,1.43-1.49,1.24-1.11,2.44-2.41l0,.17a11.23,11.23,0,0,1,1.51-1.31c1.27-.65,5.43-4.28,8.4-6.31-.82.09,1.42-.89,1.32-1.24.23-.05.66-.31.26.12,1.37-1.22,2.25-1.59,3.06-2.6.23-.05-.21.37,0,.3a2.5,2.5,0,0,1,.59-.51c.18-.06-.16.24-.36.45,1.45-1.17,1.4-1.54,1.33-1.86a4.31,4.31,0,0,0,1.59-1.37c.32-.13.82-.39-.07.36.36-.27,1.64-1.22,2.48-1.93a1.59,1.59,0,0,0,.51-.77c.07-.22.06-.34,0-.36a2.35,2.35,0,0,0,.1-1.25,3.07,3.07,0,0,0-.23-1,1.62,1.62,0,0,0-.58-.73,1,1,0,0,0-1.16.11l-.68.55.34-.22c-.27.58-.9.8-1.79,1.55v0c-2.21,1.5-.83.8-3,2.25l.22,0c0,.45-2,1.27-3.06,2.33l.49-.26c-.57.62-2.14,1-2.83,1.52-.16.09.19-.22.38-.39-1.85,1.18-.08.36-1.32,1.41-.31.09.1-.49-.77.18-.49.26-2.23,2.3-3.55,3,.32-.13.63-.25.09.28-.89.75-2.69,1.66-3.32,2.56-.13.07-.19.08-.21.07a32.71,32.71,0,0,0-2.48,2.36c-1,0-4.13,3.67-4.47,3.22l-2.11,1.72v-.09a10.43,10.43,0,0,0-2.17,2c-.34.22-.15,0-.14-.05a19.49,19.49,0,0,0-3.74,3.23H95.3c-.39.45-3.06,2.07-4.88,3.8,0,0,0-.09.16-.24-2.06,1.93-5.59,3.8-6,5l-1.35,1.28c1.91-1.45-.1.46.75-.07-.72.62-2,1.36-1.15.61l.16-.09c.11-.54-2.41,1.76-2.51,1.54L77.79,210l-3.35,2.59,3.21,2.87,2.55,2.26-.2-.54,1.16,1c.26.32.27.52-.56-.21a4.3,4.3,0,0,0,1.55,1.09c1.55,1.49-.85-.31-.35.13l.69.57-.13-.16a8,8,0,0,1,1.74,1.22c.6.59.21.41.45.64,0,0,.07.09.38.33l1.46,1.29-.45-.67c.72.48,1.38,1.21.86.43.75,1.15,5.39,4.86,5.93,5.47a27.19,27.19,0,0,1,3,2.44c-.25-.28-.26-.6.69.25-.68.08,1.62,1.69,2.16,2.64-.54-.78,2.78,2.32,1.91,1.12.77.73-.08.19.45.8,2,1.51,4.14,3.75,6.54,5.74.08,0-.25-.43.32-.07l1,1.33c.48.38.67.08,1.38,1-.09-.15-.21-.37.11-.11,4.43,4.25,9.64,8,14,12.51-.56-.64-.12-.29.36.13-.29-.3.12-.12.11-.24l1.81,1.89c.52.13,2.12,1.82,2.48,1.82l-.65-.51c1,.51-.75-1.47-.4-1.64-1.13-.56-2.14-2.47-4-3.45-.29-.34.36.16.24-.06a6.27,6.27,0,0,1-1.79-1.39l.12.05c-2.45-2.07-3.39-3.09-6.06-5.52l.09.31a8.88,8.88,0,0,1-.9-.95c-.85-.38,1.63,1.44.83,1.13-.54-.94-4.13-3.58-4.39-4.34-.9-.79.13.38-.77-.4l-.16-.29-.33-.09c-.57-.53-.78-.89-.74-1,.14.13.43.33.58.46-.68-.77-2.19-1.84-2.42-2.1l.82.8c-2.53-2.05-5.44-4.76-8-6.65l.13.22c-1.92-1.45-1.4-1.33-3.44-3l.09.05A10.94,10.94,0,0,1,96.44,230c.56.36-.83-1-.1-.48a11,11,0,0,0-2.56-1.63l-.21-.36A7,7,0,0,1,92,226.44c.89.62-.5-.71.52,0-1.89-2-3.3-2.45-4-3.61-1.21-.54,1.67,1.72,1.08,1.32.36.48-1-.47-1.61-1.07a24.1,24.1,0,0,0-2.5-2.8c.17.15.2.14.36.28-.56-.61-1.31-1-2-1.75-.58-.2-1-.87-1.31-.76l1.58,1.28a19.26,19.26,0,0,1-3.29-2.51,7.14,7.14,0,0,1,1,.58c-.36-.43-.85-.66-1.22-1.1.31-.12,1.91,1.57,3,2.21-.37-.49-1.91-1.37-1.23-1.21-.94-.27-1.62-1.47-3-2.21l.19-.07a11.57,11.57,0,0,1-1-.69l.75.35A7.17,7.17,0,0,1,78,213.48l-.31-.32a2.48,2.48,0,0,1-.22-.24.64.64,0,0,0-.2-.16,1.08,1.08,0,0,1,.15.14l.14.16c.12.13.12.17.08.18s-.29,0,.06.34l-.6-.45a3.22,3.22,0,0,1-.25-.23c-.12-.14-.14-.22-.12-.29l.55-.17a.67.67,0,0,0,.23-.1l.16-.11.21-.16.48-.4a6.41,6.41,0,0,1-.77.55c-.15.09-.14.06-.18.05s-.06,0,0-.12a13.54,13.54,0,0,1,1.6-1c1.72-1.42-.39.07.29-.61.73-.3.81-.75,1.53-1.42l.12.14c2.06-1.5.29-.72,2.17-2l-.6.8.89-.79-.06.31a13.83,13.83,0,0,1,2.3-1.9c-.32.09-.08-.36.8-1.07.67-.39-.23.41,1-.61a2.41,2.41,0,0,1-1.09,1c0,.09-.2.31-.22.41a19.62,19.62,0,0,0,2.09-1.64,4.3,4.3,0,0,1-.51.35l1.66-1.64c.32-.17.13.05-.06.27.35-.31.56-.57,1.09-1,0,.23.08.32-.64,1l1.62-1.51c.16,0,1-.57.81-.35,1-.69,2.17-2.09,3.51-3a2.81,2.81,0,0,1,.42-.43,30.69,30.69,0,0,0,3.68-2.91l1-.44c1.07-.92-1.29.61.49-.94,1.26-1.1.63-.21,1.13-.52a12.76,12.76,0,0,1,2.86-2.52C105,190.35,104.62,190.56,104.26,190.88Zm13.6-11c-.25.25-.7.76-1,.83C117.07,180.32,117.37,180.21,117.86,179.89Zm7.73-4.06a3.2,3.2,0,0,1,.87-.64A6.55,6.55,0,0,1,125.59,175.83ZM92.05,222.07l0,0C91.49,221.5,91.68,221.7,92.05,222.07Zm1.14,1.08c.13.09.14.06.11,0a3.2,3.2,0,0,1-.68-.54A1.57,1.57,0,0,0,93.19,223.15Zm-8.46-1.63-.2-.24C85.08,221.7,84.91,221.61,84.73,221.52Z"/><path class="cls-3" d="M127.79,173.76a.25.25,0,0,1,.17,0C128.05,173.64,128,173.61,127.79,173.76Z"/><path class="cls-3" d="M95.82,197.72l0,0a.1.1,0,0,0,0,.06Z"/><path class="cls-3" d="M85.27,207.51a3.47,3.47,0,0,1,.55-.32S85.67,207.21,85.27,207.51Z"/><path class="cls-3" d="M99.67,228.36l-.79-.62a4.73,4.73,0,0,1,.64.63S99.43,228.16,99.67,228.36Z"/><path class="cls-3" d="M105.53,234.91c.13.08.24.2.36.28l0-.09C105.44,234.7,105.07,234.46,105.53,234.91Z"/><path class="cls-3" d="M100,229.42c0,.17.47.54,1,1l-.09-.08C101.2,230.3,100.59,229.86,100,229.42Z"/><path class="cls-3" d="M101.13,230.5c.17.14.34.28.49.43C101.74,230.92,101.44,230.74,101.13,230.5Z"/><path class="cls-3" d="M94.76,224.38c.22.25.28,0,.38.16C95.55,224.64,93.31,223.26,94.76,224.38Z"/><polygon class="cls-3" points="100.08 230.17 100.02 229.87 99.62 229.72 100.08 230.17"/><path class="cls-3" d="M96,226.43l.82.78s.13,0,.27.15A8.29,8.29,0,0,0,96,226.43Z"/><path class="cls-3" d="M97.06,227.36a7.09,7.09,0,0,0,.7.57C97.61,227.8,97.29,227.53,97.06,227.36Z"/><polygon class="cls-3" points="98.89 229.21 98.66 228.96 98.07 228.43 98.89 229.21"/><path class="cls-3" d="M86.86,218.49l-1-.76c-.13,0,.1.22.46.5S87,218.66,86.86,218.49Z"/><path class="cls-3" d="M89.33,221.31a1.67,1.67,0,0,1-.32-.46l-.18.15Z"/><path class="cls-3" d="M86.59,219c-.14,0-1.47-1-.29,0C86.44,219,87.41,219.79,86.59,219Z"/><polygon class="cls-3" points="87.16 206.82 86.91 207.02 87.19 207.29 87.16 206.82"/><path class="cls-3" d="M99.33,196c-1.19.83-.12.39-1.22,1.12-.21.29.9-.59.67-.31C99.41,196.15,99.8,195.9,99.33,196Z"/><path class="cls-3" d="M98.78,196.77l-.31.32A3.51,3.51,0,0,0,98.78,196.77Z"/><polygon class="cls-3" points="127.77 259.03 128.43 259.7 128.05 259.21 127.77 259.03"/><path class="cls-3" d="M129.31,260v.33a2.48,2.48,0,0,1,.37.16,1.27,1.27,0,0,0,.68.1,1.17,1.17,0,0,1-.8-.32A1.29,1.29,0,0,1,129.31,260Z"/><path class="cls-3" d="M120.19,178.66l0-.09a2.28,2.28,0,0,0-.67.44Z"/><polygon class="cls-3" points="110.16 186.42 110.33 186.29 109.88 186.37 110.16 186.42"/><path class="cls-3" d="M102,193.27c.35-.26.72-.62,1.06-.88C102.36,193,101.75,193.13,102,193.27Z"/><path class="cls-3" d="M370.82,258.24c-.33,0-.64-.38-.78-1a2.55,2.55,0,0,1,.44-2.23l50.64-44.16L370.5,170.2A2.52,2.52,0,0,1,370,168c.17-.87.67-1.29,1.1-.95l54.38,43.66L371.15,258.1A.48.48,0,0,1,370.82,258.24Z"/><path class="cls-3" d="M371.68,258.85a4.17,4.17,0,0,1-.76.37c-.07,0,0,.09-.1.1a1.39,1.39,0,0,0,1-.39c.09-.11.05-.11,0-.13a.06.06,0,0,0-.07,0C371.7,258.82,371.66,258.85,371.68,258.85Z"/><polygon class="cls-3" points="376.67 254.03 376.62 254.16 377.28 253.37 376.67 254.03"/><path class="cls-3" d="M381.52,249.8c-.64.2-1.73,1.57-2.66,2.25l-.18.08-.25.5C379.46,251.69,380.73,250.39,381.52,249.8Z"/><path class="cls-3" d="M384.48,248c-.23.06.5-.56-.62.5l.12-.08Z"/><path class="cls-3" d="M384,248.41c-.5.45.39-.22,0,0Z"/><path class="cls-3" d="M386.3,246.31l-.61.66c.18-.08.79-.59.59-.36C386.94,246,386.76,246.05,386.3,246.31Z"/><path class="cls-3" d="M386.81,245.61l-.32.33A.87.87,0,0,0,386.81,245.61Z"/><path class="cls-3" d="M385.8,246.65l.69-.71c-.13.05-.2,0-.32.32C386.18,246.15,386.08,246.33,385.8,246.65Z"/><path class="cls-3" d="M385.36,247c-.42.29-.93.68-.31,0C383.78,248.16,384.1,248.13,385.36,247Z"/><path class="cls-3" d="M381.58,249.38l-.55.38-.38.45C380.84,250,381.67,249.42,381.58,249.38Z"/><path class="cls-3" d="M390.58,242.76c0-.08-.33.09-.42.08l-.46.48A3.8,3.8,0,0,1,390.58,242.76Z"/><path class="cls-3" d="M390.16,242.84l.67-.73C390.16,242.68,390.07,242.82,390.16,242.84Z"/><polygon class="cls-3" points="386.74 245.28 385.65 246.5 386.97 245.07 386.74 245.28"/><polygon class="cls-3" points="393.42 240.29 393.09 240.76 393.71 239.96 393.42 240.29"/><path class="cls-3" d="M395.29,238.64c-.24.35.55-.24.26.1a11.65,11.65,0,0,0,1.21-1.32A9.39,9.39,0,0,1,395.29,238.64Z"/><path class="cls-3" d="M397.34,236.75l-.58.67A6.19,6.19,0,0,0,397.34,236.75Z"/><path class="cls-3" d="M392.12,241a1.68,1.68,0,0,0,.69-.39l-.4.14Z"/><path class="cls-3" d="M392.4,240.78h0l.64-.55Z"/><path class="cls-3" d="M392.05,241.1l.07-.07A.08.08,0,0,0,392.05,241.1Z"/><path class="cls-3" d="M388.78,243.69c.38-.45,1.22-1.31.25-.65C388.79,243.4,389.35,243,388.78,243.69Z"/><path class="cls-3" d="M391.55,241.26l-.81.66s.22-.06,0,.16Z"/><polygon class="cls-3" points="391.9 240.89 391.55 241.26 391.85 241.02 391.9 240.89"/><path class="cls-3" d="M395.89,237.82a12.12,12.12,0,0,1,1.08-1c-.47.37-1,.76-1.39,1.15C395.55,238,395.41,238.25,395.89,237.82Z"/><path class="cls-3" d="M394.19,239.25l.07-.07C394.2,239.21,394.16,239.24,394.19,239.25Z"/><polygon class="cls-3" points="401.12 233.15 401.03 233.19 401.04 233.22 401.12 233.15"/><path class="cls-3" d="M395.48,238a3.4,3.4,0,0,0-.69.68c.24-.23.5-.47.79-.72C395.59,237.87,395.59,237.86,395.48,238Z"/><path class="cls-3" d="M398.45,235.69c-.2.13-.42.28-.64.45A3.07,3.07,0,0,0,398.45,235.69Z"/><path class="cls-3" d="M394.4,239.11l0,0C394.49,239.09,394.46,239.09,394.4,239.11Z"/><path class="cls-3" d="M394.4,239.11c.16-.17.27-.32.39-.47-.2.19-.38.37-.53.54Z"/><path class="cls-3" d="M401.7,231.28c0,.17-.76,1.05-1.64,1.6-.68.74.13.68,1,.31,0-.07,0-.12.67-.86-.33.17-1.86,1.36-1.29.69a4.85,4.85,0,0,1,1.44-1.08c-.55.23,1.14-1.35.73-1.36l-.84.87C401.69,231.43,402,231.09,401.7,231.28Z"/><path class="cls-3" d="M399.54,234.47l-.31.29a9.92,9.92,0,0,1,1.24-.81c.49-.52.56-.66.57-.73l-1.6,1.36Z"/><path class="cls-3" d="M397.79,236c.14-.34.87-1.06.28-.78-.93.83-.57.67-1.09,1.22,1.5-1.36-.37.45.78-.44-.28.28-.54.52-.79.75q.43-.35.84-.63l-.05,0h0c-.08,0-.11.05,0,0l0,0a.26.26,0,0,1,0-.11c.46-.36.1,0,0,.11s0,0,0,0h0l1.47-1.4C398.89,235,398.49,235.38,397.79,236Z"/><path class="cls-3" d="M389.62,242.07c.05,0,.06,0,.07,0S389.8,241.92,389.62,242.07Z"/><path class="cls-3" d="M390.31,241.6a2.69,2.69,0,0,1-.52.54c-.34.24-.05-.06-.1-.08-.19.22-.68.75.05.21l.09-.11a6.82,6.82,0,0,1,1.48-.91A2.89,2.89,0,0,0,390.31,241.6Z"/><path class="cls-3" d="M394.06,238.74l1.22-1.16-.74.45.09,0C393.89,238.67,394.11,238.62,394.06,238.74Z"/><polygon class="cls-3" points="401.32 233.08 401.26 233.36 401.83 232.54 401.32 233.08"/><polygon class="cls-3" points="402.95 231.63 402.99 231.8 403.36 231.35 402.95 231.63"/><path class="cls-3" d="M385.69,181.25l.41.28C385.91,181.39,385.78,181.31,385.69,181.25Z"/><path class="cls-3" d="M382.9,179h-.11C382.94,179.08,383,179.1,382.9,179Z"/><path class="cls-3" d="M408.21,195.63c-.47-.56-1-1.23-1-1l.07.27A6.29,6.29,0,0,1,408.21,195.63Z"/><path class="cls-3" d="M378.93,173.37l.14.17.47.18Z"/><path class="cls-3" d="M378.12,173.57l-.68-.67C377.59,173.06,377.8,173.28,378.12,173.57Z"/><path class="cls-3" d="M401,193.35l.55.23C400.88,193,401.14,193.33,401,193.35Z"/><path class="cls-3" d="M419.79,216.87c.51-.36.9-.66,1.23-.94C420.39,216.35,419.85,216.64,419.79,216.87Z"/><path class="cls-3" d="M383.51,181.71c.26.17.38.23.39.19C383.64,181.73,383.49,181.64,383.51,181.71Z"/><path class="cls-3" d="M422.37,214.75l-.27.19c-.33.32-.66.63-1.08,1A6,6,0,0,0,422.37,214.75Z"/><path class="cls-3" d="M388.36,240.62l-.13.1S388.29,240.7,388.36,240.62Z"/><path class="cls-3" d="M371.72,253l.64-.57A7.56,7.56,0,0,0,371.72,253Z"/><path class="cls-3" d="M409.63,225.91c-.35.31-.05.06,0,0Z"/><path class="cls-3" d="M407.51,226.9c.06-.07.1-.14.08-.18A.29.29,0,0,1,407.51,226.9Z"/><path class="cls-3" d="M425.17,211l0,0C425.06,211,425.08,211,425.17,211Z"/><path class="cls-3" d="M409.05,226.31l.48-.35Z"/><path class="cls-3" d="M409.17,226.3l-.31.26C408.83,226.62,408.88,226.6,409.17,226.3Z"/><path class="cls-3" d="M410.11,225.47c-.2.18-.39.34-.58.49.08-.06.11-.07.1-.05Z"/><path class="cls-3" d="M416.7,215.34l-.08,0C416.31,215.75,416.46,215.61,416.7,215.34Z"/><path class="cls-3" d="M397.75,189.39l0,0-.05,0Z"/><path class="cls-3" d="M396.37,188.44a4,4,0,0,1,1.37.93l-.13-.71Z"/><path class="cls-3" d="M392.4,186.58l-.82-.85c1.25.7,2,1.4,1.27.56-.45.29-3.58-2.81-4-2.51l-.53-.57c.17.14.22.14.38.28-1-1.13-1.1-.41-2.56-1.67-.5-.46-.82-.81-.42-.57l-1.25-.84c-.33-.28-.2-.28.14,0l-1.81-1.4h0c-.3-.14-1-.51-1.27-.7-.41-.42.26.14.18,0l-1.06-.7c-.32-.42.58.14,1.25.7-.61-1.14-.9-.56-2.71-2.39l1,.7a17.6,17.6,0,0,0-2.15-2.2c.19.28,1.83,2.05.67,1.29a6.36,6.36,0,0,0-1.3-1c.1-.15-.49-.57-1.2-1.13l.2-.14a6.73,6.73,0,0,0-1.34-.7c-.84-.7-.9-1-1-1.27-1.34-1.12.75,1-.89-.27a19.13,19.13,0,0,0-2-1.61.59.59,0,0,1-.23-.24,2.06,2.06,0,0,1-.18-.59c.09-.78.14.13.21-.15a2.53,2.53,0,0,1-.1-.67c.06-.14.1-.07.12,0,0-.22,0-.22,0-.29a.15.15,0,0,1,0-.1s0,0,0-.11,0-.06-.05.05c0-.09.2,0,.39.23s.43.44.7.71a7.9,7.9,0,0,0,1.85,1.52c.24.29-.23,0-.2.15,1.71,1.12,1.45,1,2.91,1.82l1,1c-.7-.8.47-.13,1.49.47-.23-.3-.43-.56-.57-.72l1.53,1.07c.15.17-.05.11-.35,0l.31.17c.46.49.1.38-.35.18l-.43-.53c-.45-.18-.89-.32-.9-.15a3.42,3.42,0,0,1,.51.33c-.11-.05-.2-.07-.17,0a2.07,2.07,0,0,0,.5.28l.16.47h.15l1.79,1.65a41.6,41.6,0,0,1,5.19,3.17c-.66-.28-.32.16-.49.32-.44-.67-1.74-1.27-2.83-2.2.57.49.38.47.2.38l2.14,1.43c-.17.11.33.45.8.93-.16-.61,1.65,1,2.53,1.56,0,.14-.3.08-1.27-.74.91,1.1,1.68.79,2.61,1.84a1.79,1.79,0,0,0-.5-.34c.63.37,2,1.55,1.57,1.37l-.25-.19c1.58,1.32,4.89,3.93,5.33,3.87a1.31,1.31,0,0,1-.59.1l3.53,1.47c-.42,0,.14,1.29-1.29.34a11.17,11.17,0,0,0,1.67,1.33c-.23-.24-.4-.83,0-.56a22.49,22.49,0,0,0,1.62,1.84c-.35-.36.35-.35,1,.16-.14,0-.21.37-.47.22l1.8.91c-.43-.25-.29.22,0,.59-.1-.19,1.33,1.07,1.76,1.37l-.59-.6c1.7,1.45,2.09.92,3.8,2.32-.27-.1-.85,0,0,.74a13.87,13.87,0,0,1,4.05,1.72l.22.33,1.25.83a48.05,48.05,0,0,1-4.68-2.13c.59.6.09.26,1.07,1,.27.37-.64-.29-.93-.51l2.22,1.87c.06-.27,1.89,1.2,1.94,1l-2.63-1.77c.06-.27,1.87.59,3.45,1.91.34.41-.59.1-.61.2a10.24,10.24,0,0,1,1.74,1.26l-.77-.45c.84.8,1.67.92,2.6,2,.36.31.9,1.14,1.06,1.08-.43-.71,0-1.5.55-1.34.11.12,1.77,1.78,2.1,2.23.47.66-1.25-.32-.85.25.07,0,.46.16.61.26.36.35-.29,0,.58.69.3-.09,1.7,1.39.53.15.87.61.85.75,1.83,1.52-.17-.34,1,.13,2.14.92l-.08.08c-.05,0-.36.12-.5.19-1.62,1.38-2.6,2.08-4.12,3.41-.18.07-1,.66-.73.3a5.64,5.64,0,0,1-.8.89c-1.06.62,1-.95.16-.54a13.31,13.31,0,0,1-1.7,1.87c.36,0,1.58-1.32,2.2-2,.21.23-.75,1.5-2.25,3-1.22,1.17-.68.33-.87.56-2.42,2-1.67,2.18-3.8,3.74-.92.53-.3-.27-.57-.23,1-1,1.67-1.29,2.37-1.91l-.93.69a9.23,9.23,0,0,1,1.36-1.27c-.78.44-4.05,3.49-6,5-.29.33-.8.88-.48.71l.56-.53c.64-.35-.95,1.12-.16.54a20.24,20.24,0,0,1-2.63,2.55h-.35a3.86,3.86,0,0,0,1.07-.85c-.39.48-1.89,1.24-2.2,1.9l.88-.55a21.15,21.15,0,0,1-2.54,2.59c.59-.21.21-.21,1.07-.62-.81.28,2.51-2.16,1.31-1.58.92-.39,1.32-1,2.42-1.58-.08,0-.42.17.42-.51a1.73,1.73,0,0,1,.13-.21l.06,0-.05,0s0,0,0,0a1.9,1.9,0,0,1-.49.28c.29-.48,1.6-1.61,2-2.07s-.15.25.17.08l.57-.68c.17.07,1.47-.91.39.16l1-.89a14.7,14.7,0,0,0,2-1.66c.51-.39,1.1-1.21.77-.74l1.54-1.49,0,0a55.35,55.35,0,0,1,5.12-4.42,23.8,23.8,0,0,1,2-1.77l.27,0c.25-.25.46-.42,1.17-1l1.72-1.45a9.42,9.42,0,0,0-1-.7,4.87,4.87,0,0,0-.53-.57l-.41-.37-.44-.39c-.36-.33-.81-.69-1.27-1-.94-.73-2-1.47-2.57-2l-.16.11c-.86-.7-1.72-1.32-2.84-2.12l0,.18c-1-.63-2.29-2-3.76-3.15a2.62,2.62,0,0,1,.73.58c-1.5-1.7-3.85-2.74-5.25-4.23a4.52,4.52,0,0,1-1-.76l.1.07-.16-.13-.49-.51.41.44c-.31-.24-.78-.6-1.26-.93l-.08-.29-.11-.08c-.4-.41-.41-.22-.26.07a5.6,5.6,0,0,0-.66-.39c-.18-.52-1.25-.88-1.55-1.51-.4-.13-2.34-1.74-2.78-1.68,0,0-.11-.17.14,0a9,9,0,0,0-1.47-1.15l-.07-.35-1.29-.65c-.59-.64-.81-.93,0-.53-1.77-1.08-1.36-1-2.89-1.85l.16-.06a11.22,11.22,0,0,1-1.61-1.19c-.92-1.09-5.37-4.35-8-6.8.27.77-1.18-1.2-1.5-1-.1-.21-.45-.57.06-.28-1.49-1.07-2-1.85-3.21-2.42-.1-.21.4.13.3,0a2.62,2.62,0,0,1-.62-.46c-.11-.17.26.1.51.24-1.46-1.15-1.81-1-2.1-.88a4.36,4.36,0,0,0-1.69-1.26c-.2-.28-.56-.7.37,0-.5-.42-3-2.61-3.23-2.47a4.81,4.81,0,0,0-.85-.67c-1.14-.93-1.22-1-2.36-1.91l.29.28a1.79,1.79,0,0,1-.84-.49l-.46-.41a1.52,1.52,0,0,0-.37-.27.75.75,0,0,0-.71,0l0-.06a1.5,1.5,0,0,0-.75.82,2.33,2.33,0,0,0-.17.58,2.2,2.2,0,0,0,0,.64c0,.16,0,.31.07.59a3.51,3.51,0,0,0,.12.55,1.77,1.77,0,0,0,.5.84l.12.11a2,2,0,0,0,0-.24c.45-.13,1.67,1.64,3,2.48l-.36-.42c.73.42,1.48,1.86,2.1,2.42.12.14-.26-.13-.47-.27,1.56,1.54.37,0,1.67,1,.16.28-.5,0,.34.71.36.42,2.74,1.67,3.76,2.8-.2-.28-.39-.56.24-.15.93.7,2.22,2.26,3.23,2.67.1.11.12.17.11.19.75.5,2.34,1.7,2.86,1.91.25,1,4.49,3.22,4.11,3.65l2.15,1.68h-.09a9.91,9.91,0,0,0,2.47,1.68c.29.29,0,.14,0,.15a19.93,19.93,0,0,0,4,2.94l.06.28c.52.28,2.69,2.53,4.78,3.93,0,0-.1,0-.27-.11,2.33,1.59,4.93,4.62,6.16,4.74l1.55,1c-1.84-1.54.46,0-.24-.71.76.56,1.78,1.69.85,1l-.12-.14c-.55,0,2.25,2,2.05,2.11,1.12.89,2.21,1.79,3.3,2.69l1.61,1.34.54.46.38.34-.53.43-.88.73c-.67.57-1.34,1.15-2,1.71l.57-.13-1.18,1c-.34.21-.55.19.29-.52a4.22,4.22,0,0,0-1.29,1.37c-1.7,1.34.43-.79-.08-.36l-.66.61.17-.11a7.63,7.63,0,0,1-1.45,1.55c-.67.51-.43.16-.69.37,0,0-.1,0-.39.32l-1.48,1.26.73-.35c-.58.65-1.39,1.2-.55.79-1.24.58-5.56,4.67-6.24,5.11a26.57,26.57,0,0,1-2.84,2.65c.31-.21.64-.17-.34.65,0-.69-1.9,1.37-2.92,1.77.85-.42-2.69,2.42-1.38,1.73-.82.67-.17-.1-.85.34-1.78,1.81-4.29,3.57-6.6,5.68,0,.08.47-.19,0,.32l-1.46.84c-.44.43-.17.66-1.17,1.23.15-.06.39-.16.09.13-4.83,3.78-9.26,8.42-14.35,12.06.72-.46.31-.08-.17.34.33-.25.09.13.22.15l-2.13,1.52a.78.78,0,0,1-.15.22c-.07.09-.14.16-.3.33a2.48,2.48,0,0,0-.54,1.16,2.31,2.31,0,0,0,.16,1.68,3.37,3.37,0,0,1-.16-.94c.17.63.27.15.48-.33a1.91,1.91,0,0,1,.41-.63c.15-.14.28-.16.34-.08,0-.2.34-.44.64-.69s.67-.48,1.05-.74a8.81,8.81,0,0,0,2.17-1.95c.38-.24-.21.33,0,.24a6.67,6.67,0,0,1,1.64-1.58l-.08.11c2.4-2.14,3.54-2.93,6.32-5.22l-.32,0a8,8,0,0,1,1.07-.76c.49-.79-1.65,1.42-1.24.66,1-.4,4.12-3.59,4.92-3.73.9-.79-.4.07.5-.71l.31-.12.13-.31c.61-.5,1-.65,1.08-.6-.15.12-.39.37-.54.51.85-.56,2.13-1.91,2.42-2.1l-.91.7c2.39-2.22,5.48-4.72,7.7-7l-.24.1c1.71-1.7,1.51-1.2,3.45-3l-.06.07a13.14,13.14,0,0,1,1.4-1.37c-.44.51,1.07-.68.48,0a11.19,11.19,0,0,0,2-2.31l.39-.16a6.81,6.81,0,0,1,1.32-1.45c-.74.8.77-.39,0,.52,2.28-1.59,2.89-2.93,4.14-3.42.7-1.13-1.94,1.41-1.46.88-.53.29.6-.91,1.28-1.45a22.47,22.47,0,0,0,3.12-2.08c-.17.15-.16.18-.33.32.69-.47,1.14-1.17,2-1.72.27-.55,1-.86.93-1.19l-1.49,1.39a19.32,19.32,0,0,1,3-2.91,6.88,6.88,0,0,1-.71.86c.48-.3.77-.75,1.26-1.06.08.33-1.82,1.68-2.6,2.66.53-.3,1.62-1.7,1.36-1.05.41-.89,1.69-1.4,2.61-2.62l.05.2a7.39,7.39,0,0,1,.81-.85l-.45.69a4.45,4.45,0,0,1,.48-.49l.29-.25.42-.34,1.8-1.43c-.35-.3-.73-.61-1.13-.9l1.1.9c-.73.6-.75.55-.76.48s0-.16-.58.25l.76-.72a11.26,11.26,0,0,1-1.23-1c-.13-.13-.24-.26-.35-.38s-.25-.28-.3-.36a8.06,8.06,0,0,0-1.86-1.76c.37.27,1.27,1.16.66.78a12.92,12.92,0,0,1-1.34-1.34c-1.77-1.37.15.36-.66-.15-.46-.65-.91-.62-1.72-1.18l.11-.14c-1.92-1.69-.77-.13-2.47-1.68l.92.41-1-.7h.32a14.66,14.66,0,0,1-2.36-1.82c.16.28-.33.15-1.21-.56-.54-.56.44.14-.83-.84a2.32,2.32,0,0,1,1.19.84c.1,0,.35.13.45.14a18.87,18.87,0,0,0-2.06-1.69,5.25,5.25,0,0,1,.46.42l-2-1.25c-.24-.29,0-.15.28,0-.38-.28-.69-.42-1.23-.84.23,0,.29-.14,1.09.41l-1.82-1.25c-.08-.14-.78-.85-.52-.71-.9-.83-2.52-1.66-3.72-2.77a2.57,2.57,0,0,1-.51-.31,30.51,30.51,0,0,0-3.65-2.94l-.64-.85c-1.14-.84.88,1.13-1-.27-1.36-1-.35-.57-.76-1a12.77,12.77,0,0,1-3.09-2.24C391.73,186,392,186.3,392.4,186.58Zm-13.7-10.85a3.74,3.74,0,0,1,1,.75C379.28,176.4,379.11,176.14,378.7,175.73Zm2-.48a3.22,3.22,0,0,1-.82-.71A6.27,6.27,0,0,1,380.72,175.25Zm32.64,47.21,0,0C414,222,413.78,222.14,413.36,222.46Zm-1.23,1c-.1.12-.08.13,0,.11a3.2,3.2,0,0,1,.62-.6A1.79,1.79,0,0,0,412.13,223.43Zm0-5.75.26-.17C412,218,412.06,217.84,412.17,217.68Z"/><path class="cls-3" d="M378.22,173.55c-.06-.08-.06-.12-.05-.16S378,173.35,378.22,173.55Z"/><path class="cls-3" d="M400.93,193.31l0,0s0,0,.07,0Z"/><path class="cls-3" d="M420.49,207.62a3,3,0,0,1-.43-.46S420.11,207.3,420.49,207.62Z"/><path class="cls-3" d="M406.06,229.12l.73-.7a4.25,4.25,0,0,1-.72.55S406.3,228.91,406.06,229.12Z"/><path class="cls-3" d="M398.76,234c-.1.11-.24.21-.33.32l.09,0C399,234,399.27,233.61,398.76,234Z"/><path class="cls-3" d="M405,229.28c-.16-.06-.6.39-1.11.87l.09-.08C403.93,230.37,404.45,229.82,405,229.28Z"/><path class="cls-3" d="M403.74,230.27l-.49.43C403.24,230.81,403.46,230.54,403.74,230.27Z"/><path class="cls-3" d="M410.69,224.81c-.27.19,0,.28-.21.36C410.33,225.56,412,223.53,410.69,224.81Z"/><polygon class="cls-3" points="404.21 229.28 404.52 229.25 404.72 228.88 404.21 229.28"/><path class="cls-3" d="M408.49,225.73l-.88.7s-.06.12-.19.25A9.29,9.29,0,0,0,408.49,225.73Z"/><path class="cls-3" d="M407.42,226.68a7.3,7.3,0,0,0-.66.61C406.91,227.16,407.22,226.88,407.42,226.68Z"/><polygon class="cls-3" points="405.33 228.22 405.61 228.04 406.22 227.53 405.33 228.22"/><path class="cls-3" d="M417.63,217.81l.89-.84c.05-.14-.23.06-.56.37S417.44,217.89,417.63,217.81Z"/><path class="cls-3" d="M414.49,219.87a1.62,1.62,0,0,1,.5-.25l-.12-.2Z"/><path class="cls-3" d="M417.15,217.47c.05-.13,1.22-1.31.06-.27C417.16,217.33,416.27,218.17,417.15,217.47Z"/><polygon class="cls-3" points="419.41 205.93 419.65 206.13 419.86 205.8 419.41 205.93"/><path class="cls-3" d="M406.13,196.44c1.07,1,.41,0,1.37.95.32.14-.78-.75-.46-.59C406.3,196.32,406,196,406.13,196.44Z"/><path class="cls-3" d="M407,196.8l.38.24A2.29,2.29,0,0,0,407,196.8Z"/><path class="cls-3" d="M369.11,255.88a4,4,0,0,0-.1,1.2,4,4,0,0,1,.1-.78A2.94,2.94,0,0,1,369.11,255.88Z"/><path class="cls-3" d="M369.67,258.07a1.91,1.91,0,0,0,0,.42,1.54,1.54,0,0,0,1.17.41,1.25,1.25,0,0,1-1.15-.83Z"/><path class="cls-3" d="M377,173.72h-.09a2.42,2.42,0,0,0,.57.56Z"/><polygon class="cls-3" points="386.75 181.81 386.59 181.66 386.77 182.09 386.75 181.81"/><path class="cls-3" d="M395.23,188.25c-.33-.28-.76-.56-1.09-.84C394.9,188,395.15,188.54,395.23,188.25Z"/><path class="cls-3" d="M94.47,317.78c-.16,12-13,22.45-22.74,18.79a1.56,1.56,0,0,1-1.14-1.31,2.66,2.66,0,0,1-1.69-2.34c0-2.31,3.37-11.48,8.31-19.82,1.41-2.38,6.8-.71,5.8,1a97.38,97.38,0,0,0-8.49,20,1.1,1.1,0,0,0,1.08.68c5,.07,12.16-10.18,12.27-18.08.06-4.55-2.39-6.68-6.42-6.73-6.56-.09-12.45,6.35-12.5,9.72,0,1.64-4.56,1.11-4.51-2.38,0-3,6.22-9.63,17.27-9.48C88.61,307.91,94.56,311.22,94.47,317.78Z"/><path class="cls-3" d="M123.45,328c-1.17,1.54-6.5,8.36-12,8.29-2.24,0-3.67-1.22-3.64-3.07a4.92,4.92,0,0,1,.25-1.39c-2.1,2.29-4.89,4.35-8.12,4.31-4.43-.05-7-5-3.38-13.87,3.39-8.37,9.95-12.87,15-12.8,3.8,0,4.51,2.58,3.9,5.85.64-1,1.29-2,2-3,1.58-2.33,6.86-.71,5.8,1-5,7.8-9.73,18.17-7,18.2,2.19,0,4.7-2.84,6-4.29a.86.86,0,0,1,1.33.1A.52.52,0,0,1,123.45,328Zm-12.72-4.33c2.66-5.05,3.41-9.75,1.69-10.49s-5.38,2.79-8,7.88-3.46,9.76-1.69,10.49S108,328.76,110.73,323.67Z"/><path class="cls-3" d="M157.34,328.44c-1.23,1.54-6.56,8.37-12,8.29-2.3,0-4-1.22-3.93-3.07,0-2.53,5.24-14.06,6.67-17.2,1.36-2.84,2.88-5.26.64-5.29-2.7,0-7.74,6.42-10,10.63-2.43,5.44-4.09,9.54-5.64,13.85-.66,1.8-5.77.68-5.73-2,0-2.31,3.33-8.49,7.3-17.35,1.25-2.89,2.67-5.81.42-5.84-3.39-.05-8,6.71-8.07,10.07,0,1.64-4.56,1.12-4.51-2.37,0-3,5-9.78,12.49-9.68,4.15.05,6.37,2,6.62,4.71,2-2.54,4.78-4.56,8.29-4.52,5.17.07,7,4,4.89,8.82C153.29,320.94,148,332,150.1,332s4.7-2.84,6-4.29a.84.84,0,0,1,1.32.1A.52.52,0,0,1,157.34,328.44Z"/><path class="cls-3" d="M174.12,311.81c-3.54,6.05-9.31,20.48-10,23.63-.42,1.84-5.47.68-5.44-2,0-2.23,6.2-16.7,10-23.67-2.81-1.26-4.48,3.3-7.22,6.21-1.75,1.87-5.81-.2-4.75-2.33,2.42-4.72,7.71-8.52,13-5.17C171.64,307.58,174.94,310.31,174.12,311.81Z"/><path class="cls-3" d="M222.08,307.41,216.68,340a1.9,1.9,0,0,1-2,1.63h-5.14a1.88,1.88,0,0,1-1.83-1.28L202.9,327l-5.29,13.36a1.75,1.75,0,0,1-.67.87,1.64,1.64,0,0,1-1.22.41h-5.08a1.91,1.91,0,0,1-2-1.63l-5.39-32.56a1.32,1.32,0,0,1,.25-1,1.06,1.06,0,0,1,.77-.3h6.61c1,0,1.53.36,1.63,1.12l2.9,18.11,3.66-10a1.7,1.7,0,0,1,1.68-1.37h3.81a1.69,1.69,0,0,1,1.68,1.37l3.16,10,3.46-18.11a1.09,1.09,0,0,1,.56-.92,2,2,0,0,1,1-.2H221a1.23,1.23,0,0,1,.76.3,1,1,0,0,1,.31.72Z"/><path class="cls-3" d="M227.32,310.58a4.37,4.37,0,0,1,4.42-4.44H252.5a1.23,1.23,0,0,1,1.33,1.33v5a1.06,1.06,0,0,1-.36.86,1.25,1.25,0,0,1-1,.36H233.73a2.79,2.79,0,0,1,2.8,2.76v2.14a1.54,1.54,0,0,0,1.52,1.58h11.09a1.23,1.23,0,0,1,1.33,1.33v4.59a1.29,1.29,0,0,1-1.33,1.33H233.73a2.8,2.8,0,0,1,2.8,2.65v2.4a1.54,1.54,0,0,0,1.52,1.58h14.86a1.19,1.19,0,0,1,1.32,1.33v5a1.11,1.11,0,0,1-.35.92,1.37,1.37,0,0,1-1,.35H228.59a1.41,1.41,0,0,1-1.27-1.27Z"/><path class="cls-3" d="M259.93,310.53a4,4,0,0,1,.46-2,4.43,4.43,0,0,1,4-2.45h12.51c7.07,0,12.67,2.5,12.67,10.15a7.57,7.57,0,0,1-4.12,6.84,8.15,8.15,0,0,1,4.88,7.75c0,8-6.15,10.82-13,10.82H261.2a1.41,1.41,0,0,1-1.27-1.27Zm15.87,9.64c2.29,0,3.87-1.33,3.87-3.67a3.37,3.37,0,0,0-1.07-2.71,4.57,4.57,0,0,0-2.8-.86h-9.15a2.77,2.77,0,0,1,2.8,2.7v3.06a1.55,1.55,0,0,0,1.52,1.48Zm.46,14.59c2.5,0,4.12-1.37,4.12-3.93a3.88,3.88,0,0,0-4.12-4h-9.61a2.78,2.78,0,0,1,2.8,2.71v3.72a1.53,1.53,0,0,0,1.52,1.53Z"/><path class="cls-3" d="M328.83,315.6c0,11.83-9.4,22.26-16.64,18.79a1.49,1.49,0,0,1-.85-1.28,2.64,2.64,0,0,1-1.28-2.28c0-2.27,2.38-11.33,5.95-19.61,1-2.36,5-.79,4.3.87a115.69,115.69,0,0,0-6.08,19.81c.17.42.39.67.81.67,3.66,0,8.89-10.19,8.89-18,0-4.47-1.84-6.53-4.82-6.53-4.85,0-9.15,6.41-9.14,9.72,0,1.62-3.37,1.16-3.37-2.27,0-3,4.51-9.56,12.68-9.56C324.39,306,328.82,309.15,328.83,315.6Z"/><path class="cls-3" d="M347.73,316.62c-1,2-4.89,1.08-4.43-1.16.73-3.47,2.94-7.69,1.58-7.69-1.88,0-7.11,5.05-7.11,9.44,0,2.64,2.9,2.43,3.54,2.43s1.36,1-.51,1.49a3.71,3.71,0,0,1-.81.13,5.17,5.17,0,0,1-1.07.08c-1.66,0-4.85,2.94-4.85,6.17a3.1,3.1,0,0,0,3.07,3.26c2.6,0,5.92-3.23,6.6-7.86.21-1.57,3.61,0,3,2.44a12.23,12.23,0,0,1-11.11,8.24c-3.74,0-6.81-2.61-6.81-6.08a7.37,7.37,0,0,1,6.93-7.53,4.76,4.76,0,0,1-2.22-4.05c0-5.05,5.4-9.89,10.26-9.9C349.64,306,350,311.94,347.73,316.62Z"/><path class="cls-3" d="M362,310.57c0-1.28-.69-2.07-1.66-2.07s-2.6.92-2.6,3.73c0,5.71,4.52,10.33,4.52,15s-4.42,6.41-7.4,6.41a6.34,6.34,0,0,1-6.48-6.36c0-2.44,1.11-3.52,2.26-3.52,1.53,0,2.51,1.28,2.51,3,0,1.07.18,4.71,2.18,4.71,1.53,0,2.08-1.41,2.08-3.18,0-3.77-4.69-9.1-4.69-14.15,0-5.29,3.74-7.94,7-7.94,4.38,0,6.13,3.09,6.13,5.49,0,2.2-.85,5.67-3.4,5.67-1.36,0-2.09-.66-1.7-1.49A13.07,13.07,0,0,0,362,310.57Z"/><path class="cls-3" d="M378.9,309.28a179.66,179.66,0,0,0-7.18,23.37c-.3,1.82-4.05.75-4.05-1.86,0-2.19,4.42-16.5,7.18-23.41-2.08-1.2-3.27,3.31-5.27,6.21-1.28,1.86-4.3-.13-3.54-2.24,1.74-4.67,5.62-8.48,9.58-5.26C377,305.14,379.49,307.79,378.9,309.28Z"/><path class="cls-3" d="M395.51,322.13c-.51,1.45-2.12,7.49-3.52,11.87-1.66,5.26-3.91,7.74-7.75,7.74-4.85,0-8.81-5-7.75-7.81,1-2.61,4.17-.91,4.17.2,0,4.22,2.18,5.71,3.54,5.71,1.83,0,2.81-4.06,4.12-9.52a4.68,4.68,0,0,1-3.44,2.16c-3.07,0-6.44-1.9-6.44-7.2,0-9.22,7.06-19.27,13.1-19.28,5.88,0,6.22,5.91,4,10.59-1,2-4.9,1.08-4.47-1.16.72-3.47,3-7.69,1.57-7.69-2.34,0-9.11,8.94-9.1,18,0,3.1,1.15,3.88,2.22,3.88,2,0,3.48-4.05,5-8.56a1,1,0,0,1,.17-.38C392.23,317.09,396,320.68,395.51,322.13Z"/><path class="cls-3" d="M424.09,325.21c-.9,1.53-4.77,8.32-8.81,8.32a2.81,2.81,0,0,1-2.94-3c0-2.49,3.74-13.9,4.76-17,1-2.81,2.08-5.21.42-5.21-2,0-5.66,6.42-7.32,10.59-1.74,5.38-2.93,9.44-4,13.7-.47,1.78-4.26.74-4.26-1.86,0-2.28,2.38-8.4,5.22-17.17.9-2.85,1.92-5.75.25-5.75-2.51,0-5.87,6.71-5.86,10,0,1.62-3.37,1.17-3.37-2.27,0-3,3.57-9.68,9.15-9.68a4.58,4.58,0,0,1,4.94,4.54c1.49-2.52,3.49-4.55,6.09-4.55,3.83,0,5.19,3.8,3.71,8.6-1,3.39-4.81,14.31-3.27,14.31s3.44-2.85,4.38-4.3a.55.55,0,0,1,1,.08A.66.66,0,0,1,424.09,325.21Z"/></g></svg>